<svg width="24" height="24" viewBox="0 0 24 24" fill="none" xmlns="http://www.w3.org/2000/svg">
<rect width="24" height="24" rx="5" fill="#E90164"/>
<path d="M6 11C5.44772 11 5 11.4477 5 12C5 12.5523 5.44772 13 6 13V11ZM18.6636 12.7071C19.0542 12.3166 19.0542 11.6834 18.6636 11.2929L12.2997 4.92893C11.9091 4.53841 11.276 4.53841 10.8855 4.92893C10.4949 5.31946 10.4949 5.95262 10.8855 6.34315L16.5423 12L10.8855 17.6569C10.4949 18.0474 10.4949 18.6805 10.8855 19.0711C11.276 19.4616 11.9091 19.4616 12.2997 19.0711L18.6636 12.7071ZM6 13H17.9565V11H6V13Z" fill="white"/>
</svg>
