<svg width="250" height="36" viewBox="0 0 250 36" fill="none" xmlns="http://www.w3.org/2000/svg">
<g clip-path="url(#clip0_801_1936)">
<rect width="250" height="36" fill="white"/>
<circle cx="168" cy="18" r="18" fill="white"/>
<circle cx="218" cy="18" r="18" fill="white"/>
<circle cx="68" cy="19" r="18" fill="white"/>
<path d="M63.6041 27.0319C71.5286 27.0319 75.863 20.4664 75.863 14.7729C75.863 14.5864 75.863 14.4008 75.8504 14.216C76.6937 13.6061 77.4215 12.8509 78 11.9858C77.2137 12.3344 76.3795 12.5629 75.5254 12.6637C76.4248 12.1253 77.098 11.2783 77.4196 10.2806C76.5738 10.7825 75.6486 11.1362 74.6837 11.3264C74.0341 10.6356 73.1749 10.1782 72.2392 10.025C71.3034 9.87171 70.3432 10.0311 69.5072 10.4785C68.6712 10.926 68.0059 11.6365 67.6144 12.5001C67.2229 13.3637 67.1268 14.3322 67.3412 15.2559C65.6283 15.17 63.9525 14.7248 62.4228 13.9493C60.893 13.1738 59.5434 12.0852 58.4616 10.7543C57.9106 11.7028 57.7419 12.8257 57.9897 13.8942C58.2375 14.9627 58.8833 15.8967 59.7955 16.5058C59.1098 16.4857 58.4391 16.3007 57.84 15.9665V16.0211C57.8403 17.0159 58.1846 17.9799 58.8146 18.7497C59.4447 19.5195 60.3216 20.0477 61.2966 20.2447C60.6623 20.4177 59.9968 20.443 59.3512 20.3186C59.6266 21.1746 60.1626 21.9232 60.8843 22.4596C61.606 22.9961 62.4773 23.2936 63.3764 23.3107C62.4831 24.0128 61.4602 24.532 60.366 24.8384C59.2719 25.1448 58.1281 25.2325 57 25.0965C58.9704 26.3609 61.2629 27.0316 63.6041 27.0285" fill="#8D8D8D"/>
<path d="M178 18.5C178 12.701 173.299 8 167.5 8C161.701 8 157 12.701 157 18.5C157 23.7408 160.84 28.0847 165.859 28.8724V21.5352H163.193V18.5H165.859V16.1867C165.859 13.5552 167.427 12.1016 169.825 12.1016C170.974 12.1016 172.176 12.3066 172.176 12.3066V14.8906H170.852C169.548 14.8906 169.141 15.7001 169.141 16.5312V18.5H172.053L171.587 21.5352H169.141V28.8724C174.16 28.0847 178 23.7408 178 18.5Z" fill="#8D8D8D"/>
<path d="M226.51 23.4698C223.258 21.8951 222.74 19.4639 222.717 19.2835C222.689 19.0651 222.657 18.8933 222.898 18.6712C223.13 18.4565 224.161 17.8183 224.447 17.6187C224.92 17.2881 225.128 16.958 224.974 16.5522C224.867 16.2716 224.606 16.1658 224.331 16.1658C224.244 16.1661 224.157 16.1758 224.073 16.1948C223.553 16.3075 223.049 16.5678 222.757 16.6381C222.722 16.6472 222.686 16.652 222.65 16.6526C222.494 16.6526 222.435 16.5834 222.45 16.3961C222.487 15.8282 222.564 14.7199 222.474 13.6846C222.351 12.2602 221.892 11.5545 221.347 10.9303C221.084 10.6276 219.861 9.32715 217.5 9.32715C215.139 9.32715 213.917 10.6276 213.656 10.9265C213.109 11.5507 212.651 12.2565 212.529 13.6809C212.439 14.7162 212.52 15.8239 212.553 16.3923C212.564 16.5705 212.509 16.6489 212.353 16.6489C212.317 16.6482 212.281 16.6434 212.246 16.6344C211.955 16.5641 211.45 16.3038 210.931 16.191C210.846 16.172 210.76 16.1623 210.673 16.1621C210.397 16.1621 210.136 16.2694 210.029 16.5485C209.876 16.9542 210.083 17.2843 210.557 17.6149C210.843 17.8146 211.874 18.4522 212.106 18.6674C212.346 18.8896 212.315 19.0613 212.287 19.2798C212.264 19.4628 211.745 21.8941 208.494 23.4661C208.304 23.5584 207.979 23.7537 208.551 24.0693C209.448 24.5652 210.045 24.5121 210.509 24.811C210.903 25.0649 210.67 25.6123 210.957 25.8098C211.309 26.053 212.349 25.7927 213.693 26.2365C214.82 26.6079 215.504 27.6572 217.503 27.6572C219.501 27.6572 220.205 26.6031 221.312 26.2365C222.653 25.7927 223.696 26.053 224.048 25.8098C224.334 25.6123 224.102 25.0649 224.496 24.811C224.96 24.5121 225.557 24.5652 226.454 24.0693C227.025 23.7575 226.701 23.5621 226.51 23.4698Z" fill="white"/>
<path d="M227.925 23.2849C227.779 22.8877 227.501 22.6752 227.184 22.4992C227.125 22.4643 227.07 22.4364 227.024 22.4149C226.929 22.3661 226.833 22.3188 226.736 22.2689C225.75 21.7456 224.979 21.0855 224.445 20.303C224.293 20.0827 224.162 19.8492 224.052 19.6053C224.006 19.4748 224.008 19.4008 224.041 19.3331C224.073 19.281 224.116 19.2363 224.167 19.2016C224.337 19.0895 224.511 18.9757 224.63 18.8989C224.841 18.7621 225.009 18.6537 225.117 18.5769C225.522 18.2935 225.805 17.9925 225.982 17.6559C226.106 17.4234 226.178 17.1671 226.193 16.9042C226.209 16.6414 226.168 16.3783 226.073 16.1328C225.805 15.4265 225.138 14.988 224.33 14.988C224.159 14.9878 223.989 15.0058 223.823 15.0417C223.778 15.0513 223.733 15.0615 223.69 15.0728C223.698 14.5898 223.687 14.0799 223.644 13.5781C223.491 11.8139 222.874 10.8892 222.23 10.1518C221.818 9.68965 221.332 9.2987 220.793 8.99463C219.816 8.43646 218.708 8.15308 217.5 8.15308C216.292 8.15308 215.19 8.43646 214.211 8.99463C213.671 9.29879 213.184 9.69053 212.771 10.1539C212.127 10.8913 211.51 11.8177 211.358 13.5802C211.315 14.082 211.304 14.5946 211.311 15.0749C211.267 15.0637 211.223 15.0535 211.179 15.0438C211.012 15.008 210.842 14.99 210.672 14.9901C209.863 14.9901 209.195 15.4286 208.928 16.1349C208.833 16.3805 208.791 16.6439 208.806 16.907C208.822 17.1701 208.893 17.4268 209.017 17.6597C209.194 17.9962 209.478 18.2973 209.883 18.5807C209.99 18.6558 210.158 18.7642 210.369 18.9027C210.484 18.9768 210.65 19.0852 210.814 19.1936C210.871 19.2306 210.92 19.2795 210.957 19.3369C210.991 19.4072 210.992 19.4829 210.941 19.6224C210.833 19.8612 210.703 20.0898 210.554 20.3056C210.032 21.0705 209.284 21.7188 208.329 22.2378C207.823 22.5061 207.297 22.6854 207.075 23.2892C206.907 23.7448 207.017 24.2633 207.442 24.7002C207.599 24.8632 207.78 25.0004 207.979 25.1065C208.394 25.3344 208.834 25.5108 209.292 25.6319C209.386 25.6562 209.476 25.6963 209.557 25.7505C209.712 25.8863 209.69 26.0908 209.897 26.3903C210 26.545 210.132 26.679 210.285 26.7853C210.719 27.0847 211.206 27.1035 211.722 27.1234C212.188 27.1411 212.717 27.1615 213.32 27.3606C213.57 27.4433 213.83 27.6032 214.131 27.79C214.854 28.2344 215.843 28.8425 217.499 28.8425C219.155 28.8425 220.151 28.2311 220.879 27.7851C221.178 27.6016 221.436 27.4433 221.679 27.3628C222.283 27.1631 222.811 27.1432 223.277 27.1255C223.794 27.1057 224.281 27.0869 224.714 26.7874C224.895 26.661 225.046 26.4961 225.156 26.3044C225.305 26.0516 225.301 25.875 225.441 25.7516C225.517 25.7 225.601 25.6615 225.69 25.6378C226.153 25.5164 226.6 25.3383 227.02 25.1075C227.232 24.9939 227.423 24.8447 227.584 24.6664L227.589 24.6599C227.988 24.2327 228.089 23.7293 227.925 23.2849ZM226.453 24.076C225.556 24.5719 224.959 24.5188 224.495 24.8177C224.1 25.0716 224.334 25.619 224.047 25.8165C223.695 26.0596 222.655 25.7993 221.311 26.2432C220.202 26.6098 219.495 27.6639 217.502 27.6639C215.508 27.6639 214.817 26.6119 213.69 26.2405C212.349 25.7967 211.307 26.057 210.954 25.8138C210.668 25.6163 210.9 25.0689 210.507 24.815C210.042 24.5161 209.445 24.5692 208.548 24.076C207.977 23.7604 208.301 23.565 208.491 23.4727C211.743 21.898 212.262 19.4668 212.285 19.2864C212.313 19.068 212.344 18.8963 212.103 18.6741C211.871 18.4594 210.84 17.8212 210.554 17.6216C210.081 17.291 209.873 16.9609 210.026 16.5552C210.134 16.2745 210.396 16.1687 210.67 16.1687C210.757 16.169 210.844 16.1787 210.928 16.1977C211.448 16.3104 211.952 16.5707 212.243 16.641C212.278 16.65 212.314 16.6549 212.351 16.6555C212.506 16.6555 212.561 16.5772 212.55 16.399C212.517 15.8306 212.437 14.7229 212.526 13.6876C212.649 12.2632 213.108 11.5574 213.653 10.9332C213.915 10.6332 215.145 9.33275 217.498 9.33275C219.85 9.33275 221.084 10.6278 221.346 10.9268C221.891 11.5509 222.351 12.2567 222.473 13.6811C222.562 14.7164 222.485 15.8247 222.448 16.3925C222.436 16.5799 222.492 16.6491 222.648 16.6491C222.684 16.6485 222.72 16.6436 222.755 16.6346C223.047 16.5643 223.552 16.304 224.071 16.1913C224.156 16.1723 224.242 16.1626 224.329 16.1623C224.605 16.1623 224.866 16.2696 224.973 16.5487C225.126 16.9545 224.919 17.2845 224.445 17.6152C224.159 17.8148 223.129 18.4524 222.896 18.6676C222.656 18.8898 222.687 19.0616 222.715 19.28C222.738 19.463 223.256 21.8943 226.508 23.4663C226.701 23.5624 227.025 23.7577 226.453 24.076Z" fill="#8D8D8D"/>
<circle cx="18" cy="18" r="18" fill="white"/>
<g clip-path="url(#clip1_801_1936)">
<path d="M17.5 10.5L14.7 13.3L16.1 14.7L18.9 11.9C20.055 10.745 21.945 10.745 23.1 11.9C24.255 13.055 24.255 14.945 23.1 16.1L20.3 18.9L21.7 20.3L24.5 17.5C26.432 15.568 26.432 12.432 24.5 10.5C22.568 8.56797 19.432 8.56797 17.5 10.5ZM18.9 20.3L16.1 23.1C14.945 24.255 13.055 24.255 11.9 23.1C10.745 21.945 10.745 20.055 11.9 18.9L14.7 16.1L13.3 14.7L10.5 17.5C8.56797 19.432 8.56797 22.568 10.5 24.5C12.432 26.432 15.568 26.432 17.5 24.5L20.3 21.7L18.9 20.3ZM14 19.6L19.6 14L21 15.4L15.4 21L14 19.6Z" fill="#8D8D8D"/>
</g>
<circle cx="118" cy="18" r="18" fill="white"/>
<path d="M118.053 9.89119C120.873 9.89119 121.207 9.9035 122.316 9.95273C123.347 9.99785 123.903 10.1702 124.274 10.3137C124.765 10.5024 125.12 10.7322 125.487 11.0973C125.858 11.4665 126.084 11.8152 126.274 12.3034C126.418 12.6726 126.592 13.2305 126.637 14.252C126.686 15.3596 126.699 15.6919 126.699 18.4938C126.699 21.2999 126.686 21.6322 126.637 22.7357C126.592 23.7613 126.418 24.3151 126.274 24.6843C126.084 25.1725 125.854 25.5253 125.487 25.8904C125.115 26.2596 124.765 26.4853 124.274 26.674C123.903 26.8175 123.343 26.9898 122.316 27.035C121.203 27.0842 120.869 27.0965 118.053 27.0965C115.233 27.0965 114.899 27.0842 113.789 27.035C112.759 26.9898 112.202 26.8175 111.831 26.674C111.34 26.4853 110.986 26.2555 110.619 25.8904C110.248 25.5212 110.021 25.1725 109.831 24.6843C109.687 24.3151 109.514 23.7572 109.469 22.7357C109.419 21.6281 109.407 21.2958 109.407 18.4938C109.407 15.6878 109.419 15.3555 109.469 14.252C109.514 13.2264 109.687 12.6726 109.831 12.3034C110.021 11.8152 110.252 11.4624 110.619 11.0973C110.99 10.7281 111.34 10.5024 111.831 10.3137C112.202 10.1702 112.763 9.99785 113.789 9.95273C114.899 9.9035 115.233 9.89119 118.053 9.89119ZM118.053 8C115.187 8 114.828 8.01231 113.703 8.06154C112.581 8.11076 111.81 8.29127 111.142 8.54972C110.446 8.82047 109.856 9.17738 109.271 9.76402C108.681 10.3466 108.322 10.9332 108.05 11.6224C107.79 12.2911 107.609 13.0541 107.56 14.17C107.51 15.294 107.498 15.6509 107.498 18.5021C107.498 21.3532 107.51 21.7101 107.56 22.83C107.609 23.9459 107.79 24.713 108.05 25.3776C108.322 26.0709 108.681 26.6576 109.271 27.2401C109.856 27.8226 110.446 28.1836 111.138 28.4503C111.81 28.7087 112.577 28.8892 113.699 28.9385C114.824 28.9877 115.183 29 118.049 29C120.914 29 121.273 28.9877 122.398 28.9385C123.52 28.8892 124.291 28.7087 124.959 28.4503C125.651 28.1836 126.241 27.8226 126.827 27.2401C127.412 26.6576 127.775 26.0709 128.043 25.3817C128.303 24.713 128.484 23.95 128.534 22.8341C128.583 21.7142 128.595 21.3573 128.595 18.5062C128.595 15.655 128.583 15.2981 128.534 14.1782C128.484 13.0623 128.303 12.2952 128.043 11.6306C127.783 10.9332 127.424 10.3466 126.835 9.76402C126.249 9.18148 125.66 8.82047 124.967 8.55382C124.295 8.29537 123.528 8.11487 122.407 8.06564C121.277 8.01231 120.918 8 118.053 8Z" fill="#8D8D8D"/>
<path d="M118.053 13.1074C115.059 13.1074 112.631 15.5237 112.631 18.502C112.631 21.4803 115.059 23.8966 118.053 23.8966C121.046 23.8966 123.475 21.4803 123.475 18.502C123.475 15.5237 121.046 13.1074 118.053 13.1074ZM118.053 22.0013C116.111 22.0013 114.536 20.4342 114.536 18.502C114.536 16.5698 116.111 15.0027 118.053 15.0027C119.995 15.0027 121.57 16.5698 121.57 18.502C121.57 20.4342 119.995 22.0013 118.053 22.0013Z" fill="#8D8D8D"/>
<path d="M124.955 12.8942C124.955 13.5916 124.386 14.1536 123.689 14.1536C122.988 14.1536 122.423 13.5875 122.423 12.8942C122.423 12.1968 122.992 11.6348 123.689 11.6348C124.386 11.6348 124.955 12.2009 124.955 12.8942Z" fill="#8D8D8D"/>
</g>
<defs>
<clipPath id="clip0_801_1936">
<rect width="250" height="36" fill="white"/>
</clipPath>
<clipPath id="clip1_801_1936">
<rect width="21" height="21" fill="white" transform="translate(7 7)"/>
</clipPath>
</defs>
</svg>
