<svg width="500" height="500" viewBox="0 0 500 500" fill="none" xmlns="http://www.w3.org/2000/svg">
<rect width="500" height="500" fill="white"/>
<circle cx="30" cy="30" r="30" fill="#48EC9D" fill-opacity="0.2"/>
<path d="M20.1281 40.0781L24.0834 38.76L24.7866 39.0825C26.3884 39.9031 28.1269 40.3134 30.0019 40.3134C33.1856 40.2159 35.8369 39.1759 37.9556 37.1934C40.0744 35.2109 41.1731 32.8134 41.2519 30.0009C41.1737 27.1884 40.075 24.7909 37.9556 22.8084C35.8363 20.8259 33.185 19.7859 30.0019 19.6884C26.8181 19.7859 24.1669 20.8259 22.0481 22.8084C19.9294 24.7909 18.8306 27.1884 18.7519 30.0009C18.7519 31.0165 18.9278 32.0225 19.2797 33.0187C19.6316 34.015 20.1491 34.9525 20.8322 35.8312L21.4772 36.6806L20.1281 40.0781ZM18.78 42.4809C18.4088 42.5984 18.0913 42.5153 17.8275 42.2315C17.5638 41.9478 17.5003 41.6206 17.6372 41.25L19.3369 36.9721C18.5556 35.9371 17.95 34.8287 17.52 33.6468C17.09 32.465 16.875 31.249 16.875 29.999C16.9531 26.7765 18.2031 23.969 20.625 21.5765C23.0469 19.184 26.1719 17.929 30 17.8115C33.8281 17.929 36.9531 19.184 39.375 21.5765C41.7969 23.969 43.0469 26.7765 43.125 29.999C43.0469 33.2215 41.7969 36.029 39.375 38.4215C36.9531 40.814 33.8281 42.069 30 42.1865C27.8713 42.1865 25.8497 41.7178 23.9353 40.7803L18.78 42.4809ZM30.0009 31.4943C29.7272 31.4943 29.4781 31.4309 29.2538 31.304C29.0294 31.1771 28.8488 30.9915 28.7119 30.7471C28.575 30.5028 28.5066 30.2537 28.5066 30C28.5066 29.7462 28.575 29.4971 28.7119 29.2528C28.8488 29.0084 29.0294 28.8228 29.2538 28.6959C29.4781 28.569 29.7272 28.5056 30.0009 28.5056C30.4309 28.5056 30.7875 28.6471 31.0706 28.9303C31.3538 29.2134 31.4953 29.57 31.4953 30C31.4953 30.43 31.3538 30.7865 31.0706 31.0696C30.7875 31.3528 30.4309 31.4943 30.0009 31.4943V31.4943ZM35.6259 31.4943C35.3522 31.4943 35.1031 31.4309 34.8787 31.304C34.6544 31.1771 34.4737 30.9915 34.3369 30.7471C34.2 30.5028 34.1316 30.2537 34.1316 30C34.1316 29.7462 34.2 29.4971 34.3369 29.2528C34.4737 29.0084 34.6544 28.8228 34.8787 28.6959C35.1031 28.569 35.3522 28.5056 35.6259 28.5056C36.0559 28.5056 36.4125 28.6471 36.6956 28.9303C36.9788 29.2134 37.1203 29.57 37.1203 30C37.1203 30.43 36.9788 30.7865 36.6956 31.0696C36.4125 31.3528 36.0559 31.4943 35.6259 31.4943V31.4943ZM24.3759 31.4943C24.1022 31.4943 23.8531 31.4309 23.6287 31.304C23.4044 31.1771 23.2237 30.9915 23.0869 30.7471C22.95 30.5028 22.8816 30.2537 22.8816 30C22.8816 29.7462 22.95 29.4971 23.0869 29.2528C23.2237 29.0084 23.4044 28.8228 23.6287 28.6959C23.8531 28.569 24.1022 28.5056 24.3759 28.5056C24.8059 28.5056 25.1625 28.6471 25.4456 28.9303C25.7288 29.2134 25.8703 29.57 25.8703 30C25.8703 30.43 25.7288 30.7865 25.4456 31.0696C25.1625 31.3528 24.8059 31.4943 24.3759 31.4943V31.4943Z" fill="#08080A" fill-opacity="0.96"/>
<path d="M178.75 26.25V39.375H201.25V26.25H178.75ZM177.812 24.375H202.188C202.461 24.375 202.686 24.4628 202.862 24.6384C203.037 24.8141 203.125 25.0388 203.125 25.3125V40.3125C203.125 40.5862 203.037 40.8109 202.862 40.9866C202.686 41.1622 202.461 41.25 202.188 41.25H177.812C177.539 41.25 177.314 41.1622 177.138 40.9866C176.963 40.8109 176.875 40.5862 176.875 40.3125V25.3125C176.875 25.0388 176.963 24.8141 177.138 24.6384C177.314 24.4628 177.539 24.375 177.812 24.375ZM179.688 20.625H200.312V22.5H179.688V20.625ZM182.5 16.875H197.5V18.75H182.5V16.875Z" fill="#08080A" fill-opacity="0.96"/>
<circle cx="190" cy="30" r="30" fill="#F76D6D" fill-opacity="0.2"/>
<path d="M265.58 36.75H259.75C259.476 36.75 259.252 36.6622 259.076 36.4866C258.9 36.3109 258.812 36.0863 258.812 35.8125V19.875H256.938C256.664 19.875 256.439 19.7872 256.263 19.6116C256.088 19.4359 256 19.2113 256 18.9375C256 18.6637 256.088 18.4391 256.263 18.2634C256.439 18.0878 256.664 18 256.938 18H283.188C283.461 18 283.686 18.0878 283.862 18.2634C284.037 18.4391 284.125 18.6637 284.125 18.9375C284.125 19.2113 284.037 19.4359 283.862 19.6116C283.686 19.7872 283.461 19.875 283.188 19.875H281.312V35.8125C281.312 36.0863 281.225 36.3109 281.049 36.4866C280.873 36.6622 280.649 36.75 280.375 36.75H274.545L277.797 42.375H275.628L272.376 36.75H267.747L264.495 42.375H262.326L265.58 36.75ZM279.438 19.875H260.688V34.875H279.438V19.875ZM265.112 29.9241C264.916 30.0997 264.691 30.1875 264.438 30.1875C264.184 30.1875 263.964 30.0947 263.778 29.9091C263.593 29.7234 263.5 29.5037 263.5 29.25C263.5 28.9963 263.588 28.7716 263.763 28.5759L268.099 24.2691L271.761 27.0234L274.954 23.0391C275.189 22.7459 275.487 22.6238 275.848 22.6725C276.209 22.7213 276.453 22.9166 276.58 23.2584C276.707 23.6003 276.653 23.9178 276.419 24.2109L272.112 29.6016L268.274 26.73L265.112 29.9241Z" fill="#08080A" fill-opacity="0.96"/>
<circle cx="270" cy="30" r="30" fill="#4857EC" fill-opacity="0.2"/>
<path d="M110 30C111.602 29.9606 112.93 29.4138 113.984 28.3594C115.039 27.305 115.586 25.9769 115.625 24.375C115.586 22.7731 115.039 21.445 113.984 20.3906C112.93 19.3362 111.602 18.7894 110 18.75C108.398 18.7894 107.07 19.3362 106.016 20.3906C104.961 21.445 104.414 22.7731 104.375 24.375C104.414 25.9769 104.961 27.305 106.016 28.3594C107.07 29.4138 108.398 29.9606 110 30ZM110 31.875C107.871 31.8162 106.104 31.0838 104.697 29.6775C103.291 28.2713 102.559 26.5037 102.5 24.375C102.559 22.2463 103.291 20.4787 104.697 19.0725C106.104 17.6662 107.871 16.9338 110 16.875C112.129 16.9338 113.896 17.6662 115.303 19.0725C116.709 20.4787 117.441 22.2463 117.5 24.375C117.441 26.5037 116.709 28.2713 115.303 29.6775C113.896 31.0838 112.129 31.8162 110 31.875ZM110 30C110.274 30 110.498 30.0878 110.674 30.2634C110.85 30.4391 110.938 30.6638 110.938 30.9375V38.4375C110.938 38.7112 110.85 38.9359 110.674 39.1116C110.498 39.2872 110.274 39.375 110 39.375C109.726 39.375 109.502 39.2872 109.326 39.1116C109.15 38.9359 109.062 38.7112 109.062 38.4375V30.9375C109.062 30.6638 109.15 30.4391 109.326 30.2634C109.502 30.0878 109.726 30 110 30V30ZM106.25 34.0134V35.9175C104.551 36.2106 103.193 36.5962 102.178 37.0744C101.162 37.5525 100.644 38.0066 100.625 38.4366C100.684 39.0422 101.587 39.6525 103.335 40.2675C105.083 40.8825 107.305 41.2097 110 41.2491C112.696 41.2097 114.917 40.8825 116.665 40.2675C118.412 39.6525 119.316 39.0422 119.375 38.4366C119.356 38.0066 118.838 37.5525 117.822 37.0744C116.807 36.5962 115.449 36.2106 113.75 35.9175V34.0134C115.977 34.3453 117.774 34.9069 119.141 35.6981C120.507 36.4894 121.211 37.4025 121.25 38.4375C121.172 39.7656 120.073 40.8691 117.954 41.7478C115.834 42.6266 113.183 43.0856 110 43.125C106.816 43.0856 104.165 42.6266 102.046 41.7478C99.9275 40.8691 98.8287 39.7656 98.75 38.4375C98.7894 37.4025 99.4925 36.4894 100.859 35.6981C102.226 34.9069 104.023 34.3453 106.25 34.0134Z" fill="#08080A" fill-opacity="0.96"/>
<circle cx="110" cy="30" r="30" fill="#8DFF33" fill-opacity="0.2"/>
<circle cx="27" cy="107" r="27" fill="#4857EC" fill-opacity="0.1"/>
<path d="M31.08 111.423C29.8822 112.532 28.258 113.155 26.5643 113.155C24.8707 113.155 23.2464 112.532 22.0486 111.423M21.774 104.285H21.79M31.3547 104.285H31.3706M40.9353 107.242C40.9353 108.99 40.5636 110.72 39.8414 112.334C39.1192 113.949 38.0606 115.416 36.7261 116.651C35.3917 117.887 33.8074 118.867 32.0639 119.536C30.3203 120.205 28.4515 120.549 26.5643 120.549C24.6771 120.549 22.8084 120.205 21.0648 119.536C19.3212 118.867 17.737 117.887 16.4025 116.651C15.0681 115.416 14.0095 113.949 13.2873 112.334C12.5651 110.72 12.1934 108.99 12.1934 107.242C12.1934 103.713 13.7074 100.328 16.4025 97.833C19.0976 95.3375 22.7529 93.9355 26.5643 93.9355C30.3757 93.9355 34.0311 95.3375 36.7261 97.833C39.4212 100.328 40.9353 103.713 40.9353 107.242Z" stroke="#4857EC" stroke-width="3" stroke-linecap="round" stroke-linejoin="round"/>
<circle cx="107" cy="107" r="27" fill="#FFD6D6" fill-opacity="0.5"/>
<path d="M111.08 111.423C109.882 112.532 108.258 113.155 106.564 113.155C104.871 113.155 103.246 112.532 102.049 111.423M101.774 104.285H101.79M111.355 104.285H111.371M120.935 107.242C120.935 108.99 120.564 110.72 119.841 112.334C119.119 113.949 118.061 115.416 116.726 116.651C115.392 117.887 113.807 118.867 112.064 119.536C110.32 120.205 108.452 120.549 106.564 120.549C104.677 120.549 102.808 120.205 101.065 119.536C99.3212 118.867 97.737 117.887 96.4025 116.651C95.0681 115.416 94.0095 113.949 93.2873 112.334C92.5651 110.72 92.1934 108.99 92.1934 107.242C92.1934 103.713 93.7074 100.328 96.4025 97.833C99.0976 95.3375 102.753 93.9355 106.564 93.9355C110.376 93.9355 114.031 95.3375 116.726 97.833C119.421 100.328 120.935 103.713 120.935 107.242Z" stroke="#C66464" stroke-width="3" stroke-linecap="round" stroke-linejoin="round"/>
<circle cx="187" cy="107" r="27" fill="#BCFF87" fill-opacity="0.5"/>
<path d="M199.841 112.334C200.564 110.72 200.935 108.99 200.935 107.242C200.935 103.713 199.421 100.328 196.726 97.833C194.031 95.3375 190.376 93.9355 186.564 93.9355C182.753 93.9355 179.098 95.3375 176.403 97.833C173.707 100.328 172.193 103.713 172.193 107.242C172.193 108.99 172.565 110.72 173.287 112.334C174.009 113.949 175.068 115.416 176.403 116.651C177.737 117.887 179.321 118.867 181.065 119.536C182.808 120.205 184.677 120.549 186.564 120.549C188.452 120.549 190.32 120.205 192.064 119.536C193.807 118.867 195.392 117.887 196.726 116.651C198.061 115.416 199.119 113.949 199.841 112.334Z" fill="#E8FFD6"/>
<path d="M191.08 111.423C189.882 112.532 188.258 113.155 186.564 113.155C184.871 113.155 183.246 112.532 182.049 111.423M181.774 104.285H181.79M191.355 104.285H191.371M200.935 107.242C200.935 108.99 200.564 110.72 199.841 112.334C199.119 113.949 198.061 115.416 196.726 116.651C195.392 117.887 193.807 118.867 192.064 119.536C190.32 120.205 188.452 120.549 186.564 120.549C184.677 120.549 182.808 120.205 181.065 119.536C179.321 118.867 177.737 117.887 176.403 116.651C175.068 115.416 174.009 113.949 173.287 112.334C172.565 110.72 172.193 108.99 172.193 107.242C172.193 103.713 173.707 100.328 176.403 97.833C179.098 95.3375 182.753 93.9355 186.564 93.9355C190.376 93.9355 194.031 95.3375 196.726 97.833C199.421 100.328 200.935 103.713 200.935 107.242Z" stroke="#6AAF35" stroke-width="3" stroke-linecap="round" stroke-linejoin="round"/>
<path d="M158.641 160.537C158.39 159.821 157.296 159.821 157.044 160.537L155.768 164.172C155.713 164.328 155.606 164.464 155.463 164.561C155.319 164.657 155.146 164.709 154.969 164.709H150.842C150.029 164.709 149.689 165.673 150.348 166.117L153.687 168.363C153.831 168.459 153.938 168.595 153.992 168.752C154.047 168.908 154.047 169.076 153.992 169.232L152.717 172.867C152.465 173.584 153.351 174.18 154.009 173.737L157.349 171.491C157.492 171.394 157.665 171.342 157.842 171.342C158.02 171.342 158.193 171.394 158.336 171.491L161.676 173.737C162.334 174.18 163.22 173.584 162.968 172.867L161.693 169.232C161.638 169.076 161.638 168.908 161.693 168.752C161.747 168.595 161.854 168.459 161.998 168.363L165.337 166.117C165.995 165.673 165.657 164.709 164.843 164.709H160.715C160.538 164.709 160.365 164.657 160.222 164.56C160.079 164.464 159.972 164.328 159.917 164.172L158.641 160.537Z" fill="#F9C94E"/>
<path d="M177.641 160.537C177.39 159.821 176.296 159.821 176.044 160.537L174.768 164.172C174.713 164.328 174.606 164.464 174.463 164.561C174.319 164.657 174.146 164.709 173.969 164.709H169.842C169.029 164.709 168.689 165.673 169.348 166.117L172.687 168.363C172.831 168.459 172.938 168.595 172.992 168.752C173.047 168.908 173.047 169.076 172.992 169.232L171.717 172.867C171.465 173.584 172.351 174.18 173.009 173.737L176.349 171.491C176.492 171.394 176.665 171.342 176.842 171.342C177.02 171.342 177.193 171.394 177.336 171.491L180.676 173.737C181.334 174.18 182.22 173.584 181.968 172.867L180.693 169.232C180.638 169.076 180.638 168.908 180.693 168.752C180.747 168.595 180.854 168.459 180.998 168.363L184.337 166.117C184.995 165.673 184.657 164.709 183.843 164.709H179.715C179.538 164.709 179.365 164.657 179.222 164.56C179.079 164.464 178.972 164.328 178.917 164.172L177.641 160.537Z" stroke="#F9C94E" stroke-linecap="round" stroke-linejoin="round"/>
<path d="M128.241 168.39C127.671 168.39 127.221 168.89 127.221 169.5C127.221 170.11 127.681 170.61 128.241 170.61C128.811 170.61 129.261 170.11 129.261 169.5C129.271 168.89 128.811 168.39 128.241 168.39ZM131.891 168.39C131.321 168.39 130.871 168.89 130.871 169.5C130.871 170.11 131.331 170.61 131.891 170.61C132.461 170.61 132.911 170.11 132.911 169.5C132.911 168.89 132.461 168.39 131.891 168.39Z" fill="black"/>
<path d="M136.751 160H123.351C122.221 160 121.301 160.92 121.301 162.06V175.58C121.301 176.72 122.221 177.64 123.351 177.64H134.691L134.161 175.79L135.441 176.98L136.651 178.1L138.801 180V162.06C138.801 160.92 137.881 160 136.751 160ZM132.891 173.06C132.891 173.06 132.531 172.63 132.231 172.25C133.541 171.88 134.041 171.06 134.041 171.06C133.631 171.33 133.241 171.52 132.891 171.65C132.391 171.86 131.911 172 131.441 172.08C130.481 172.26 129.601 172.21 128.851 172.07C128.281 171.96 127.791 171.8 127.381 171.64C127.151 171.55 126.901 171.44 126.651 171.3C126.621 171.28 126.591 171.27 126.561 171.25C126.541 171.24 126.531 171.23 126.521 171.22C126.341 171.12 126.241 171.05 126.241 171.05C126.241 171.05 126.721 171.85 127.991 172.23C127.691 172.61 127.321 173.06 127.321 173.06C125.111 172.99 124.271 171.54 124.271 171.54C124.271 168.32 125.711 165.71 125.711 165.71C127.151 164.63 128.521 164.66 128.521 164.66L128.621 164.78C126.821 165.3 125.991 166.09 125.991 166.09C125.991 166.09 126.211 165.97 126.581 165.8C127.651 165.33 128.501 165.2 128.851 165.17C128.911 165.16 128.961 165.15 129.021 165.15C129.631 165.07 130.321 165.05 131.041 165.13C131.991 165.24 133.011 165.52 134.051 166.09C134.051 166.09 133.261 165.34 131.561 164.82L131.701 164.66C131.701 164.66 133.071 164.63 134.511 165.71C134.511 165.71 135.951 168.32 135.951 171.54C135.951 171.54 135.101 172.99 132.891 173.06V173.06Z" fill="black"/>
<g clip-path="url(#clip0_1954_4820)">
<path fill-rule="evenodd" clip-rule="evenodd" d="M100 160.417C97.6264 160.418 95.3303 161.259 93.5225 162.789C91.7148 164.319 90.5134 166.438 90.1331 168.768C89.7528 171.098 90.2184 173.487 91.4467 175.507C92.675 177.527 94.5858 179.046 96.8376 179.794C97.3344 179.886 97.5215 179.578 97.5215 179.317C97.5215 179.055 97.5115 178.296 97.5082 177.466C94.7263 178.067 94.1385 176.292 94.1385 176.292C93.6847 175.139 93.029 174.836 93.029 174.836C92.1216 174.221 93.0969 174.232 93.0969 174.232C94.102 174.303 94.6303 175.258 94.6303 175.258C95.5211 176.778 96.9701 176.338 97.5397 176.081C97.6291 175.437 97.8891 174.999 98.1756 174.751C95.9533 174.501 93.6185 173.648 93.6185 169.838C93.6047 168.85 93.9735 167.894 94.6485 167.169C94.5458 166.918 94.203 165.908 94.7462 164.534C94.7462 164.534 95.5857 164.268 97.4966 165.554C99.1357 165.108 100.865 165.108 102.504 165.554C104.413 164.268 105.251 164.534 105.251 164.534C105.796 165.904 105.453 166.915 105.351 167.169C106.028 167.894 106.397 168.851 106.382 169.841C106.382 173.659 104.042 174.501 101.817 174.746C102.175 175.055 102.494 175.66 102.494 176.588C102.494 177.919 102.483 178.989 102.483 179.317C102.483 179.582 102.663 179.891 103.17 179.794C105.422 179.046 107.333 177.526 108.561 175.506C109.789 173.486 110.255 171.097 109.874 168.767C109.493 166.436 108.291 164.317 106.483 162.787C104.675 161.257 102.378 160.417 100.004 160.417H100Z" fill="black"/>
<path d="M93.7863 174.694C93.7648 174.743 93.6853 174.758 93.6207 174.723C93.5561 174.689 93.5081 174.624 93.5313 174.573C93.5545 174.522 93.6323 174.509 93.6969 174.544C93.7615 174.578 93.8112 174.644 93.7863 174.694Z" fill="black"/>
<path d="M94.1933 175.143C94.159 175.16 94.1198 175.165 94.0824 175.156C94.0449 175.148 94.0116 175.127 93.988 175.097C93.9234 175.028 93.9102 174.932 93.9599 174.889C94.0095 174.846 94.099 174.866 94.1635 174.935C94.2281 175.004 94.243 175.1 94.1933 175.143Z" fill="black"/>
<path d="M94.5867 175.714C94.5255 175.757 94.4211 175.714 94.3632 175.629C94.3471 175.613 94.3344 175.595 94.3257 175.575C94.317 175.554 94.3125 175.532 94.3125 175.51C94.3125 175.488 94.317 175.466 94.3257 175.446C94.3344 175.425 94.3471 175.407 94.3632 175.392C94.4244 175.35 94.5288 175.392 94.5867 175.476C94.6447 175.56 94.6463 175.672 94.5867 175.714V175.714Z" fill="black"/>
<path d="M95.1217 176.267C95.067 176.328 94.9561 176.312 94.865 176.23C94.7739 176.147 94.7524 176.035 94.8071 175.976C94.8617 175.917 94.9726 175.933 95.067 176.014C95.1614 176.094 95.1796 176.208 95.1217 176.267V176.267Z" fill="black"/>
<path d="M95.8725 176.59C95.8476 176.668 95.735 176.702 95.6224 176.669C95.5098 176.636 95.4353 176.544 95.4568 176.465C95.4784 176.386 95.5926 176.35 95.7069 176.386C95.8211 176.422 95.894 176.51 95.8725 176.59Z" fill="black"/>
<path d="M96.6906 176.646C96.6906 176.727 96.5979 176.796 96.4786 176.797C96.3594 176.799 96.2617 176.733 96.2617 176.652C96.2617 176.572 96.3544 176.503 96.4737 176.501C96.5929 176.499 96.6906 176.564 96.6906 176.646Z" fill="black"/>
<path d="M97.4507 176.519C97.4656 176.6 97.3828 176.684 97.2636 176.704C97.1443 176.724 97.04 176.676 97.0251 176.597C97.0102 176.518 97.0963 176.432 97.2122 176.411C97.3281 176.389 97.4358 176.439 97.4507 176.519Z" fill="black"/>
</g>
<g clip-path="url(#clip1_1954_4820)">
<path d="M79.6014 165.155C79.4883 164.729 79.2654 164.341 78.9551 164.028C78.6448 163.716 78.2579 163.491 77.8332 163.375C76.2695 162.955 70.0195 162.955 70.0195 162.955C70.0195 162.955 63.7695 162.955 62.2059 163.375C61.7811 163.491 61.3942 163.716 61.0839 164.028C60.7736 164.341 60.5508 164.729 60.4377 165.155C60.0195 166.725 60.0195 170 60.0195 170C60.0195 170 60.0195 173.275 60.4377 174.845C60.5508 175.271 60.7736 175.659 61.0839 175.972C61.3942 176.284 61.7811 176.509 62.2059 176.625C63.7695 177.045 70.0195 177.045 70.0195 177.045C70.0195 177.045 76.2695 177.045 77.8332 176.625C78.2579 176.509 78.6448 176.284 78.9551 175.972C79.2654 175.659 79.4883 175.271 79.6014 174.845C80.0195 173.275 80.0195 170 80.0195 170C80.0195 170 80.0195 166.725 79.6014 165.155Z" fill="black"/>
<path d="M67.9746 172.974V167.026L73.2019 170L67.9746 172.974Z" fill="#FEFEFE"/>
</g>
<g clip-path="url(#clip2_1954_4820)">
<path d="M40 161.801C42.6719 161.801 42.9883 161.812 44.0391 161.859C45.0156 161.902 45.543 162.066 45.8945 162.203C46.3594 162.383 46.6953 162.602 47.043 162.949C47.3945 163.301 47.6094 163.633 47.7891 164.098C47.9258 164.449 48.0898 164.98 48.1328 165.953C48.1797 167.008 48.1914 167.324 48.1914 169.992C48.1914 172.664 48.1797 172.98 48.1328 174.031C48.0898 175.008 47.9258 175.535 47.7891 175.887C47.6094 176.352 47.3906 176.688 47.043 177.035C46.6914 177.387 46.3594 177.602 45.8945 177.781C45.543 177.918 45.0117 178.082 44.0391 178.125C42.9844 178.172 42.668 178.184 40 178.184C37.3281 178.184 37.0117 178.172 35.9609 178.125C34.9844 178.082 34.457 177.918 34.1055 177.781C33.6406 177.602 33.3047 177.383 32.957 177.035C32.6055 176.684 32.3906 176.352 32.2109 175.887C32.0742 175.535 31.9102 175.004 31.8672 174.031C31.8203 172.977 31.8086 172.66 31.8086 169.992C31.8086 167.32 31.8203 167.004 31.8672 165.953C31.9102 164.977 32.0742 164.449 32.2109 164.098C32.3906 163.633 32.6094 163.297 32.957 162.949C33.3086 162.598 33.6406 162.383 34.1055 162.203C34.457 162.066 34.9883 161.902 35.9609 161.859C37.0117 161.812 37.3281 161.801 40 161.801ZM40 160C37.2852 160 36.9453 160.012 35.8789 160.059C34.8164 160.105 34.0859 160.277 33.4531 160.523C32.793 160.781 32.2344 161.121 31.6797 161.68C31.1211 162.234 30.7813 162.793 30.5234 163.449C30.2773 164.086 30.1055 164.812 30.0586 165.875C30.0117 166.945 30 167.285 30 170C30 172.715 30.0117 173.055 30.0586 174.121C30.1055 175.184 30.2773 175.914 30.5234 176.547C30.7813 177.207 31.1211 177.766 31.6797 178.32C32.2344 178.875 32.793 179.219 33.4492 179.473C34.0859 179.719 34.8125 179.891 35.875 179.938C36.9414 179.984 37.2813 179.996 39.9961 179.996C42.7109 179.996 43.0508 179.984 44.1172 179.938C45.1797 179.891 45.9102 179.719 46.543 179.473C47.1992 179.219 47.7578 178.875 48.3125 178.32C48.8672 177.766 49.2109 177.207 49.4648 176.551C49.7109 175.914 49.8828 175.188 49.9297 174.125C49.9766 173.059 49.9883 172.719 49.9883 170.004C49.9883 167.289 49.9766 166.949 49.9297 165.883C49.8828 164.82 49.7109 164.09 49.4648 163.457C49.2188 162.793 48.8789 162.234 48.3203 161.68C47.7656 161.125 47.207 160.781 46.5508 160.527C45.9141 160.281 45.1875 160.109 44.125 160.063C43.0547 160.012 42.7148 160 40 160Z" fill="black"/>
<path d="M40 164.863C37.1641 164.863 34.8633 167.164 34.8633 170C34.8633 172.836 37.1641 175.137 40 175.137C42.8359 175.137 45.1367 172.836 45.1367 170C45.1367 167.164 42.8359 164.863 40 164.863ZM40 173.332C38.1602 173.332 36.668 171.84 36.668 170C36.668 168.16 38.1602 166.668 40 166.668C41.8398 166.668 43.332 168.16 43.332 170C43.332 171.84 41.8398 173.332 40 173.332Z" fill="black"/>
<path d="M46.5391 164.66C46.5391 165.324 46 165.859 45.3398 165.859C44.6758 165.859 44.1406 165.32 44.1406 164.66C44.1406 163.996 44.6797 163.461 45.3398 163.461C46 163.461 46.5391 164 46.5391 164.66Z" fill="black"/>
</g>
<g clip-path="url(#clip3_1954_4820)">
<path d="M20 170C20 164.477 15.5229 160 10 160C4.47715 160 0 164.477 0 170C0 174.991 3.65684 179.128 8.4375 179.879V172.891H5.89844V170H8.4375V167.797C8.4375 165.291 9.93047 163.906 12.2146 163.906C13.3084 163.906 14.4531 164.102 14.4531 164.102V166.563H13.1922C11.95 166.563 11.5625 167.333 11.5625 168.125V170H14.3359L13.8926 172.891H11.5625V179.879C16.3432 179.128 20 174.991 20 170Z" fill="black"/>
</g>
<defs>
<clipPath id="clip0_1954_4820">
<rect width="20" height="20" fill="white" transform="translate(90 160)"/>
</clipPath>
<clipPath id="clip1_1954_4820">
<rect width="20" height="20" fill="white" transform="translate(60 160)"/>
</clipPath>
<clipPath id="clip2_1954_4820">
<rect width="20" height="20" fill="white" transform="translate(30 160)"/>
</clipPath>
<clipPath id="clip3_1954_4820">
<rect width="20" height="20" fill="white" transform="translate(0 160)"/>
</clipPath>
</defs>
</svg>
