<svg width="382" height="376" viewBox="0 0 382 376" fill="none" xmlns="http://www.w3.org/2000/svg">
<path d="M87.1801 47.5402C87.123 48.4941 86.8253 49.4181 86.3147 50.226C85.8041 51.0338 85.0973 51.6992 84.2601 52.1602C84.971 53.3648 85.3069 54.7539 85.2249 56.1503C85.143 57.5466 84.647 58.8869 83.8001 60.0002C82.9714 61.0859 81.8653 61.9283 80.5983 62.4387C79.3313 62.949 77.9501 63.1084 76.6001 62.9002C76.2401 63.8802 75.3801 65.5802 74.4001 65.9002C74.2488 65.979 74.0808 66.0202 73.9101 66.0202C73.7395 66.0202 73.5714 65.979 73.4201 65.9002C73.6576 67.304 74.3199 68.6012 75.3177 69.6169C76.3155 70.6326 77.6007 71.3178 79.0001 71.5802C83.5801 72.4002 87.8601 70.9002 87.8601 66.2402C88.9562 66.4613 90.0873 66.4417 91.175 66.1827C92.2628 65.9237 93.2813 65.4315 94.1601 64.7402C94.7861 64.2272 95.3044 63.5957 95.6854 62.8818C96.0664 62.1678 96.3025 61.3856 96.3801 60.5802C96.5801 55.4202 93.0001 52.0002 90.7801 52.0002C92.4001 49.1402 91.3601 46.6602 88.7801 44.7802C88.1225 44.3721 87.3867 44.1064 86.6201 44.0002C87.0336 45.1329 87.2237 46.3351 87.1801 47.5402V47.5402ZM47.2001 49.0202C47.2903 49.0202 47.3768 48.9843 47.4405 48.9206C47.5043 48.8568 47.5401 48.7703 47.5401 48.6802C47.5401 48.59 47.5043 48.5035 47.4405 48.4397C47.3768 48.376 47.2903 48.3402 47.2001 48.3402L45.9801 48.2002C45.6001 48.2002 44.9801 48.2002 44.6201 48.0802C44.3873 45.1448 44.3873 42.1955 44.6201 39.2602C44.6161 39.1765 44.5831 39.0969 44.5268 39.035C44.4705 38.9731 44.3943 38.9328 44.3115 38.9209C44.2286 38.9091 44.1442 38.9265 44.0728 38.9701C44.0013 39.0138 43.9474 39.081 43.9201 39.1602C43.0505 41.3869 42.662 43.7725 42.7801 46.1602C42.7488 46.9862 42.8227 47.8128 43.0001 48.6202C43.4801 49.8802 45.9001 49.3202 47.2001 49.0202ZM37.9201 37.3602C36.9601 37.6202 35.6601 38.5602 36.1401 38.9202C36.8453 39.2438 37.6489 39.2797 38.3801 39.0202C39.0801 38.8402 40.2401 38.1402 40.2201 37.7802C40.2001 37.4202 38.8601 37.1002 37.9201 37.3602V37.3602ZM50.8801 38.7602C57.9201 40.2202 54.6601 37.5402 51.2001 37.1002C50.3001 36.9802 48.2001 37.1002 48.2401 37.6002C48.2801 38.1002 50.3401 38.6402 50.8801 38.7602ZM52.4601 42.1202C52.4041 42.0212 52.329 41.9344 52.2392 41.8647C52.1494 41.7949 52.0466 41.7437 51.9369 41.7139C51.8272 41.6842 51.7126 41.6765 51.5999 41.6913C51.4872 41.7061 51.3785 41.7431 51.2801 41.8002C50.7801 42.0802 50.8001 42.3802 50.9201 44.0002C50.936 44.2282 51.0419 44.4407 51.2144 44.5907C51.387 44.7407 51.612 44.8161 51.8401 44.8002C52.0682 44.7842 52.2806 44.6784 52.4307 44.5058C52.5807 44.3333 52.656 44.1082 52.6401 43.8802C52.6702 43.2877 52.6095 42.6942 52.4601 42.1202V42.1202ZM38.3001 43.2202C38.3187 42.9921 38.2459 42.7659 38.0977 42.5915C37.9496 42.4171 37.7382 42.3087 37.5101 42.2902C37.282 42.2716 37.0559 42.3444 36.8815 42.4925C36.7071 42.6407 36.5987 42.8521 36.5801 43.0802C36.5422 43.5661 36.5422 44.0542 36.5801 44.5402C36.5961 44.7682 36.7019 44.9807 36.8744 45.1307C37.047 45.2807 37.272 45.3561 37.5001 45.3402C37.7282 45.3242 37.9406 45.2184 38.0907 45.0458C38.2407 44.8733 38.316 44.6482 38.3001 44.4202C38.3401 44.0002 38.2801 43.4602 38.3001 43.2202ZM45.2401 56.2402C45.2401 56.8802 47.7801 57.0402 49.1001 55.7202C50.0801 54.7402 50.0201 53.2402 49.6201 53.1402C49.2201 53.0402 49.4801 53.1401 48.0401 54.3801C47.1401 55.1401 45.2001 55.7402 45.2401 56.2402V56.2402Z" fill="black"/>
<path d="M380.159 39.6201C379.636 39.4512 379.083 39.3977 378.537 39.4633C377.992 39.5289 377.467 39.712 376.999 40.0001C377.381 39.0844 377.513 38.0833 377.379 37.1001C377.019 35.4801 374.659 34.7401 372.719 37.1001C372.599 35.8201 372.019 34.9401 370.999 34.7601C368.459 34.2801 367.359 39.1201 366.799 41.6601C365.479 40.6801 363.319 39.0201 362.239 40.3201C361.934 40.6463 361.728 41.0533 361.646 41.4928C361.565 41.9323 361.611 42.3859 361.779 42.8001C362.557 44.1592 363.664 45.3009 364.999 46.1201C364.619 47.0001 362.999 49.3201 362.159 50.6801C361.479 50.4801 360.039 50.1001 359.739 50.6801C352.719 60.2401 333.739 82.4001 321.919 81.9401C303.659 81.2401 280.679 72.4001 278.379 72.7201L275.159 65.6601C278.701 63.2346 281.361 59.7257 282.739 55.6601C284.982 49.4546 286.001 42.8732 285.739 36.2801C285.754 34.1429 285.654 32.0065 285.439 29.8801C293.879 29.3201 299.439 19.3801 292.859 11.1601C292.225 10.1745 291.398 9.32665 290.429 8.66696C289.46 8.00727 288.369 7.54922 287.219 7.32007C285.864 7.24948 284.507 7.43262 283.219 7.86007C275.219 9.86007 275.099 4.80007 269.619 3.44007C267.114 3.02041 264.543 3.29003 262.179 4.22007C254.179 7.02007 255.739 11.4801 252.039 15.2001C250.039 17.2001 241.499 14.3801 238.039 20.0601C234.359 26.2801 234.699 39.4401 240.039 44.6001C241.225 45.6656 242.535 46.5855 243.939 47.3401C245.235 48.6647 246.751 49.7542 248.419 50.5601C249.979 53.7401 251.759 62.8801 252.419 66.3401L251.799 71.5401C247.534 72.2105 243.328 73.2135 239.219 74.5401C232.487 76.7191 225.956 79.4761 219.699 82.7801C208.299 88.7801 209.699 88.6601 209.299 88.0201C207.917 86.5155 206.448 85.0931 204.899 83.7601C193.979 74.5601 182.139 66.7201 168.159 64.4201L166.519 55.1201C170.919 51.5201 173.319 44.2601 173.399 39.1201C175.039 39.8001 176.339 38.6001 177.199 37.1201C177.439 36.6801 178.939 37.1201 180.099 34.5201C180.3 33.978 180.3 33.3821 180.099 32.8401C180.5 32.6005 180.844 32.276 181.106 31.8893C181.369 31.5026 181.543 31.0632 181.618 30.6019C181.692 30.1406 181.664 29.6686 181.537 29.2192C181.409 28.7697 181.185 28.3535 180.879 28.0001C181.495 27.6497 182.023 27.1629 182.422 26.577C182.82 25.9911 183.079 25.3217 183.179 24.6201C183.619 22.0001 183.019 19.6401 180.499 18.8201C180.499 18.2401 180.919 17.2801 180.919 17.0801C180.941 16.1488 180.775 15.2226 180.432 14.3567C180.088 13.4908 179.574 12.7029 178.919 12.0401C176.139 9.66007 175.259 9.86007 173.519 10.0401C173.519 8.84007 174.279 8.04007 173.019 6.40007C172.053 5.2851 170.766 4.49493 169.335 4.13707C167.904 3.77921 166.397 3.87104 165.019 4.40007L164.519 4.56007C164.207 3.77411 163.731 3.06311 163.125 2.4737C162.518 1.8843 161.794 1.42982 160.999 1.14007C158.499 0.200071 156.779 1.42007 154.679 2.52007C151.539 -0.279929 145.539 1.22007 142.319 3.16007C140.859 4.04007 140.719 5.60007 140.139 6.32007C138.896 6.22948 137.659 6.55299 136.619 7.24007C135.699 7.82007 134.839 8.66007 134.099 9.24007C133.612 9.6184 133.21 10.0955 132.919 10.6401C132.3 11.6569 131.943 12.8113 131.879 14.0001C131.388 14.1178 130.921 14.3209 130.499 14.6001C128.901 16.0306 127.778 17.9144 127.279 20.0001C127.061 21.1541 127.172 22.3461 127.599 23.4401C127.599 23.5601 127.799 23.8001 127.859 23.9201C127.459 24.5001 126.419 24.9601 126.219 26.5201C126.019 28.0801 126.079 31.1401 127.599 32.0601C128.239 32.4401 129.599 32.8401 130.079 33.1401C130.004 33.9583 130.004 34.7818 130.079 35.6001C130.599 38.9801 133.939 40.2001 137.379 39.7001L138.319 40.1801C138.685 43.7431 139.63 47.2224 141.119 50.4801C142.229 52.632 143.902 54.4428 145.959 55.7201L144.999 64.2401C140.226 64.9376 135.535 66.1169 130.999 67.7601C117.259 72.7801 109.239 79.3001 102.139 90.6201C92.3592 82.5201 75.7992 70.3801 62.9992 70.6001C63.0814 69.7353 63.0814 68.8648 62.9992 68.0001C62.9992 67.4201 62.6792 65.6401 62.1392 65.3801C62.1392 64.4001 61.9792 63.3801 61.8992 62.4401C66.4192 69.1201 75.6392 65.5801 74.6192 61.0201C75.7599 61.0956 76.9019 60.893 77.9471 60.4297C78.9922 59.9663 79.9092 59.2561 80.6192 58.3601C81.3084 57.3752 81.6781 56.2022 81.6781 55.0001C81.6781 53.798 81.3084 52.6249 80.6192 51.6401C80.4536 51.3734 80.2516 51.131 80.0192 50.9201C83.1392 50.1201 84.2192 48.7401 84.6192 46.7601C84.9411 45.2453 84.8231 43.67 84.2792 42.2201C84.6351 42.0443 84.9705 41.8296 85.2792 41.5801C86.1959 40.704 86.8179 39.5649 87.0592 38.3201C87.5367 33.9862 86.5964 29.6143 84.3792 25.8601C83.6607 24.6082 82.4851 23.6835 81.0992 23.2801C80.839 22.0894 80.685 20.878 80.6392 19.6601C80.3092 17.769 79.5303 15.9847 78.368 14.4569C77.2056 12.9291 75.6937 11.7025 73.9592 10.8801C72.2786 10.0921 70.4545 9.6565 68.5992 9.60007C67.8199 9.53543 67.0358 9.63771 66.2992 9.90007C65.0242 8.35776 63.3499 7.19545 61.4592 6.54007C57.7899 5.85857 53.9979 6.48114 50.7392 8.30007C50.0792 8.74007 49.5592 9.60007 48.9792 10.0201C47.5553 9.4086 46.0115 9.12696 44.4634 9.19623C42.9153 9.2655 41.4028 9.68387 40.0392 10.4201C38.5916 11.0544 37.2872 11.9749 36.2045 13.1263C35.1219 14.2777 34.2833 15.6362 33.7392 17.1201C32.8992 19.1201 32.1392 22.4001 33.4192 24.1201C33.4927 24.2153 33.5595 24.3156 33.6192 24.4201C32.8592 25.7601 31.1192 26.4201 30.5392 30.1401C30.3029 32.0061 30.3773 33.8983 30.7592 35.7401C30.8656 36.1937 31.1198 36.5991 31.4819 36.8924C31.844 37.1857 32.2933 37.3502 32.7592 37.3601C32.1392 43.3601 32.2392 51.3601 35.5192 56.5401C36.3357 57.7517 37.2886 58.8657 38.3592 59.8601C39.4775 60.9558 40.8528 61.7534 42.3592 62.1801V65.7401C41.3592 66.3001 42.0592 69.4801 41.6392 71.4001C33.5192 70.8401 22.1592 72.7201 15.8592 77.9201C6.13918 86.0001 2.17918 97.4001 1.13918 110C-0.280815 127.38 9.13918 138.14 23.7592 140C24.6777 143.043 25.7592 146.034 26.9992 148.96C20.8217 160.544 16.3041 172.938 13.5792 185.78C11.5792 196.66 10.6392 213.9 10.4592 230.44C10.4592 238.32 10.4592 267.88 13.0992 275.24C13.5192 276.4 15.3192 277.02 16.4992 277.36C19.7806 278.219 23.1241 278.821 26.4992 279.16C27.3392 296.72 29.8392 363.58 29.8392 363.68C26.4027 365.519 23.239 367.828 20.4392 370.54C19.9943 370.936 19.6607 371.442 19.4712 372.007C19.2818 372.571 19.2432 373.176 19.3592 373.76C19.5652 374.279 19.9517 374.707 20.4478 374.964C20.9438 375.221 21.516 375.291 22.0592 375.16C25.3792 374.86 34.3192 372.18 38.3592 371.44C38.4592 372.3 38.5992 373.14 39.4392 373.44C40.8792 373.94 43.7192 374.2 44.7592 372.9C45.7992 371.6 45.1792 368.2 45.3192 366.74C45.4392 365.66 54.5592 302.74 57.6792 281.16H60.1792C64.0192 301.94 74.5192 361.36 74.5392 361.46C72.4601 363.04 70.489 364.757 68.6392 366.6C67.0992 368.16 64.5192 370.96 65.5392 372.88C66.5592 374.8 68.9592 373.82 70.9792 373.08C74.9792 371.68 80.9792 368.98 84.0392 367.98C84.2592 368.8 84.5192 369.62 85.3792 369.8C86.5725 369.98 87.7899 369.919 88.9592 369.62C90.6592 369.12 90.9592 368.06 90.9592 366.3C90.2192 357.44 90.1992 385.38 90.7992 280.76C93.0168 280.671 95.2143 280.301 97.3392 279.66C102.999 276.88 102.479 195.66 95.1192 170.1C94.6192 168.34 91.4592 159.16 89.2192 153.46C89.2895 153.266 89.2895 153.054 89.2192 152.86C88.5616 151.204 87.8206 149.582 86.9992 148C87.5992 140.64 88.2392 126.44 88.8392 122.14L93.8192 125.56C94.2274 127.169 94.8039 128.731 95.5392 130.22C96.3585 132.37 97.6743 134.295 99.3792 135.84C101.533 137.825 104.097 139.312 106.89 140.197C109.682 141.082 112.635 141.342 115.539 140.96H118.899C122.779 164 121.659 161.58 122.239 162.16C107.499 212.96 102.739 309.32 104.739 358.16C104.739 358.392 104.817 358.617 104.959 358.8C105.979 360.1 112.339 360.8 114.439 361.16C110.495 363.263 106.74 365.706 103.219 368.46C101.439 370.2 103.779 373.46 105.959 374.02C107.159 374.34 123.479 372.02 124.719 371.84C124.879 372.6 125.239 373.34 125.999 373.48C128.139 373.849 130.309 374.003 132.479 373.94C133.359 373.94 134.479 373.74 134.679 372.9C135.347 369.572 135.735 366.193 135.839 362.8C137.259 362.8 138.679 362.8 139.139 362.4C143.139 358.4 160.999 256.62 162.459 248.4C162.955 245.643 163.083 242.831 162.839 240.04C159.939 205.74 161.019 219.86 160.559 206.64C160.578 206.561 160.623 206.492 160.686 206.442C160.75 206.392 160.828 206.364 160.909 206.364C160.99 206.364 161.068 206.392 161.132 206.442C161.195 206.492 161.24 206.561 161.259 206.64C162.599 222.36 163.399 222.9 164.479 243.62C164.479 245.04 180.779 356.56 183.719 359.48C185.285 360.128 186.965 360.454 188.659 360.44C188.468 364.746 188.811 369.059 189.679 373.28C189.735 373.439 189.822 373.584 189.935 373.708C190.049 373.832 190.186 373.931 190.339 374C191.799 374.72 197.259 374 198.339 373.86C198.682 373.73 198.983 373.509 199.209 373.22C199.435 372.93 199.577 372.585 199.619 372.22C201.319 372.46 217.199 374.7 218.359 374.4C220.539 373.84 222.899 370.58 221.099 368.82C216.934 365.635 212.504 362.812 207.859 360.38C210.259 360.2 215.299 359.76 217.379 358.54C220.519 356.68 217.519 217.16 192.319 159.94C192.779 159.2 194.539 138.66 194.619 137.74C200.941 137.526 207.066 135.491 212.259 131.88L220.259 129C215.388 147.562 211.733 166.422 209.319 185.46C208.859 189.22 206.539 207.9 209.039 210.7C209.297 210.99 209.653 211.176 210.039 211.22C211.179 211.32 215.739 211.72 220.599 212.02C220.599 269.4 226.239 300.2 235.339 360.62C235.368 360.807 235.462 360.979 235.604 361.103C235.747 361.228 235.93 361.297 236.119 361.3H236.639C237.016 364.086 237.625 366.835 238.459 369.52C239.719 372.06 259.259 372 262.019 371.12C262.501 370.873 262.883 370.468 263.101 369.973C263.32 369.478 263.361 368.922 263.219 368.4C262.419 364.84 255.219 364.06 251.819 361.5H252.999C253.184 361.505 253.364 361.446 253.51 361.333C253.655 361.22 253.758 361.06 253.799 360.88L269.099 284.3C269.279 285.42 280.039 362.3 280.039 362.3C280.073 362.501 280.179 362.683 280.337 362.812C280.496 362.941 280.695 363.008 280.899 363H282.479C282.76 365.819 283.215 368.617 283.839 371.38C283.87 371.507 283.929 371.625 284.012 371.725C284.095 371.826 284.2 371.906 284.319 371.96C286.319 372.9 303.899 373.96 306.799 372.38C307.326 372.094 307.727 371.622 307.923 371.056C308.119 370.49 308.096 369.87 307.859 369.32C307.357 367.928 306.461 366.711 305.279 365.82C302.859 364.48 298.639 364.18 296.379 363H297.499C297.69 362.989 297.873 362.917 298.021 362.794C298.168 362.672 298.273 362.506 298.319 362.32C298.319 362.32 304.139 340.94 307.559 291.76C309.559 263.08 310.119 233.76 309.899 205.4C312.459 205.6 316.819 205.8 318.979 205.7C319.579 205.7 320.159 205.7 320.419 205.12C322.739 200.5 320.979 154.58 319.679 143C319.559 141.88 316.699 122.86 316.319 120.38C322.979 120.12 332.599 118.7 338.059 114.8C366.059 94.8001 371.399 60.6401 373.679 56.0601C373.899 55.5801 373.359 55.3401 372.019 54.6801C372.788 52.397 373.704 50.1658 374.759 48.0001C377.539 46.4601 380.759 44.7001 380.979 41.5201C381.086 41.1575 381.062 40.769 380.912 40.4221C380.762 40.0751 380.496 39.7914 380.159 39.6201V39.6201ZM180.699 19.2001C180.539 19.2001 180.499 19.0801 180.499 18.8801C180.499 18.6801 180.879 19.2001 180.699 19.2001ZM254.319 95.2001C264.199 95.8201 270.079 95.9001 280.119 95.8401C280.759 99.7201 281.479 103.96 282.259 108.46C276.879 108.46 258.639 108.66 253.899 108.58C254.119 104.18 254.279 99.6801 254.319 95.2401V95.2001ZM251.699 137.06C263.339 137.74 271.979 137.92 287.439 137.6C288.479 143.3 289.559 149.06 290.519 154.12C281.159 154.4 259.559 154.78 249.839 154.5C250.219 151.32 250.999 143.6 251.699 137.1V137.06ZM248.999 160.94C264.239 161.82 276.439 161.86 291.939 161.4C292.699 165.24 293.439 168.96 294.159 172.46C276.479 173.14 259.179 173.18 246.879 172.94C247.693 168.98 248.399 164.98 248.999 160.94ZM286.139 130.4C280.139 130.52 258.139 130.76 252.299 130.68C252.819 124.96 253.219 119.78 253.519 115.08C263.119 115.68 269.639 115.9 283.519 115.74C283.999 118.38 285.759 128.2 286.139 130.4ZM277.539 77.0001C277.779 80.2801 278.499 85.3601 278.999 88.6201C273.899 88.6201 258.299 88.8001 254.299 88.7401C254.259 84.6345 253.985 80.5345 253.479 76.4601C258.879 83.7201 273.459 82.7201 277.539 77.0001V77.0001ZM245.539 179.32C262.248 180.328 278.997 180.455 295.719 179.7C296.479 183.22 297.179 186.42 297.839 189.22C294.679 189.04 257.319 187.22 243.719 186.56C244.279 184.28 244.879 181.86 245.479 179.32H245.539ZM249.919 49.8201C249.219 48.4201 244.779 47.8201 244.359 44.2801C243.879 40.1401 248.699 40.0001 250.359 41.8601C250.499 42.0001 251.479 43.3201 251.599 43.4801C252.639 44.8801 253.599 44.9201 253.919 42.9201C254.379 39.2001 253.239 31.7601 257.579 32.5401C260.68 33.5127 263.869 34.1825 267.099 34.5401C273.239 35.1001 278.119 34.5401 282.079 30.1401C282.519 30.0401 283.979 29.9801 284.499 29.9401C284.681 32.0549 284.735 34.1788 284.659 36.3001C284.796 42.7202 283.682 49.1055 281.379 55.1001C278.199 62.7201 273.799 64.5601 273.799 64.5601C273.697 64.599 273.604 64.6581 273.525 64.7336C273.446 64.8092 273.383 64.8998 273.339 65.0001C273.159 65.4601 273.099 65.0001 276.859 73.4201C277.659 80.6801 256.159 83.6401 253.379 72.2401L254.059 66.4201C254.139 66.0001 251.759 53.5601 249.859 49.8201H249.919ZM205.919 85.8201C212.243 92.099 216.601 100.084 218.459 108.8C219.639 114.8 219.139 119.84 217.179 123.3C215.895 125.523 214.291 127.544 212.419 129.3C210.457 131.306 208.063 132.838 205.419 133.78C199.867 135.817 193.909 136.502 188.039 135.78C180.232 134.793 172.524 133.141 164.999 130.84C164.999 130.24 164.879 129.6 164.819 128.84L171.719 126.32C173.041 125.952 174.321 125.45 175.539 124.82C176.239 124.46 176.299 123.4 176.379 122.5C176.719 119.22 176.039 119.66 177.039 118.86C179.279 117.1 185.439 115.38 188.119 114.62C189.019 114.38 190.319 114.18 189.919 113.32C189.792 112.092 189.289 110.932 188.479 110C184.259 92.1201 184.979 92.1801 184.299 92.3001C184.253 92.3044 184.208 92.3187 184.168 92.342C184.128 92.3653 184.093 92.3971 184.067 92.4352C184.04 92.4733 184.022 92.5167 184.014 92.5624C184.005 92.6082 184.007 92.6551 184.019 92.7001C184.919 98.0201 186.259 104.9 187.219 109.54L184.739 109.18C184.319 109.18 183.899 109.18 183.799 108.98C182.999 107.32 183.339 105.36 181.419 104.4C181.219 104.265 180.993 104.174 180.756 104.133C180.519 104.091 180.275 104.1 180.041 104.158C179.807 104.216 179.588 104.323 179.399 104.472C179.209 104.62 179.052 104.807 178.939 105.02C177.899 107.02 179.159 111.5 178.939 111.44C177.874 111.877 176.759 112.179 175.619 112.34C175.573 112.157 175.491 111.985 175.378 111.834C175.265 111.682 175.122 111.555 174.959 111.46C170.902 109.477 166.679 107.851 162.339 106.6C161.399 98.7201 160.159 88.8001 159.719 85.4801C159.873 85.4087 160.014 85.3143 160.139 85.2001C160.845 83.808 161.363 82.3284 161.679 80.8001C162.019 81.1801 162.299 81.5401 162.919 81.3001C168.345 77.3569 173.472 73.0184 178.259 68.3201C188.405 72.5077 197.76 78.3992 205.919 85.7401V85.8201ZM180.599 106C182.039 106.82 181.259 109.26 182.879 110.48C184.502 110.956 186.188 111.185 187.879 111.16C188.276 111.82 188.528 112.556 188.619 113.32C187.059 113.8 179.479 115.48 176.319 117.66C176.255 116.15 176.088 114.647 175.819 113.16C177.459 113.02 179.519 113.16 180.119 112.1C180.719 111.04 179.699 105.46 180.599 106ZM176.739 68.0001C173.159 71.1001 165.139 77.7401 162.739 79.5001C161.539 78.1601 158.399 74.4401 157.519 73.0801C159.519 71.3601 166.919 66.3601 167.999 65.7601C170.987 66.1149 173.921 66.8266 176.739 67.8801V68.0001ZM145.239 65.6201L154.999 73.1401C153.519 74.7201 149.899 77.8601 148.279 79.5001C145.999 77.8601 139.779 71.2801 136.279 67.6401C139.218 66.7696 142.211 66.0948 145.239 65.6201V65.6201ZM139.799 39.1401C139.519 38.7401 139.479 38.8601 137.439 37.7801C136.099 36.6801 134.479 35.7801 133.879 34.1401C133.879 32.7801 134.299 31.1001 135.719 31.1801C136.793 31.4275 137.789 31.9358 138.619 32.6601C139.527 32.9578 140.503 32.9779 141.422 32.7179C142.341 32.4578 143.162 31.9293 143.779 31.2001C144.472 29.9519 144.679 28.4915 144.359 27.1001C145.675 26.9824 146.894 26.3586 147.759 25.3601C148.186 24.4969 148.444 23.5601 148.519 22.6001C150.39 23.1316 152.388 22.9828 154.159 22.1801C155.37 21.6584 156.475 20.9196 157.419 20.0001C157.628 20.5263 157.904 21.0236 158.239 21.4801C158.55 21.9556 158.984 22.3385 159.494 22.5884C160.004 22.8383 160.573 22.946 161.139 22.9001C161.845 22.7881 162.524 22.5438 163.139 22.1801V22.9801C163.129 23.5935 163.253 24.2018 163.502 24.7622C163.752 25.3226 164.122 25.8214 164.585 26.2237C165.048 26.6259 165.594 26.9218 166.184 27.0905C166.774 27.2592 167.393 27.2966 167.999 27.2001C167.987 27.3331 167.987 27.467 167.999 27.6001C168.199 28.6801 167.779 31.9401 169.279 32.3201C170.779 32.7001 169.959 28.9601 172.839 28.5001C173.357 28.3738 173.902 28.4327 174.381 28.6665C174.859 28.9003 175.241 29.2943 175.459 29.7801C176.019 31.5801 175.459 32.3801 174.519 34.1601L173.899 34.8601C172.939 35.9001 171.899 37.0001 171.899 38.0001C171.959 41.0593 171.38 44.0973 170.199 46.9201C169.183 49.7814 167.397 52.3072 165.039 54.2201C164.922 54.3104 164.83 54.43 164.774 54.567C164.718 54.704 164.699 54.8534 164.719 55.0001L166.359 64.6201L155.999 71.6601C154.179 70.2601 156.599 72.3401 146.639 64.6401L147.719 55.3401C147.738 55.1694 147.706 54.9971 147.628 54.8443C147.55 54.6915 147.428 54.5649 147.279 54.4801C140.099 50.4601 140.659 40.5201 139.799 39.1401V39.1401ZM116.599 76.9401C122.071 73.0215 128.153 70.0346 134.599 68.1001C138.261 72.313 142.153 76.3192 146.259 80.1001C147.139 80.8601 148.259 81.8001 149.039 81.0001C149.319 80.6801 149.739 80.2601 150.219 79.7801C150.718 81.5156 151.306 83.2245 151.979 84.9001C152.059 85.0483 152.167 85.1794 152.297 85.2858C152.428 85.3921 152.578 85.4718 152.739 85.5201C152.519 88.1001 151.979 95.5201 151.359 103.74C145.014 102.378 138.525 101.8 132.039 102.02C132.039 101.5 132.679 95.3401 132.699 95.1401C132.699 94.0601 132.699 92.6401 132.819 92.0801C132.843 91.9925 132.831 91.8991 132.786 91.8204C132.741 91.7416 132.667 91.6839 132.579 91.6601C132.492 91.6362 132.398 91.6481 132.319 91.6931C132.241 91.7381 132.183 91.8125 132.159 91.9001C130.379 95.5201 130.699 98.0801 130.939 102.08C126.466 102.301 122.081 103.409 118.039 105.34C117.957 105.382 117.895 105.456 117.867 105.544C117.839 105.632 117.847 105.728 117.889 105.81C117.932 105.892 118.005 105.954 118.093 105.982C118.181 106.011 118.277 106.003 118.359 105.96C132.359 99.1201 157.759 105.6 171.259 111.42C172.201 111.806 173.116 112.254 173.999 112.76C174.615 115.914 174.804 119.136 174.559 122.34C174.559 123.24 174.559 123.46 172.959 124.08C171.819 124.54 170.459 124.86 169.619 125.18C166.879 126.2 164.239 127.18 161.619 128.18C146.829 132.927 131.717 136.603 116.399 139.18C111.419 139.18 104.859 138.26 101.199 134.82C85.3592 120 101.919 87.0201 116.599 76.9401V76.9401ZM41.6392 60.0001C39.7804 58.9281 38.1928 57.4432 36.9992 55.6601C33.8792 50.8201 33.8392 42.9001 34.3592 37.1801C37.1533 36.3105 39.6934 34.7727 41.7592 32.7001C43.9951 30.4151 45.9491 27.8702 47.5792 25.1201L48.6992 22.9601C50.7267 28.1463 54.1968 32.6435 58.6992 35.9201C60.2646 36.6367 61.9582 37.0312 63.6792 37.0801C63.64 38.6486 63.8081 40.2155 64.1792 41.7401C64.2191 41.8208 64.2752 41.8926 64.3439 41.9508C64.4126 42.0091 64.4925 42.0527 64.5787 42.079C64.6648 42.1052 64.7555 42.1135 64.845 42.1034C64.9345 42.0932 65.021 42.0649 65.0992 42.0201C65.9792 41.5401 66.3192 38.9601 67.6792 37.1801C68.0392 36.6801 68.4592 36.3001 68.9792 36.4201C69.5276 36.5041 70.0485 36.7165 70.4992 37.0401C72.4992 38.5201 70.8992 44.4401 67.1592 46.2801C66.0392 46.8401 60.1992 53.6401 59.8192 55.7801C59.569 56.9555 59.631 58.176 59.9992 59.3201C60.1192 61.0601 60.3192 63.3201 60.4592 65.3201C56.7592 65.3201 47.7392 65.3201 44.0392 65.5001C44.2192 60.5601 44.3192 61.0801 41.6392 60.0001V60.0001ZM78.9992 279.58H63.8992C66.1992 251.1 68.9992 181.26 68.3992 156.52C71.0659 156.4 73.4658 156.24 75.5992 156.04C80.1592 179.62 82.6992 256.52 78.9992 279.58V279.58ZM28.9992 277.76C26.8392 253.9 28.9992 176.46 34.7192 155.76C35.7192 155.9 42.8792 156.54 42.8792 156.54C39.8392 180.98 36.7192 251.12 37.7992 278.54C34.5592 278.3 31.5992 278 28.8792 277.76H28.9992ZM51.1192 155.08L43.5992 154.78C43.5817 152.625 43.7356 150.471 44.0592 148.34L46.7592 148.14L52.5992 148C52.3115 150.398 51.8164 152.767 51.1192 155.08ZM27.9592 148.5L42.4392 148.22C42.0337 150.423 41.8461 152.66 41.8792 154.9C36.4457 154.856 31.0284 154.3 25.6992 153.24C27.1792 150 27.7992 148.9 27.9592 148.5ZM44.2592 278.9C43.5992 253.94 47.6592 177.58 50.2592 156.64C52.9992 156.64 55.0392 156.78 60.7192 156.64C60.7192 166.12 57.8792 267.64 57.2192 279.34C53.7992 279.34 45.1392 278.96 44.2592 278.9V278.9ZM52.6592 155.1C53.1499 152.766 53.3913 150.386 53.3792 148C66.5192 147.76 79.3792 147.44 85.1792 148.22C85.9693 149.614 86.6385 151.072 87.1792 152.58C75.8792 155 63.1992 155.1 52.6592 155.1V155.1ZM14.9992 275C11.5392 272.8 10.4192 210.72 14.6592 185.96C16.8157 174.878 20.3989 164.122 25.3192 153.96L27.4192 154.4C21.8192 174.62 19.5792 248.1 22.3592 276.82C19.8336 276.556 17.3568 275.943 14.9992 275V275ZM43.9392 365C38.3792 365.76 35.3792 366.2 33.1992 366.68C31.9483 366.798 30.6973 366.456 29.6792 365.72C31.3192 364.74 31.6792 364.88 31.6792 363.94C31.8592 360.06 27.8992 286.94 27.4192 279.2C36.5392 280.24 47.9392 280.8 57.0592 281.06C53.9592 300.14 45.3592 355.22 43.8792 365.06L43.9392 365ZM88.6992 360.88C83.6192 362.3 80.4392 363.22 78.2992 364.02C77.0745 364.31 75.7858 364.14 74.6792 363.54C76.1192 362.4 76.4192 362.48 76.3392 361.54C75.9792 357.54 61.8792 285.2 61.0792 281.18C72.3992 281.42 83.0792 281.3 90.0192 280.82C89.5592 303.28 88.7592 351.72 88.6392 360.94L88.6992 360.88ZM93.7792 170.46C100.459 194.12 101.139 266.46 96.6392 278.08C94.9592 278.92 87.4192 279.24 85.5792 279.32C89.5792 254.42 87.5792 179.32 82.9992 155.06C84.8792 154.76 86.5592 154.44 88.1192 154.1C90.3392 160.16 93.2592 168.88 93.7192 170.52L93.7792 170.46ZM79.6592 112C78.7992 111.22 77.9592 110.52 77.2392 109.76C77.1835 109.688 77.1016 109.642 77.0116 109.631C76.9216 109.619 76.8308 109.644 76.7592 109.7C76.6876 109.756 76.641 109.838 76.6298 109.928C76.6185 110.018 76.6435 110.108 76.6992 110.18C80.1192 115.78 84.8592 118.48 87.3992 120.78C86.7592 123.22 86.0992 137.84 85.3992 146.5C80.1192 145.28 52.5392 146.72 43.2792 146.72C43.0682 146.723 42.8669 146.809 42.7192 146.96C35.4392 147.3 29.6992 147.64 28.0992 147.74C27.1392 145.5 25.9392 141.88 25.1992 139.58C28.4425 140.162 31.7659 140.135 34.9992 139.5C35.0548 140.716 35.3186 141.913 35.7792 143.04C36.7792 143.92 70.0592 141.54 71.1192 141.32C71.8392 141.16 71.8592 140.16 71.9192 139.32C72.0992 137.32 72.2192 132.92 72.2992 127.76C72.6087 127.637 72.8877 127.447 73.1169 127.205C73.3461 126.964 73.5199 126.675 73.6265 126.359C73.733 126.043 73.7696 125.708 73.7338 125.377C73.698 125.045 73.5907 124.726 73.4192 124.44C73.6531 124.142 73.8237 123.8 73.9205 123.433C74.0173 123.067 74.0383 122.685 73.9821 122.311C73.9259 121.936 73.7938 121.577 73.5938 121.255C73.3938 120.934 73.1302 120.656 72.8192 120.44C73.0777 120.188 73.2745 119.88 73.3939 119.539C73.5134 119.198 73.5524 118.834 73.5078 118.476C73.4633 118.118 73.3364 117.774 73.1371 117.473C72.9379 117.172 72.6716 116.921 72.3592 116.74C72.3592 109.52 72.3592 102.48 72.0992 98.5401C71.9792 95.3001 71.8792 94.9401 71.3792 94.5401C70.3992 93.9401 66.1792 94.1801 64.2792 94.2601C64.3055 93.4119 64.0755 92.5755 63.6192 91.8601C62.6992 90.9601 58.6392 91.8601 56.2792 91.8601C55.7592 90.2001 55.4992 88.9601 53.6592 88.1001C52.7535 87.7801 51.7613 87.8075 50.8746 88.177C49.9879 88.5464 49.2698 89.2317 48.8592 90.1001C48.8592 90.3001 48.2792 91.9401 48.1592 92.4801C46.0131 92.6425 43.8769 92.9162 41.7592 93.3001C40.9992 93.5401 40.9392 95.1401 40.9192 96.2601C33.2992 97.0601 32.7992 97.0601 32.6592 97.8401C32.5192 98.6201 33.0792 111.34 33.1192 112.4C31.2492 112.637 29.398 113.005 27.5792 113.5C27.9576 111.016 28.1847 108.512 28.2592 106C28.2592 104.9 28.3592 100.2 27.6992 100.18C27.0392 100.16 26.6392 104.78 26.5792 105.7C26.4592 107.1 26.2792 112.32 26.3792 113.88C25.5392 114.14 24.7392 114.42 23.9192 114.74C23.8343 114.772 23.7656 114.836 23.7281 114.919C23.6906 115.001 23.6874 115.095 23.7192 115.18C23.751 115.265 23.8152 115.334 23.8978 115.371C23.9803 115.409 24.0743 115.412 24.1592 115.38C35.4592 111.48 50.7592 113.66 59.1392 117.86L59.5192 126.28C52.2792 131.34 40.7592 137.6 31.9592 138.72C29.3639 139.02 26.74 138.966 24.1592 138.56C8.99918 136.6 1.17918 125.74 2.27918 110.14C3.13918 98.0001 6.99918 86.2601 16.3192 78.4801C22.3192 73.5001 33.7792 71.8001 41.5792 72.4801C43.5792 72.6401 42.4992 68.3201 43.0192 66.7601C43.7792 66.6401 46.1992 66.6001 47.0192 66.5801C46.9199 67.9583 46.9199 69.3419 47.0192 70.7201C47.0192 71.3001 47.4392 73.4801 47.9592 73.3201C48.4792 73.1601 48.6792 71.4601 48.6992 70.9801C48.7192 70.5001 48.6992 70.4401 48.5192 66.5801H55.1792C55.0987 67.9122 55.0987 69.248 55.1792 70.5801C55.1792 71.1601 55.5992 73.3401 56.1192 73.1801C56.6392 73.0201 56.8392 71.3201 56.8592 70.8401C56.8792 70.3601 56.8592 69.3601 56.6792 66.6201H61.5592C61.7593 67.2684 61.867 67.9417 61.8792 68.6201C61.8792 70.9401 61.4792 71.2801 61.8792 71.7401C62.9592 72.9601 72.7592 68.1201 101.419 91.9801C96.0792 100.98 91.8592 112.76 93.4192 123.14C88.7592 120 89.6592 120.98 79.6592 112V112ZM34.5592 112.18C34.3592 105.48 34.1992 99.3601 34.1992 98.6201C35.7792 98.3801 39.3592 98.0201 40.9392 97.8601C40.9392 100.8 41.0592 101 42.9392 101.2C46.5192 101.62 62.2992 101.2 63.9592 99.7801C64.1098 99.6581 64.2268 99.4998 64.2992 99.3201C64.426 98.2181 64.4528 97.1069 64.3792 96.0001C66.331 95.8899 68.2874 95.8899 70.2392 96.0001C70.6192 99.5601 70.6592 112.7 70.6592 116.28C69.9082 116.287 69.1615 116.394 68.4392 116.6C68.7192 114.96 69.1392 112.3 67.4792 111.94C67.0348 111.813 66.563 111.819 66.1221 111.958C65.6812 112.096 65.2908 112.362 64.9992 112.72C64.133 114.056 63.6235 115.591 63.5192 117.18C62.6034 117.183 61.6884 117.13 60.7792 117.02C60.7483 116.912 60.6949 116.811 60.6225 116.725C60.5501 116.639 60.4604 116.569 60.3592 116.52C52.3043 112.787 43.388 111.308 34.5592 112.24V112.18ZM72.1592 123.24C71.3792 123.7 70.8792 123.38 69.4792 123.56C69.2617 123.56 69.0531 123.646 68.8994 123.8C68.7456 123.954 68.6592 124.163 68.6592 124.38C68.6592 124.598 68.7456 124.806 68.8994 124.96C69.0531 125.114 69.2617 125.2 69.4792 125.2C70.1441 125.268 70.8143 125.268 71.4792 125.2C71.6392 125.2 72.2192 125.32 72.2192 125.48C72.2192 127.3 68.6392 126.6 67.0592 125.68C65.1018 125.56 63.1378 125.749 61.2392 126.24L60.8392 118C61.9274 118.291 63.0622 118.366 64.1792 118.22C64.3339 118.134 64.4487 117.99 64.4992 117.82C64.9592 116.14 65.3392 113.04 67.0992 113.48C67.2026 114.739 67.0738 116.007 66.7192 117.22C66.5192 118.46 66.9992 118.74 67.9392 118.66C68.7793 118.283 69.6802 118.059 70.5992 118C71.1192 118 71.6392 118 71.7992 118.6C71.9592 119.2 71.4392 119.42 70.9392 119.6C70.4392 119.78 68.4792 120.06 68.2792 120.1C68.0815 120.162 67.9129 120.294 67.8045 120.471C67.6961 120.647 67.6552 120.857 67.6893 121.062C67.7233 121.266 67.8301 121.451 67.99 121.583C68.1498 121.715 68.3519 121.785 68.5592 121.78C70.9792 121.52 70.5592 121.4 71.2792 121.56C71.5928 121.634 71.8714 121.813 72.0682 122.068C72.2649 122.323 72.3677 122.638 72.3592 122.96C72.3626 123.03 72.3454 123.1 72.3099 123.16C72.2744 123.22 72.222 123.269 72.1592 123.3V123.24ZM61.1392 127.06C62.903 126.827 64.68 126.706 66.4592 126.7C67.7077 127.488 69.1435 127.93 70.6192 127.98C70.6192 131.56 70.6192 137.98 70.3792 139.86C66.0192 140.32 40.5992 142.8 36.2392 142.4C36.0083 141.373 35.8545 140.33 35.7792 139.28C46.8192 137 60.5792 128.18 61.1392 127.12V127.06ZM133.139 372.08C130.86 372.229 128.57 372.108 126.319 371.72V370.72C126.296 370.48 126.181 370.258 125.999 370.1C125.459 369.68 125.879 369.98 111.879 371.76L107.299 372.28C106.859 372.28 106.359 372.5 106.359 372.28C105.279 372 103.699 370.1 104.359 369.4C108.097 366.401 112.04 363.668 116.159 361.22C122.379 361.96 129.819 362.48 134.419 362.62C134.216 365.818 133.795 368.999 133.159 372.14L133.139 372.08ZM200.719 360.56C202.579 360.56 204.439 360.46 206.219 360.36C208.919 362.02 217.839 367.52 220.039 369.78C220.399 370.16 220.039 370.9 219.719 371.32C218.439 373.08 217.459 372.64 217.099 372.6C213.699 372.32 202.439 370.74 199.099 370.26C198.983 370.243 198.865 370.25 198.751 370.281C198.638 370.312 198.532 370.365 198.441 370.438C198.349 370.511 198.273 370.602 198.218 370.706C198.162 370.809 198.129 370.923 198.119 371.04V372.04C195.877 372.446 193.593 372.574 191.319 372.42C190.51 368.525 190.095 364.558 190.079 360.58C190.039 360 189.439 360.82 200.739 360.62L200.719 360.56ZM190.999 158.8C180.739 158.8 131.939 160.02 123.619 160.96C123.419 157.56 121.099 143.58 120.539 140.22C130.192 138.559 139.752 136.396 149.179 133.74C148.944 135.1 148.884 136.485 148.999 137.86C151.41 140.771 154.088 143.449 156.999 145.86C157.15 145.979 157.33 146.055 157.52 146.079C157.71 146.104 157.903 146.077 158.079 146C160.939 143.613 163.391 140.776 165.339 137.6C165.422 135.946 165.308 134.287 164.999 132.66C170.559 134.66 185.639 137.82 193.199 137.7C192.839 141.84 191.319 156.68 190.999 158.8V158.8ZM212.199 177.26C217.319 142 222.099 130.32 222.199 127.72C225.368 126.342 228.319 124.509 230.959 122.28C231.997 121.359 232.972 120.37 233.879 119.32C234.219 119 233.759 118.5 233.439 118.8C233.119 119.1 232.339 119.52 231.779 119.88C224.979 124.44 223.419 126.1 215.439 128.94C217.182 127.219 218.503 125.117 219.299 122.8C222.799 110.98 217.979 98.8001 210.319 89.2201C219.453 83.5778 229.169 78.9376 239.299 75.3801C243.294 74.0409 247.386 73.0112 251.539 72.3001C251.689 73.1753 251.965 74.0241 252.359 74.8201C255.559 94.4801 249.239 151.7 245.479 170.7C243.299 181.74 239.139 197.84 234.359 208.14C234.04 208.904 233.659 209.639 233.219 210.34C230.699 211.18 213.019 209.7 210.279 209.44C208.239 205.74 211.619 181.54 212.239 177.26H212.199ZM296.799 361.26H281.619C281.619 360.66 270.339 280.88 270.019 279.78C271.299 271.56 280.019 227.46 279.719 216.44C279.719 216.35 279.683 216.263 279.62 216.2C279.556 216.136 279.469 216.1 279.379 216.1C279.289 216.1 279.203 216.136 279.139 216.2C279.075 216.263 279.039 216.35 279.039 216.44C279.039 217.6 278.679 219.84 278.199 222.82C270.779 269.14 265.079 295.82 252.319 359.9L236.879 359.74C226.759 295.74 221.799 264.7 221.539 212.1C223.659 212.22 232.459 212.78 234.159 211.92C234.759 211.62 235.379 210.28 235.759 209.5C238.762 202.646 241.236 195.572 243.159 188.34C256.859 189.1 292.059 190.74 298.119 191.06C300.699 203.22 300.879 203.92 301.599 204.18C303.886 204.764 306.223 205.132 308.579 205.28C308.739 245.82 306.619 321.8 296.839 361.16L296.799 361.26ZM372.799 55.9801C370.039 62.4401 364.159 94.7601 337.239 113.64C331.979 117.32 322.399 118.64 315.999 118.82C315.71 115.675 315.107 112.566 314.199 109.54C313.799 108.3 313.199 106.84 312.839 105.96C312.802 105.887 312.74 105.829 312.665 105.795C312.59 105.762 312.506 105.755 312.427 105.776C312.347 105.797 312.277 105.845 312.229 105.911C312.18 105.977 312.156 106.058 312.159 106.14C313.259 114.9 313.439 111.8 314.639 119.72C314.639 119.72 317.939 142.06 318.059 143.16C319.599 157.16 320.579 198.24 319.019 203.94C313.497 204.07 307.975 203.641 302.539 202.66C300.399 195.52 279.459 91.8001 278.999 74.2801C284.299 75.2401 304.739 82.6001 321.859 83.1401C337.139 83.6001 360.119 51.1401 360.319 51.1401C361.899 50.8601 370.619 54.5601 372.819 55.8801L372.799 55.9801ZM379.499 41.4001C379.339 43.9801 376.339 45.7201 374.119 47.0801C373.339 47.5801 371.579 53.5201 371.359 54.3601C368.594 53.0687 365.756 51.9401 362.859 50.9801C364.859 47.9401 366.599 46.3401 365.839 45.6201C364.459 44.3601 361.839 42.6601 363.199 41.2401C363.367 41.2766 363.529 41.3372 363.679 41.4201C365.579 42.3201 367.099 44.7601 367.919 43.2601C368.286 41.4975 368.787 39.7657 369.419 38.0801C370.479 35.6201 371.139 36.0801 370.879 38.4801C370.652 40.1205 370.243 41.7304 369.659 43.2801C369.59 43.4975 369.61 43.7335 369.716 43.9361C369.821 44.1386 370.002 44.2911 370.219 44.3601C370.437 44.429 370.673 44.4088 370.875 44.3037C371.078 44.1987 371.23 44.0175 371.299 43.8001C371.799 42.0303 372.546 40.3402 373.519 38.7801C374.499 37.3401 375.679 36.9801 375.639 37.9601C375.328 39.7169 374.646 41.3873 373.639 42.8601C373.381 43.2193 373.223 43.6401 373.179 44.0801C373.147 44.2669 373.18 44.4591 373.273 44.6241C373.367 44.7892 373.515 44.9167 373.691 44.9851C373.868 45.0535 374.063 45.0584 374.243 44.9992C374.423 44.9399 374.577 44.8201 374.679 44.6601C375.281 43.8203 375.949 43.031 376.679 42.3001C377.859 41.1401 379.579 40.3401 379.519 41.3001L379.499 41.4001Z" fill="black"/>
<path d="M154.26 42.9601C155.08 44.8201 159.56 43.6601 158.68 42.7201C158.616 42.6566 158.53 42.6209 158.44 42.6209C158.35 42.6209 158.264 42.6566 158.2 42.7201C157.933 42.8058 157.647 42.8058 157.38 42.7201C156.834 42.6418 156.302 42.487 155.8 42.2601V34.7401C155.781 34.6615 155.736 34.5916 155.673 34.5416C155.609 34.4916 155.531 34.4644 155.45 34.4644C155.369 34.4644 155.291 34.4916 155.227 34.5416C155.164 34.5916 155.119 34.6615 155.1 34.7401C154.382 36.9247 154.077 39.2238 154.2 41.5201C154.15 42.0005 154.17 42.4856 154.26 42.9601ZM148.46 38.0001C148.46 37.4601 148.46 36.8801 148.34 36.3801C148.301 36.157 148.177 35.9577 147.994 35.8236C147.812 35.6895 147.585 35.6309 147.36 35.6601C147.246 35.677 147.137 35.7166 147.039 35.7764C146.941 35.8361 146.856 35.915 146.789 36.0082C146.722 36.1014 146.674 36.2071 146.649 36.3191C146.623 36.431 146.62 36.547 146.64 36.6601C146.64 37.0201 146.64 37.4401 146.74 38.1201C146.748 38.233 146.778 38.3433 146.828 38.4446C146.879 38.546 146.949 38.6363 147.034 38.7106C147.12 38.7849 147.219 38.8417 147.326 38.8776C147.434 38.9135 147.547 38.928 147.66 38.9201C147.773 38.9122 147.883 38.8822 147.985 38.8317C148.086 38.7812 148.176 38.7112 148.251 38.6258C148.325 38.5404 148.382 38.4411 148.418 38.3338C148.453 38.2264 148.468 38.113 148.46 38.0001V38.0001ZM161.96 37.8601C161.96 38.0882 162.051 38.3069 162.212 38.4682C162.373 38.6295 162.592 38.7201 162.82 38.7201C163.048 38.7201 163.267 38.6295 163.428 38.4682C163.589 38.3069 163.68 38.0882 163.68 37.8601V36.9601C163.795 36.7977 163.851 36.6014 163.839 36.4031C163.828 36.2047 163.75 36.016 163.618 35.8677C163.486 35.7193 163.307 35.62 163.112 35.586C162.916 35.5519 162.715 35.5851 162.54 35.6801C161.76 36.1801 161.96 37.1801 161.96 37.8601ZM157.92 50.2201C157.201 50.6205 156.444 50.9488 155.66 51.2001C155.22 51.2001 155.12 51.8201 155.66 51.8801C156.168 52.1353 156.732 52.2591 157.3 52.2401C157.88 52.1715 158.437 51.972 158.929 51.6567C159.421 51.3415 159.835 50.9186 160.14 50.4201C160.387 49.8895 160.491 49.3033 160.44 48.7201C160.459 48.6299 160.441 48.5361 160.39 48.4592C160.339 48.3823 160.26 48.3287 160.17 48.3101C160.08 48.2915 159.986 48.3095 159.909 48.3602C159.832 48.4108 159.779 48.4899 159.76 48.5801C159.214 49.1979 158.596 49.7484 157.92 50.2201V50.2201ZM269.56 51.5801C271.08 52.0601 273.56 52.3801 274.62 51.1801C275.68 49.9801 275.1 46.8601 274.98 45.5401C274.73 42.948 274.166 40.3959 273.3 37.9401C273.281 37.8499 273.228 37.7708 273.151 37.7202C273.074 37.6695 272.98 37.6515 272.89 37.6701C272.8 37.6887 272.721 37.7423 272.67 37.8192C272.619 37.8961 272.601 37.9899 272.62 38.0801C272.62 38.7001 272.9 41.7601 272.96 42.5401C273.343 45.0877 273.477 47.6665 273.36 50.2401C272.912 50.5435 272.397 50.7355 271.86 50.8001C269.86 51.1401 269.4 50.6601 269.3 51.1801C269.288 51.2236 269.286 51.269 269.293 51.3135C269.3 51.358 269.316 51.4005 269.341 51.4382C269.365 51.476 269.397 51.5081 269.435 51.5326C269.473 51.557 269.516 51.5732 269.56 51.5801V51.5801ZM266.18 38.4001C266.18 37.7601 264.34 37.4401 263.14 37.7001C261.94 37.9601 260.3 39.2201 260.76 39.7001C261.22 40.1801 266.1 38.9801 266.18 38.4001ZM264.86 43.1801V44.9001C264.86 45.1282 264.951 45.3469 265.112 45.5082C265.273 45.6695 265.492 45.7601 265.72 45.7601C265.948 45.7601 266.167 45.6695 266.328 45.5082C266.489 45.3469 266.58 45.1282 266.58 44.9001V43.2401C266.585 43.01 266.501 42.787 266.344 42.6188C266.187 42.4505 265.97 42.3505 265.74 42.3401C265.513 42.3399 265.295 42.4271 265.132 42.5835C264.968 42.74 264.87 42.9537 264.86 43.1801V43.1801ZM281.92 39.2201C282.08 38.9801 281.44 37.7001 279.92 37.2201C278.4 36.7401 277.24 37.5001 277.24 37.8601C277.24 38.2201 281.62 39.6601 281.92 39.2201ZM264 55.8601C263.54 56.0001 263.54 58.8801 266.28 59.7001C267.68 60.1001 269.58 59.8801 269.62 59.3801C269.66 58.8801 266.9 58.2801 266 57.6601C265.1 57.0401 264.38 55.7401 264 55.8601V55.8601ZM279.18 42.0001C279.067 41.9974 278.955 42.0171 278.849 42.0578C278.744 42.0986 278.648 42.1598 278.566 42.2378C278.484 42.3158 278.419 42.4091 278.373 42.5125C278.327 42.6158 278.303 42.7271 278.3 42.8401V44.5401C278.332 44.7482 278.437 44.938 278.596 45.0752C278.756 45.2124 278.96 45.2878 279.17 45.2878C279.381 45.2878 279.584 45.2124 279.744 45.0752C279.903 44.938 280.008 44.7482 280.04 44.5401V42.8801C280.043 42.7655 280.022 42.6515 279.98 42.5448C279.938 42.4382 279.875 42.341 279.795 42.259C279.715 42.177 279.619 42.1119 279.514 42.0674C279.408 42.023 279.295 42.0001 279.18 42.0001V42.0001Z" fill="black"/>
</svg>
