<svg width="381" height="318" viewBox="0 0 381 318" fill="none" xmlns="http://www.w3.org/2000/svg">
<path d="M255.001 182.66H254.881H255.001ZM88.0007 241C88.7607 241.12 92.9207 241.32 92.9207 240.6C92.9207 240.18 92.1607 240.2 92.1607 240.2C92.2607 237 96.3207 236.2 99.2207 237.88C100.02 238.34 100.759 238.898 101.421 239.54C97.3207 239.76 91.8807 242.56 92.2407 246.62C92.4474 247.679 92.8913 248.677 93.5391 249.539C94.1868 250.402 95.0216 251.107 95.9807 251.6C97.1795 252.497 98.545 253.147 99.9975 253.511C101.45 253.875 102.96 253.946 104.441 253.72C107.077 253.048 109.397 251.478 111.001 249.28C114.626 249.396 118.173 248.211 121.001 245.94C121.12 245.846 121.219 245.728 121.291 245.593C121.363 245.459 121.407 245.312 121.421 245.16C121.421 244.46 121.421 244.5 117.421 240.06C117.307 239.934 117.166 239.836 117.007 239.776C116.848 239.716 116.677 239.695 116.509 239.715C116.34 239.734 116.179 239.794 116.038 239.889C115.898 239.984 115.782 240.111 115.701 240.26C115.632 240.347 115.571 240.441 115.521 240.54C115.203 241.137 114.689 241.606 114.067 241.868C113.444 242.13 112.749 242.17 112.101 241.98C110.101 241.4 107.521 236.1 102.821 232.94C98.7207 230.18 93.2206 229.36 89.3406 232.64C87.6707 234.074 86.4834 235.987 85.9407 238.12C85.7247 238.778 85.7676 239.493 86.0606 240.12C86.586 240.629 87.2716 240.94 88.0007 241V241ZM95.5206 248.42C94.9723 248.028 94.5917 247.445 94.4546 246.785C94.3174 246.125 94.4339 245.438 94.7807 244.86C95.6676 243.634 96.9002 242.701 98.3207 242.18C97.1747 244.123 96.2362 246.181 95.5206 248.32V248.42ZM114.361 245.26C114.841 243.82 114.361 244.32 115.161 243.96C115.767 243.658 116.315 243.252 116.781 242.76L118.601 244.92C117.093 245.876 115.427 246.553 113.681 246.92C113.881 246.4 114.201 245.6 114.361 245.16V245.26ZM107.121 240.16C109.021 242.54 110.601 244.66 113.501 244.42C113.087 245.281 112.752 246.178 112.501 247.1C111.041 247.2 110.841 246.86 110.261 247.1C109.121 247.54 107.241 251.64 102.681 251.62C102.964 250.986 103.147 250.311 103.221 249.62C104.511 249.36 105.719 248.79 106.741 247.96C107.179 247.581 107.463 247.054 107.541 246.48C107.541 245.78 107.301 244.88 105.821 243.7C106.372 242.532 106.807 241.313 107.121 240.06V240.16ZM100.401 247.72C98.6407 246.78 101.641 245.12 103.581 245.18C104.026 245.183 104.462 245.313 104.837 245.554C105.212 245.794 105.512 246.136 105.701 246.54C105.433 246.97 105.081 247.341 104.666 247.631C104.25 247.92 103.78 248.121 103.283 248.222C102.787 248.324 102.276 248.322 101.78 248.219C101.284 248.115 100.815 247.911 100.401 247.62V247.72ZM102.761 235.48C104.119 236.635 105.352 237.928 106.441 239.34C105.808 240.494 105.324 241.724 105.001 243C104.16 242.759 103.279 242.693 102.412 242.807C101.545 242.92 100.711 243.211 99.9607 243.66C96.3007 245.66 97.1607 250.04 102.241 249.54C101.942 250.115 101.72 250.727 101.581 251.36C99.5525 250.956 97.656 250.056 96.0606 248.74C97.4785 246.537 98.5824 244.148 99.3406 241.64C100.118 241.283 100.959 241.085 101.814 241.057C102.67 241.03 103.522 241.174 104.321 241.48L104.741 239.9L104.301 239.7C103.361 239.06 102.941 238.56 101.861 237.7C102.262 236.97 102.564 236.19 102.761 235.38V235.48ZM95.0007 232.28C97.5035 232.326 99.9269 233.166 101.921 234.68C101.563 235.495 101.294 236.347 101.121 237.22C100.162 236.468 99.031 235.966 97.8299 235.76C96.6288 235.554 95.3953 235.65 94.2407 236.04C94.6626 234.827 94.9183 233.562 95.0007 232.28V232.28ZM90.4207 233.84C91.5294 232.977 92.8618 232.45 94.2607 232.32C93.6401 233.665 93.2545 235.105 93.1207 236.58C92.5248 236.938 92.037 237.45 91.7095 238.063C91.3819 238.676 91.2268 239.366 91.2607 240.06C89.8594 240.137 88.4571 239.926 87.1407 239.44C87.4382 237.219 88.603 235.205 90.3806 233.84H90.4207ZM60.5407 230.5C56.9407 228.94 48.9407 233.56 47.4807 236.04C47.2695 236.587 47.2695 237.193 47.4807 237.74C48.7407 242.52 60.5007 259.4 62.6807 262.02C63.0607 262.5 63.5807 261.84 63.2407 261.28C62.2007 259.56 62.3207 263.02 67.6407 245.8C68.1335 245.607 68.5925 245.337 69.0007 245C69.1862 244.794 69.2888 244.527 69.2888 244.25C69.2888 243.973 69.1862 243.706 69.0007 243.5C68.8191 243.276 68.6109 243.074 68.3806 242.9L69.6407 238.24L74.6407 241C73.6295 243.527 72.892 246.156 72.4407 248.84C70.4242 249.567 68.5344 250.606 66.8406 251.92C65.6606 253.22 67.5207 255.62 68.6807 257.06C69.8407 258.5 70.8207 259.48 71.0407 259.7C71.2607 259.92 71.9607 259.7 71.9007 259.34C71.7737 259.051 71.6052 258.781 71.4007 258.54C70.3169 256.853 69.3866 255.073 68.6207 253.22C70.1751 252.29 71.8161 251.513 73.5206 250.9C74.1406 250.68 76.0607 250.08 76.5807 250.4C79.1465 251.752 81.8229 252.883 84.5807 253.78C84.692 253.833 84.8199 253.84 84.9362 253.799C85.0525 253.757 85.1476 253.672 85.2006 253.56C85.2537 253.449 85.2603 253.321 85.2191 253.205C85.1778 253.088 85.092 252.993 84.9807 252.94L81.5206 250.84C82.2573 249.17 82.7296 247.395 82.9207 245.58L91.4607 250.2C91.9807 250.5 92.3807 249.68 92.0007 249.46C91.6207 249.24 65.7007 232.76 60.5407 230.5V230.5ZM57.5007 232.62C58.1986 232.411 58.9427 232.411 59.6407 232.62C60.1007 232.82 61.2207 233.42 62.7407 234.26C62.2279 235.676 61.879 237.145 61.7007 238.64C60.3607 237.88 59.5607 237.3 58.5007 237.48C57.9229 237.61 57.3824 237.87 56.9207 238.24C57.1207 236.68 57.3007 235.48 57.5007 232.62V232.62ZM49.5007 237.02C51.5749 235.043 54.0913 233.589 56.8406 232.78C55.7733 237.498 55.0249 242.282 54.6007 247.1C52.5839 243.906 50.8826 240.524 49.5207 237L49.5007 237.02ZM58.5807 253.84C57.4807 252.02 56.2807 250 55.1407 248.02C55.8207 245.16 56.0407 243.84 56.4607 241.14C57.5549 243.038 58.8202 244.832 60.2407 246.5C59.4343 248.881 58.8845 251.342 58.6007 253.84H58.5807ZM62.0807 259.6C61.3607 258.46 60.4407 256.92 59.2407 254.94C59.9999 252.431 60.5025 249.851 60.7407 247.24C61.1807 248.3 65.1007 246.78 66.1607 246.38C65.3807 248.84 62.6607 257.4 62.1007 259.6H62.0807ZM61.4807 246.62C60.2412 244.475 59.1455 242.25 58.2007 239.96L58.8207 239.62C59.1007 239.78 65.9407 243.82 66.4407 244.14C64.8819 245.131 63.2268 245.962 61.5007 246.62H61.4807ZM67.4807 242.22C65.9807 241.22 63.9407 240 62.3807 239.1C62.9144 237.684 63.2639 236.205 63.4207 234.7L69.1007 237.9C69.0007 238.66 68.3207 240.22 67.6007 242.22H67.4807ZM80.7207 250.22L77.6407 248.36C76.2721 247.82 74.7492 247.82 73.3806 248.36C74.1558 246.022 74.7181 243.619 75.0606 241.18L82.3007 245.18C81.561 246.811 81.0689 248.544 80.8406 250.32L80.7207 250.22Z" fill="black"/>
<path d="M379.7 257.34C376.46 227.18 348.54 180.8 331.86 155.46C341.174 156.205 350.521 156.439 359.86 156.16C362.52 156.16 369.48 155.68 370.82 155.42C371.6 155.26 371.72 154.52 370.54 154.48C369.36 154.44 360.96 154.04 359.82 154.02H339.48C336.36 154.14 331.48 154.42 331.2 154.42C325.2 145.28 321.02 139.56 320.98 139.54C320.934 139.493 320.879 139.457 320.818 139.434C320.757 139.41 320.691 139.4 320.626 139.404C320.561 139.408 320.497 139.426 320.439 139.456C320.381 139.487 320.33 139.529 320.29 139.581C320.25 139.633 320.221 139.692 320.206 139.756C320.19 139.82 320.189 139.886 320.201 139.95C320.214 140.014 320.24 140.075 320.277 140.129C320.315 140.182 320.364 140.227 320.42 140.26C321.34 141 361.76 200.06 374.12 240.74C379.02 256.88 381.92 277.14 366.12 282.74C328.6 296.14 34.7404 300.5 6.96043 284.74C3.10043 282.56 2.20043 278.02 2.96043 271.9C4.14043 263.4 8.72043 251.9 14.2404 239.02C20.4604 245.02 72.0604 292.4 80.4204 290.62C88.7804 288.84 135.8 267 137.74 262.82C138.867 259.917 139.464 256.834 139.5 253.72C139.737 253.394 139.847 252.993 139.811 252.592C139.774 252.191 139.593 251.817 139.3 251.54C136.2 248.46 74.7004 199.7 70.7404 199.84C67.9804 199.96 62.9804 202.8 60.6004 204.2C59.8288 202.938 58.6799 201.949 57.3162 201.375C55.9525 200.801 54.4428 200.67 53.0004 201C51.6405 201.549 50.4228 202.4 49.439 203.488C48.4552 204.575 47.7308 205.872 47.3204 207.28C47.3428 207.388 47.4018 207.485 47.4874 207.555C47.573 207.625 47.6801 207.663 47.7904 207.663C47.9008 207.663 48.0078 207.625 48.0934 207.555C48.179 207.485 48.238 207.388 48.2604 207.28C49.4634 205.246 51.3704 203.723 53.6204 203C54.556 202.856 55.5131 202.981 56.3805 203.36C57.2479 203.739 57.99 204.356 58.5204 205.14L36.2804 214.64C35.0996 213.426 33.6254 212.537 32.0004 212.06C28.2004 211.06 25.6404 213.56 24.1204 217.22C24.087 217.325 24.0908 217.439 24.1314 217.542C24.1719 217.644 24.2467 217.73 24.343 217.784C24.4394 217.838 24.5514 217.857 24.6602 217.838C24.7691 217.819 24.868 217.764 24.9404 217.68C27.5004 213.98 30.4604 212.72 34.0004 215.68C29.7204 217.58 23.7404 220.28 19.5404 222.36C19.8404 221.88 63.0004 143.72 63.0004 143.52C64.9004 140 68.7204 133.7 72.6604 132.88C74.4413 132.492 76.2578 132.291 78.0804 132.28C75.3004 136.88 52.7404 174.28 52.7004 179.56C52.7004 185.56 53.7404 184.62 56.9404 185.56C60.1404 186.5 239.2 185.4 239.52 185.4C242.62 185.4 254.74 185 255.86 184.18C259.34 181.62 258.56 177.8 257.04 173.78C256.68 172.82 254.86 168.84 252.42 163.52C262.92 160.36 270.82 164.38 271.54 181.52C272.26 196.34 266.42 200.86 255.24 200.22C246.26 199.7 240.06 197.06 238.1 200.56C235.9 204.46 241.98 213.22 244.62 216.86C244.24 216.86 227.5 216.52 223.28 216.34C217.334 216.11 211.379 216.183 205.44 216.56C201.35 216.65 197.284 217.207 193.32 218.22C191.82 218.96 189.88 222.82 189.06 224.44C187.44 227.62 180.06 247.58 178.02 253.34C176.82 256.66 172.76 267.66 175.48 269.6C175.38 271.74 175.72 274.6 177.6 275.6C179.48 276.6 205.32 277.32 207.3 277.36C210.8 277.46 246.18 277.92 268.76 276.92C291.34 275.92 301.2 273.76 300.62 273.82C301.194 273.651 301.709 273.326 302.108 272.881C302.507 272.436 302.775 271.888 302.88 271.3C303.189 269.822 303.092 268.288 302.6 266.86C305.12 261.96 286.06 221.28 280.78 218.42C280.469 218.244 280.118 218.148 279.76 218.14C278.7 218.14 254.98 217.14 245.76 216.84C243.76 214.02 237.26 203.4 239.76 201.14C243.56 197.82 275.3 214.46 273.6 181.34C272.72 166.36 265.82 157.58 251.82 162.66C250.6 160.02 240.36 138.14 237.62 132.32C248.235 132.955 258.884 132.721 269.46 131.62C269.612 133.487 270.149 135.302 271.037 136.95C271.925 138.599 273.145 140.046 274.62 141.2C282.62 147.2 314.46 146.3 320.24 138.96C321.86 136.745 322.98 134.205 323.522 131.515C324.064 128.825 324.016 126.05 323.38 123.38C323.912 123.042 324.325 122.545 324.56 121.96C324.88 121.34 324.56 120.56 323.18 120.28C321.4 120.013 319.6 119.906 317.8 119.96C317.8 118.32 317.9 115.26 317.8 111.78C317.98 111.66 319.28 110.1 319.42 109.92C321.014 108.058 322.273 105.933 323.14 103.64C323.8 101.78 324.06 99.6401 322.32 98.6001C319.64 97.1401 317.76 99.8201 316.86 102.82C316.02 98.2001 314.08 91.4201 309.44 92.1001C301.56 93.3001 307 112.4 309.56 119.96C307.312 119.644 305.029 119.644 302.78 119.96C305.28 113.68 306.56 105.56 300.14 104.34C299.167 104.125 298.152 104.2 297.221 104.555C296.29 104.911 295.483 105.531 294.9 106.34C294.772 105.887 294.531 105.475 294.199 105.141C293.868 104.807 293.457 104.562 293.005 104.431C292.554 104.299 292.076 104.284 291.617 104.387C291.158 104.49 290.732 104.708 290.38 105.02C287.44 107.14 289.12 112 292.54 113.6C292.36 115.656 292.36 117.724 292.54 119.78C290.411 119.523 288.256 119.57 286.14 119.92C286.022 115.037 285.487 110.172 284.54 105.38C285.756 104.515 286.778 103.408 287.542 102.127C288.307 100.846 288.796 99.4202 288.98 97.9401C289.26 95.2801 288.32 93.0601 286.1 92.4801C283.32 91.7601 281.68 93.7001 281.2 96.4801C278.74 93.0801 273.92 91.8601 271.58 95.7601C264.08 87.9601 260.46 92.3201 262.36 95.7601C263.78 98.4001 267.48 99.8801 270.36 100.7C270.36 105.18 272.36 108.96 274.84 112.82C276.5 115.42 278.36 117.92 279.8 119.76C276.688 119.66 273.574 119.861 270.5 120.36C268.62 120.86 268.32 122.22 270.06 123.2C269.51 125.544 269.308 127.957 269.46 130.36C258.717 129.788 247.945 130.042 237.24 131.12C236.56 129.66 234.54 125.4 234.3 124.9C234.06 124.4 235.98 118.6 238.68 64.6801C251.08 63.6401 306.84 64.8801 311.96 62.9001C312.254 62.7947 312.514 62.6132 312.714 62.3743C312.915 62.1353 313.048 61.8474 313.1 61.5401C314.8 55.9601 315.96 8.00007 313.1 3.54007C312.4 2.44007 309.9 2.10007 308.52 1.90007C290.7 -0.699929 216.34 0.420068 212.52 2.44007C208.7 4.46007 210.32 24.1801 211.04 28.1001C172.42 26.8601 83.2404 29.2801 74.8404 32.4201C72.8404 33.1401 72.1004 35.8801 71.7004 37.9401C68.3804 55.0801 77.7004 110.24 80.8204 127.28C80.6204 127.28 80.8204 127.28 78.3804 131.08C76.3152 130.927 74.2388 131.035 72.2004 131.4C67.6404 132.1 63.4404 138.4 61.1204 142.32C61.0204 142.52 55.1204 152.32 54.2404 153.92C49.2204 153.14 25.8804 153.44 22.9204 153.6C19.9604 153.76 16.9204 153.98 14.2404 154.18C13.7604 154.18 13.7204 155.1 14.2404 155.12C19.8404 155.46 21.9004 155.58 26.2404 155.64C36.8604 155.8 52.5204 156.24 53.0204 156.18C51.9804 158 36.5804 185.4 34.5204 189.28C25.5604 206.08 18.5204 221.46 18.1004 222.76C15.7755 223.817 13.5919 225.161 11.6004 226.76C10.9581 228.522 10.5741 230.368 10.4604 232.24C10.3604 235.46 11.5204 236.24 13.3004 238.04C8.52424 248.274 4.59767 258.883 1.56043 269.76C0.568887 274.161 0.527974 278.722 1.44043 283.14C2.25704 287.557 3.78347 291.812 5.96043 295.74C6.93832 296.733 8.20553 297.391 9.58043 297.62C14.8404 299.1 31.1404 301 36.6004 301.62C36.1888 304.064 36.0747 306.549 36.2604 309.02C36.2658 311.566 36.6363 314.099 37.3604 316.54C37.367 316.6 37.3854 316.659 37.4146 316.712C37.4438 316.766 37.4832 316.813 37.5305 316.851C37.5779 316.889 37.6323 316.917 37.6906 316.934C37.7489 316.951 37.81 316.957 37.8704 316.95C37.9308 316.944 37.9894 316.925 38.0427 316.896C38.096 316.867 38.143 316.827 38.1811 316.78C38.2191 316.733 38.2475 316.678 38.2646 316.62C38.2816 316.562 38.287 316.5 38.2804 316.44C38.6004 313.947 38.6874 311.429 38.5404 308.92C38.5273 306.504 38.2523 304.097 37.7204 301.74C40.4804 301.98 43.1404 302.18 45.4604 302.26C45.0915 304.594 44.9908 306.963 45.1604 309.32C45.1672 311.866 45.5376 314.399 46.2604 316.84C46.2604 316.962 46.3089 317.079 46.3952 317.165C46.4814 317.252 46.5984 317.3 46.7204 317.3C46.8424 317.3 46.9594 317.252 47.0457 317.165C47.132 317.079 47.1804 316.962 47.1804 316.84C47.5112 314.348 47.6049 311.83 47.4604 309.32C47.4467 306.985 47.1785 304.657 46.6604 302.38C51.1204 302.48 116.76 308.38 230.12 306.14C260.5 305.54 297.02 304.14 327.1 300.84C326.703 303.252 326.589 305.702 326.76 308.14C326.77 310.681 327.147 313.207 327.88 315.64C327.866 315.707 327.867 315.776 327.883 315.843C327.899 315.91 327.93 315.972 327.973 316.025C328.016 316.078 328.071 316.121 328.132 316.151C328.194 316.18 328.262 316.195 328.33 316.195C328.399 316.195 328.467 316.18 328.528 316.151C328.59 316.121 328.645 316.078 328.688 316.025C328.731 315.972 328.762 315.91 328.778 315.843C328.794 315.776 328.795 315.707 328.78 315.64C329.13 313.15 329.224 310.63 329.06 308.12C329.039 305.65 328.75 303.189 328.2 300.78C330.42 300.54 335.56 299.9 336 299.84C335.607 302.239 335.499 304.676 335.68 307.1C335.682 309.647 336.052 312.18 336.78 314.62C336.794 314.742 336.855 314.854 336.951 314.931C337.046 315.008 337.168 315.043 337.29 315.03C337.412 315.017 337.524 314.956 337.601 314.86C337.678 314.764 337.714 314.642 337.7 314.52C338.03 312.034 338.117 309.523 337.96 307.02C337.948 304.556 337.659 302.1 337.1 299.7C346.12 298.48 373.7 294.76 377.46 287.06C381.9 278.28 381.54 266.86 379.7 257.34V257.34ZM197.7 225.14C197.92 224.6 204.62 223.14 211.94 225.14C212.007 225.126 212.077 225.127 212.143 225.143C212.21 225.159 212.272 225.19 212.325 225.233C212.379 225.276 212.422 225.33 212.451 225.392C212.481 225.454 212.496 225.522 212.496 225.59C212.496 225.659 212.481 225.726 212.451 225.788C212.422 225.85 212.379 225.904 212.325 225.947C212.272 225.991 212.21 226.021 212.143 226.037C212.077 226.053 212.007 226.054 211.94 226.04C208.295 226.688 204.574 226.782 200.9 226.32C199.18 226.04 197 226.02 197.64 225.14H197.7ZM300.52 272.7C282.02 276.22 179.82 275.42 178.28 274.7C176.74 273.98 176.6 271.66 176.56 270.14C187.64 273.74 295.9 270.96 301.92 267.78C302.24 269.54 302.32 272.36 300.46 272.7H300.52ZM261.7 225.36C261.7 224.68 266.1 224.3 266.3 224.28C268.917 224.079 271.544 224.079 274.16 224.28C275.62 224.44 277.64 224.64 277.48 225.26C277.32 225.88 274.3 226.14 273.78 226.22C271.826 226.4 269.863 226.48 267.9 226.46C266.58 226.42 261.56 226.18 261.64 225.36H261.7ZM287.4 232.02C292.404 241.554 296.605 251.489 299.96 261.72C300.387 263.012 300.623 264.36 300.66 265.72C291.64 268.52 187.68 271.4 177.16 268.38C176.66 268.24 176.52 268.38 176.4 267.54C175.64 262.1 184.54 240.48 186.6 235.44C224.44 234.18 287 232.24 287.34 232.02H287.4ZM270.56 99.8001C268.373 98.5986 266.389 97.0597 264.68 95.2401C263.9 94.0601 264.08 93.2401 266.38 94.3601C267.82 95.0201 269.84 96.2001 271.2 97.0201C270.851 97.91 270.635 98.8469 270.56 99.8001ZM318.56 103.38C320.16 100.5 321.74 99.6801 321.58 101.38C320.721 104.422 319.499 107.35 317.94 110.1C317.82 108.1 317.68 106.76 317.52 105.44C317.6 105.16 318 104.32 318.5 103.38H318.56ZM310.06 120.78C310.46 121.92 310.72 122.6 310.74 122.64C310.762 122.697 310.796 122.748 310.838 122.792C310.88 122.836 310.93 122.871 310.986 122.895C311.042 122.919 311.102 122.932 311.163 122.933C311.224 122.934 311.284 122.923 311.34 122.9C312.22 122.56 310.92 121.74 308.84 109.68C308.22 106.08 306.38 94.9801 310.02 94.4601C312.98 94.0201 314.58 101.36 315.14 104.26C316.178 109.85 316.846 115.502 317.14 121.18C317.139 121.291 317.178 121.398 317.249 121.483C317.321 121.568 317.42 121.624 317.53 121.641C317.639 121.658 317.751 121.635 317.845 121.576C317.939 121.517 318.008 121.426 318.04 121.32C318.047 121.207 318.047 121.093 318.04 120.98C319.849 121.033 321.646 121.281 323.4 121.72C323.177 121.981 322.896 122.186 322.58 122.32C318.38 124.48 305.68 124.06 301.3 123.98C301.9 122.78 302.32 121.86 302.78 120.76C305.171 121.153 307.608 121.16 310 120.78H310.06ZM294.46 116.4C294.92 112.4 295.94 106.02 299.98 106.78C304.02 107.54 303 113.4 302.12 117.32C301.578 119.569 300.91 121.786 300.12 123.96H294.12C294.072 121.437 294.166 118.913 294.4 116.4H294.46ZM291.92 107C292.013 106.911 292.124 106.843 292.245 106.8C292.366 106.757 292.494 106.739 292.623 106.749C292.751 106.758 292.875 106.794 292.989 106.855C293.102 106.915 293.201 106.999 293.28 107.1C293.599 107.419 293.887 107.767 294.14 108.14C293.572 109.415 293.176 110.761 292.96 112.14C291.92 110.7 290.58 108.08 291.92 107ZM285.62 94.8401C288.22 95.6601 286.18 102.5 284.44 104.58C283.96 102.427 283.242 100.335 282.3 98.3401C282.88 96.5801 283.86 94.2801 285.62 94.8201V94.8401ZM280.7 121C281.68 122.24 282.32 123 282.32 123C282.4 123.078 282.505 123.125 282.616 123.132C282.728 123.138 282.838 123.104 282.926 123.036C283.014 122.967 283.074 122.869 283.095 122.759C283.116 122.65 283.097 122.536 283.04 122.44C283.04 122.44 279.5 117.4 276.58 112.18C274.38 108.18 272.28 104.18 272.86 99.7601C273.32 96.2801 275.16 94.8001 278.26 96.8201C282.74 99.7001 284.78 117.46 285.42 122.82C285.427 122.96 285.476 123.095 285.562 123.206C285.648 123.317 285.766 123.399 285.9 123.44C286.44 123.44 286.36 122.86 286.34 122.58C286.32 122.3 286.34 120.9 286.34 120.76C288.465 121.029 290.616 121.029 292.74 120.76C292.86 122.22 293 123.36 293.1 123.96C286 123.96 277.42 124.44 271.54 122.14C274.563 121.542 277.624 121.161 280.7 121V121ZM271.12 123.94C274.046 125.074 277.129 125.748 280.26 125.94C283.8 126.26 307.9 126.3 310.64 126.16C314.772 126.092 318.863 125.328 322.74 123.9C323.113 126.356 322.972 128.862 322.329 131.261C321.685 133.66 320.552 135.9 319 137.84C314.14 143.54 283.4 144.84 276.02 139.64C271.16 136.3 270.28 129.62 271.12 123.92V123.94ZM255 182.66C255.42 184 64.7204 184.06 64.5204 184.04C56.5204 184.04 58.5204 184.04 55.8404 183.38C55.1204 183.22 54.9804 183.22 54.8404 182.52C54.6708 181.422 54.6238 180.309 54.7004 179.2C54.7424 179.282 54.8101 179.348 54.8932 179.388C54.9764 179.428 55.0702 179.439 55.1604 179.42C55.1604 179.42 254.94 176.7 256.24 176.66C256.78 179 256.86 181.18 255 182.66ZM311.26 61.2801C311.26 61.2801 311.38 61.0801 311.42 61.1401C311.46 61.2001 311.26 61.2601 311.16 61.2801H311.26ZM211.8 10.8401C211.8 9.54007 212.32 4.62007 213.48 4.02007C216.12 2.70007 300.02 1.58007 311.48 5.16007C313.48 9.36007 312.84 56.5401 311.16 61.2801C301.32 62.8201 251.8 62.7001 238.92 64.0201C239.7 48.2801 240.04 35.0201 239.4 32.4401C239.277 32.1036 239.077 31.8003 238.817 31.5539C238.557 31.3076 238.243 31.1248 237.9 31.0201C233.52 29.1201 217.04 28.5801 212.24 28.4201C211.618 22.5817 211.47 16.7023 211.8 10.8401V10.8401ZM73.5004 61.2001C73.2004 57.0001 71.7204 35.8001 75.7204 34.3201C77.7204 33.6201 84.7604 32.9201 94.9804 32.3201C114.56 31.1001 145.42 30.1201 173.5 29.9201C179.74 29.9201 232.46 29.4601 237.62 33.0001C239.14 39.9201 234.28 116.8 233.2 124.22C185.94 125.76 129.94 128.08 82.2804 126.92C81.4804 122.34 75.3604 87.0001 73.5004 61.2001V61.2001ZM81.6604 128.26C81.6642 128.213 81.6642 128.167 81.6604 128.12C115.36 129.16 220.82 125.7 233.66 125.62C235.08 128.92 255.02 173.16 255.86 175.62C255.64 175.62 55.0004 178.34 54.7404 178.54C57.2604 170.1 78.1004 134.42 81.6604 128.26V128.26ZM136.64 262.26C135.16 265.14 90.3204 285.18 81.1004 287.96C81.2792 287.038 81.3464 286.098 81.3004 285.16C94.9204 280.44 124.48 267.98 137.74 259.16C137.488 260.237 137.119 261.283 136.64 262.28V262.26ZM138.02 257.84C134.02 260.2 130.2 261.84 81.2804 284.08C81.2823 283.175 81.1612 282.273 80.9204 281.4C87.3204 278.4 130.72 261.58 138.46 254.88C138.36 255.74 138.22 256.78 138.02 257.86V257.84ZM35.0004 216.8C35.9622 217.933 36.5574 219.331 36.7074 220.81C36.8574 222.288 36.5551 223.777 35.8404 225.08C35.5204 225.58 36.2804 226.1 36.6004 225.58C37.8079 224.264 38.5216 222.57 38.6201 220.787C38.7185 219.003 38.1956 217.241 37.1404 215.8C46.8604 211.34 56.4204 207.14 59.0404 206C59.6959 207.332 60.0467 208.793 60.0675 210.277C60.0883 211.761 59.7784 213.231 59.1604 214.58C58.9204 215.22 59.6404 215.46 59.9804 215.04C61.0804 213.642 61.765 211.963 61.956 210.195C62.147 208.427 61.8366 206.64 61.0604 205.04C63.2204 203.82 68.2604 201.04 70.7204 201.04C73.8004 201.04 136.3 251.88 137.46 253.04C132.24 258.42 83.7804 277.6 79.7004 279.56C71.1004 277.56 18.6204 232.42 13.7004 227.78C16.7604 225.24 31.5604 218.4 35.0004 216.8V216.8ZM12.1804 228.7C18.4204 234.8 70.4804 280.24 79.2004 281.68C79.0255 282.434 78.9448 283.206 78.9604 283.98C64.9604 277.14 24.9604 242.5 11.7204 231.36C11.7804 231.36 12.0804 229.4 12.2404 228.7H12.1804ZM12.4804 235.56C11.9163 234.701 11.6364 233.687 11.6804 232.66C24.7604 245.86 61.6804 278.32 78.9404 285.08C78.9048 286.15 79.0125 287.219 79.2604 288.26C69.0004 285.96 13.8404 237.2 12.5404 235.56H12.4804ZM376.48 286.4C363.56 312.04 12.9604 305.34 7.28043 295.34C4.87281 291.155 3.24634 286.567 2.48043 281.8C3.25196 283.49 4.54069 284.891 6.16043 285.8C35.6004 302.94 328.5 298.46 366.74 284.72C374.84 281.8 378.92 275.5 379.84 266.72C380.383 273.462 379.214 280.231 376.44 286.4H376.48Z" fill="black"/>
<path d="M77.0007 150.38C218.421 152.38 231.921 151.16 235.881 150.54C236.821 150.4 237.421 150.08 237.381 148.98C237.381 146.08 230.581 132.78 228.781 131.86C227.981 131.44 84.7807 133.46 84.2807 133.62C84.1876 133.643 84.1002 133.684 84.0244 133.743C83.9485 133.802 83.886 133.876 83.8407 133.96C82.4807 136.18 75.8407 147.14 76.1407 149.62C76.1732 149.827 76.2769 150.016 76.4339 150.155C76.5908 150.294 76.7913 150.373 77.0007 150.38V150.38ZM84.8607 135C86.3007 134.82 227.181 133.42 228.041 133.5C229.534 135.648 230.871 137.9 232.041 140.24C228.761 140.24 82.1607 141.02 81.4007 141.04C82.2807 139.28 83.4407 137.28 84.8607 135V135ZM80.8607 142C81.6407 142 229.981 141.24 232.521 141.18C233.837 143.631 234.877 146.22 235.621 148.9C228.501 150.04 163.621 149.48 77.7207 148.9C78.5233 146.478 79.5616 144.14 80.8207 141.92L80.8607 142ZM187.381 157.18C186.982 156.297 186.33 155.552 185.507 155.039C184.685 154.527 183.729 154.269 182.761 154.3C177.681 154.3 135.021 153.12 131.181 154.68C128.729 157.65 126.832 161.038 125.581 164.68C125.461 165.56 125.901 165.96 126.441 166.02C138.441 167.32 178.221 168.56 188.541 166.66C189.821 166.42 189.981 165.06 189.721 163.76C189.102 161.513 188.319 159.314 187.381 157.18V157.18ZM127.001 164.68C128.15 161.435 129.709 158.35 131.641 155.5C134.681 154.5 174.221 156.58 182.821 156.56C183.333 156.542 183.839 156.672 184.279 156.934C184.719 157.197 185.074 157.581 185.301 158.04C186.273 160.117 187.03 162.289 187.561 164.52C177.421 166.1 134.361 165.2 127.001 164.68V164.68ZM326.281 159.74C323.461 155.86 309.321 156.04 304.581 156.18C300.581 156.18 286.041 156.84 286.041 160.76C286.057 161.078 286.15 161.387 286.31 161.661C286.47 161.936 286.693 162.169 286.961 162.34C287.341 162.64 284.721 189 288.321 203.14C289.501 207.82 291.021 210.14 295.481 212.08C304.041 215.8 318.241 214.98 323.941 207.04C325.081 204.72 324.841 197.96 324.941 195.9C333.801 197.66 341.061 194.06 342.941 184.52C344.121 178.38 342.601 174.36 339.981 171.92C338.23 170.495 336.161 169.514 333.95 169.062C331.738 168.609 329.45 168.698 327.281 169.32C327.205 169.346 327.124 169.353 327.045 169.341C326.966 169.329 326.891 169.298 326.827 169.251C326.762 169.204 326.71 169.142 326.674 169.07C326.638 168.999 326.62 168.92 326.621 168.84C326.621 167.78 327.001 160.6 326.281 159.74V159.74ZM288.281 160.16C293.681 157 315.681 156.76 322.781 159.98C323.021 160.1 323.921 160.56 323.921 160.76C323.921 160.96 323.001 161.44 322.781 161.54C317.421 163.96 298.281 165.06 288.221 161.38C287.521 161 288.221 160.24 288.221 160.16H288.281ZM327.841 171.36C329.658 170.836 331.576 170.761 333.429 171.141C335.282 171.52 337.016 172.344 338.481 173.54C340.641 175.54 341.721 178.98 340.721 184.08C340.522 185.853 339.907 187.554 338.927 189.045C337.947 190.536 336.629 191.774 335.081 192.66C331.801 194.136 328.108 194.419 324.641 193.46C324.47 193.398 324.289 193.372 324.108 193.383C323.927 193.395 323.751 193.443 323.589 193.526C323.428 193.608 323.285 193.723 323.17 193.863C323.055 194.003 322.97 194.166 322.921 194.34C322.381 195.86 323.141 202 322.041 205.88C316.981 212.74 304.041 213.36 296.381 210.14C292.501 208.48 291.421 206.76 290.381 202.62C287.701 192.8 287.541 172.8 288.141 162.96C294.441 165.94 316.261 166.8 324.841 162.4C324.841 168.6 324.081 169.64 325.641 170.9C325.943 171.128 326.29 171.287 326.66 171.366C327.03 171.446 327.412 171.444 327.781 171.36H327.841ZM133.561 213.74C128.308 209.285 122.658 205.322 116.681 201.9C114.378 200.542 111.929 199.448 109.381 198.64C107.241 198.08 106.341 199.18 106.781 200.64C107.682 202.736 108.874 204.695 110.321 206.46C114.923 212.285 120.215 217.53 126.081 222.08C135.001 229.54 146.561 238.58 155.001 245C155.431 245.314 155.919 245.539 156.437 245.662C156.956 245.785 157.493 245.804 158.018 245.716C158.544 245.629 159.046 245.437 159.497 245.153C159.947 244.868 160.336 244.497 160.641 244.06C162.121 242.44 163.041 239.6 161.381 238.06C159.461 236.34 147.721 225.28 133.561 213.74V213.74ZM114.401 209.3L111.661 204.88C112.636 204.475 113.461 203.776 114.021 202.88L118.361 204.64C117.272 204.856 116.288 205.434 115.569 206.28C114.85 207.126 114.438 208.19 114.401 209.3V209.3ZM120.541 214.4C119.095 213.184 117.757 211.845 116.541 210.4C116.681 207.98 117.441 206.9 119.861 206.82C121.473 207.59 122.996 208.536 124.401 209.64C123.325 209.902 122.365 210.509 121.668 211.369C120.971 212.229 120.575 213.294 120.541 214.4V214.4ZM154.741 243.5C152.521 241.64 123.001 216.6 121.181 215C121.333 213.88 121.822 212.833 122.583 211.998C123.344 211.162 124.34 210.577 125.441 210.32C132.341 215.44 142.261 223.92 159.561 238.32C158.887 238.286 158.215 238.399 157.59 238.653C156.965 238.906 156.403 239.293 155.944 239.787C155.484 240.281 155.139 240.869 154.931 241.51C154.723 242.152 154.658 242.831 154.741 243.5V243.5ZM313.221 265.66C315.721 267.36 317.461 266.58 319.081 264.22C323.081 258.54 337.081 233.4 337.081 233.2C337.081 233 337.241 233.38 336.581 225.3C336.552 224.996 336.442 224.706 336.263 224.459C336.083 224.212 335.841 224.018 335.561 223.898C335.28 223.777 334.973 223.734 334.67 223.773C334.368 223.812 334.081 223.932 333.841 224.12L327.001 229.1C327.001 229.1 311.821 260.48 311.661 260.76C311.386 261.638 311.389 262.58 311.668 263.456C311.947 264.333 312.489 265.102 313.221 265.66V265.66ZM334.401 226.56C334.521 228.02 334.681 229.96 334.801 231.3C333.315 230.589 331.76 230.033 330.161 229.64L334.401 226.56ZM328.681 231C330.414 232.229 332.417 233.024 334.521 233.32C334.221 233.84 318.941 261.72 318.781 262C318.316 261.055 317.553 260.29 316.609 259.824C315.665 259.357 314.593 259.215 313.561 259.42C315.121 256.52 328.121 232 328.681 231V231Z" fill="black"/>
<path d="M319.481 191.34C319.265 191.037 318.992 190.781 318.676 190.585C318.36 190.389 318.008 190.258 317.641 190.2C316.458 189.884 315.255 189.643 314.041 189.48C314.721 194.24 315.121 199.48 315.101 199.94C315.071 200.245 314.921 200.525 314.685 200.719C314.449 200.914 314.146 201.008 313.841 200.98C313.535 200.945 313.255 200.791 313.06 200.552C312.866 200.313 312.773 200.007 312.801 199.7C312.801 199.36 312.681 197.98 312.581 189.28C308.581 188.78 289.321 187.28 290.081 191.12C290.081 191.32 288.501 201.12 294.621 205.82C300.741 210.52 312.981 209.6 317.261 204.82C318.475 203.365 319.277 201.611 319.581 199.74C320.053 196.957 320.019 194.111 319.481 191.34V191.34ZM324.281 173.24C324.281 174.14 323.081 181.02 322.281 190.26L323.241 190.46C326.76 191.207 330.426 190.807 333.701 189.32C334.843 188.686 335.789 187.749 336.434 186.613C337.08 185.478 337.401 184.186 337.361 182.88C337.497 181.257 337.214 179.625 336.541 178.142C335.868 176.659 334.825 175.372 333.514 174.406C332.203 173.439 330.666 172.825 329.049 172.621C327.433 172.417 325.792 172.63 324.281 173.24V173.24ZM325.181 173.92C326.457 173.718 327.762 173.792 329.008 174.137C330.253 174.482 331.41 175.09 332.401 175.92C333.352 176.792 334.088 177.873 334.553 179.076C335.018 180.28 335.199 181.575 335.081 182.86C334.901 188 329.621 188.98 324.561 188.46C324.801 184.82 325.001 180.64 325.181 173.92V173.92ZM131.601 155.5C131.601 155.5 131.621 155.52 131.601 155.5V155.5ZM303.761 56.52C303.756 56.8763 303.821 57.23 303.953 57.5609C304.085 57.8918 304.281 58.1933 304.531 58.448C304.78 58.7027 305.077 58.9056 305.405 59.045C305.732 59.1843 306.085 59.2574 306.441 59.26C306.985 59.2719 307.521 59.1214 307.979 58.8277C308.438 58.534 308.798 58.1103 309.015 57.6108C309.231 57.1113 309.294 56.5586 309.195 56.0232C309.097 55.4878 308.841 54.994 308.46 54.6048C308.079 54.2155 307.591 53.9486 307.058 53.8379C306.525 53.7272 305.971 53.7779 305.467 53.9834C304.963 54.1889 304.531 54.5399 304.227 54.9917C303.923 55.4435 303.761 55.9756 303.761 56.52V56.52ZM84.861 122.5C85.321 123.4 85.921 123.5 86.301 123.22C86.681 122.94 213.341 121.84 222.761 121.34C224.787 121.371 226.807 121.115 228.761 120.58C233.261 116.58 235.021 41.8 233.261 38.34C228.761 29.36 87.921 35.14 79.261 37.76C72.361 39.84 81.681 116.12 84.861 122.5V122.5ZM78.881 41C78.881 40.64 79.321 39.24 79.661 39.14C89.241 36.26 228.341 31.52 232.121 39.04C232.443 40.5447 232.591 42.0815 232.561 43.62C232.901 52.34 232.561 71.02 231.661 87.76C231.481 90.96 230.061 117.18 227.981 119.56C219.681 121.32 91.781 121.72 86.101 121.94C82.861 114.42 75.861 54.2 78.881 41ZM306.701 12.42C307.244 12.4319 307.779 12.2819 308.237 11.989C308.695 11.6961 309.056 11.2737 309.273 10.7753C309.49 10.277 309.554 9.72535 309.457 9.19053C309.359 8.6557 309.105 8.16189 308.727 7.7719C308.348 7.38191 307.862 7.11338 307.33 7.00045C306.798 6.88752 306.245 6.93531 305.741 7.13774C305.236 7.34017 304.803 7.68808 304.497 8.13722C304.191 8.58637 304.025 9.11644 304.021 9.66002C304.013 10.0179 304.076 10.3738 304.207 10.7071C304.338 11.0403 304.534 11.3442 304.783 11.601C305.033 11.8578 305.331 12.0625 305.66 12.2031C305.989 12.3437 306.343 12.4175 306.701 12.42V12.42Z" fill="black"/>
<path d="M118.021 91.4H141.781C144.531 91.3894 147.164 90.2884 149.102 88.3386C151.041 86.3888 152.126 83.7495 152.121 81V61.72C152.121 58.9646 151.036 56.32 149.101 54.3586C147.166 52.3972 144.536 51.2768 141.781 51.24H118.021C116.643 51.2347 115.278 51.5022 114.004 52.027C112.73 52.5518 111.573 53.3235 110.599 54.2977C109.625 55.2719 108.853 56.4293 108.328 57.7032C107.803 58.9771 107.536 60.3423 107.541 61.72V81C107.546 82.371 107.822 83.7275 108.351 84.9922C108.881 86.2568 109.654 87.4048 110.627 88.3705C111.6 89.3362 112.754 90.1008 114.023 90.6206C115.291 91.1404 116.65 91.4052 118.021 91.4ZM109.241 61.72C109.278 59.4083 110.216 57.2024 111.857 55.5732C113.497 53.944 115.709 53.0206 118.021 53H141.781C142.949 52.9868 144.107 53.205 145.19 53.6421C146.273 54.0792 147.258 54.7264 148.09 55.5465C148.921 56.3666 149.581 57.3432 150.033 58.42C150.485 59.4967 150.719 60.6523 150.721 61.82V81C150.716 82.1688 150.48 83.325 150.028 84.4028C149.576 85.4806 148.916 86.4588 148.086 87.2815C147.256 88.1043 146.272 88.7554 145.19 89.1978C144.108 89.6403 142.95 89.8653 141.781 89.86H118.021C116.863 89.8547 115.717 89.6214 114.649 89.1733C113.581 88.7252 112.611 88.0711 111.796 87.2484C110.981 86.4257 110.336 85.4504 109.897 84.3783C109.459 83.3062 109.236 82.1582 109.241 81V61.72ZM182.261 105.68C182.661 106.86 183.661 106.6 183.941 105.86C184.321 104.8 186.541 97.18 186.821 95.86C188.361 95.38 184.021 96.88 197.441 92C197.58 91.9461 197.7 91.8513 197.784 91.7281C197.869 91.605 197.914 91.4592 197.914 91.31C197.914 91.1607 197.869 91.015 197.784 90.8918C197.7 90.7687 197.58 90.6739 197.441 90.62L176.881 82.4C176.755 82.3403 176.615 82.3146 176.476 82.3257C176.337 82.3367 176.203 82.3841 176.087 82.4629C175.972 82.5418 175.879 82.6495 175.819 82.7753C175.758 82.9011 175.731 83.0406 175.741 83.18C175.741 83.18 181.161 102.5 182.261 105.68V105.68ZM177.801 84.54L195.121 91.36C192.801 92.22 188.881 93.7 187.001 94.46C186.161 94.78 185.821 94.92 185.621 95.18C185.421 95.44 186.121 93.88 183.181 102.94L177.801 84.54ZM225.001 25.9C225.025 26.0199 225.09 26.1278 225.185 26.2046C225.28 26.2814 225.399 26.3223 225.521 26.32C225.941 26.32 238.881 27.56 241.521 26.86C243.221 26.4 243.521 23.4 243.681 21.64C243.881 18.98 243.681 12.46 242.561 10.24C241.041 7.23999 229.821 8.23998 226.561 8.81998C225.696 8.94173 224.869 9.25612 224.141 9.73999C223.717 10.2318 223.471 10.8515 223.441 11.5C223.421 16.3432 223.945 21.1734 225.001 25.9V25.9ZM225.581 11.28C228.741 10.3 237.741 9.91998 240.601 11.28C241.581 13.88 242.101 22.82 240.921 24.9C239.061 25.38 227.701 25.38 225.801 25.4C225.741 23.84 224.821 15.42 225.581 11.28ZM251.841 25.82C251.868 25.9382 251.934 26.0439 252.028 26.1201C252.123 26.1963 252.24 26.2385 252.361 26.24C252.781 26.24 265.721 27.48 268.361 26.78C270.061 26.32 270.361 23.32 270.541 21.56C270.721 18.9 270.541 12.38 269.401 10.16C267.881 7.13998 256.661 8.15999 253.401 8.73999C252.538 8.86996 251.713 9.18369 250.981 9.65998C250.566 10.1571 250.321 10.7737 250.281 11.42C250.262 16.2631 250.786 21.0932 251.841 25.82V25.82ZM252.421 11.2C255.581 10.2 264.581 9.83999 267.441 11.2C268.421 13.8 268.941 22.74 267.761 24.8C265.901 25.3 254.541 25.3 252.641 25.32C252.581 23.76 251.661 15.34 252.421 11.2V11.2ZM279.921 26.7C279.945 26.8199 280.01 26.9278 280.105 27.0046C280.2 27.0814 280.319 27.1223 280.441 27.12C280.861 27.12 293.801 28.36 296.441 27.66C298.141 27.2 298.441 24.2 298.601 22.44C298.801 19.78 298.601 13.26 297.481 11.04C295.961 8.03999 284.741 9.03998 281.481 9.61998C280.617 9.74688 279.791 10.0609 279.061 10.54C278.637 11.0318 278.391 11.6515 278.361 12.3C278.341 17.1432 278.865 21.9734 279.921 26.7V26.7ZM280.501 12.08C283.661 11.1 292.661 10.72 295.521 12.08C296.501 14.68 297.021 23.62 295.841 25.7C293.981 26.18 282.621 26.18 280.721 26.2C280.661 24.64 279.741 16.22 280.501 12.08V12.08ZM252.021 56.58C252.161 56.98 252.481 57.02 252.541 57C252.981 57 265.901 58.24 268.541 57.54C270.241 57.08 270.541 54.08 270.721 52.32C270.901 49.66 270.721 43.14 269.601 40.94C268.061 37.92 256.841 38.94 253.601 39.5C252.73 39.6241 251.897 39.9381 251.161 40.42C250.742 40.9225 250.497 41.5468 250.461 42.2C250.442 47.0365 250.966 51.86 252.021 56.58V56.58ZM252.621 41.96C255.781 40.98 264.761 40.6 267.621 41.96C268.601 44.56 269.121 53.5 267.941 55.58C266.081 56.06 254.741 56.06 252.841 56.08C252.761 54.52 251.841 46.1 252.621 41.96V41.96ZM298.781 40.12C301.981 35.4 304.781 31.14 304.881 30.94C304.981 30.74 303.521 28.94 302.661 30.22C296.541 39.64 297.381 38.74 296.941 38.58C293.421 37.3 282.061 37.74 280.281 39.4C279.081 40.52 279.541 44.58 279.681 46.32C278.401 45.6 277.421 45.08 277.061 44.94C276.141 44.58 276.201 45.48 276.701 45.8L279.821 47.8C280.074 50.4284 280.481 53.0396 281.041 55.62C281.061 55.7418 281.125 55.8521 281.221 55.9296C281.317 56.0072 281.438 56.0465 281.561 56.04C281.981 56.04 294.921 57.28 297.561 56.58C301.001 55.62 299.941 43 298.781 40.12V40.12ZM281.621 40.94C286.326 39.8695 291.201 39.7809 295.941 40.68L289.001 51.62C288.301 51.22 284.561 49.02 281.441 47.26C281.309 45.1722 281.37 43.0767 281.621 41V40.94ZM296.961 54.54C295.081 55.04 283.741 55.04 281.841 55.06C281.841 54.26 281.541 51.64 281.401 48.74L289.001 53.46C289.193 53.481 289.387 53.447 289.561 53.3621C289.734 53.2771 289.88 53.1446 289.981 52.98C290.621 52.16 293.841 47.48 297.121 42.66C297.741 46.26 297.941 52.82 297.001 54.54H296.961ZM217.441 11.76C217.984 11.7679 218.517 11.6144 218.972 11.3191C219.427 11.0238 219.785 10.5998 219.999 10.1011C220.213 9.60235 220.274 9.05125 220.175 8.5177C220.075 7.98415 219.819 7.49219 219.44 7.10421C219.06 6.71623 218.574 6.44971 218.043 6.33845C217.511 6.2272 216.959 6.27622 216.456 6.47931C215.952 6.68239 215.521 7.03038 215.216 7.47915C214.91 7.92792 214.745 8.45724 214.741 8.99998C214.741 9.7217 215.023 10.4148 215.528 10.9307C216.033 11.4466 216.72 11.7443 217.441 11.76V11.76Z" fill="black"/>
</svg>
