<svg width="368" height="380" viewBox="0 0 368 380" fill="none" xmlns="http://www.w3.org/2000/svg">
<path d="M125.54 290.2C128.874 289.019 132.29 288.083 135.76 287.4L136.18 288.94C136.227 289.121 136.338 289.28 136.492 289.386C136.646 289.493 136.834 289.54 137.02 289.52L150.76 287.92C154.54 279.3 161.48 266.24 161.58 266.04C161.48 262.78 161.58 260.04 161.58 256.92C153.72 259.84 139.18 265.38 131.58 268.92C131.408 269.031 131.276 269.192 131.2 269.383C131.125 269.573 131.111 269.782 131.16 269.98C131.16 269.98 131.3 270.48 131.48 271.2C127.76 271.2 116.62 270.66 113.94 273.2C113.524 273.78 113.319 274.487 113.36 275.2C113.2 277.96 114.58 299.4 116.78 305.7C117.92 309 120.32 308.64 121.96 305.48C123.858 300.721 125.077 295.719 125.58 290.62C125.58 290.36 125.52 290.38 125.54 290.2V290.2ZM123.24 272.3C125.68 272.1 126.44 272.14 131.68 271.98C132.62 275.54 134.56 282.86 135.56 286.6C132.032 287.147 128.549 287.955 125.14 289.02C124.078 283.504 123.443 277.914 123.24 272.3Z" fill="black"/>
<path d="M309.619 97.2599C310.119 96.5599 309.479 95.6599 308.939 94.9599C310.469 93.3866 312.165 91.9849 313.999 90.7799C317.094 89.2378 319.922 87.2124 322.379 84.7799C323.399 83.7199 325.319 81.5399 324.599 80.2599C323.879 78.9799 322.599 78.8999 320.859 79.6399C321.613 78.8484 322.228 77.9357 322.679 76.9399C323.239 75.3799 321.919 74.1199 319.059 75.2799C320.099 73.6199 320.339 71.8799 318.579 71.0399C317.159 70.3599 315.079 71.9799 313.879 73.0399C311.523 75.0988 309.311 77.3173 307.259 79.6799C305.999 77.0399 303.999 73.9999 301.499 74.9599C298.999 75.9199 300.939 80.2199 302.219 82.5599L297.679 85.6999C296.993 85.3295 296.218 85.1564 295.439 85.1999C290.279 86.0799 266.579 104.12 264.179 104.12C262.339 104.12 236.059 91.5199 213.339 87.8799C213.295 87.7437 213.214 87.6225 213.104 87.5306C212.994 87.4386 212.861 87.3794 212.719 87.3599C208.756 86.6837 204.739 86.3824 200.719 86.4599C200.597 86.4681 200.479 86.5028 200.372 86.5615C200.265 86.6202 200.172 86.7016 200.099 86.7999H198.419C198.019 85.1799 196.539 81.4399 196.019 79.9999C197.379 78.8199 199.259 78.2199 200.239 76.3199C202.039 72.7999 201.959 66.6799 201.459 62.7599C203.719 61.0399 203.779 58.2799 203.259 55.4599C203.059 54.3199 202.439 51.7399 201.479 51.0999C200.939 50.7399 199.799 51.0999 198.819 51.4599C197.839 49.1799 197.839 50.2199 198.239 49.2999C198.425 48.8759 198.533 48.4221 198.559 47.9599C199.619 48.2799 201.819 46.1599 201.059 43.3599C200.661 42.3576 200.172 41.3936 199.599 40.4799C199.879 39.7999 200.479 38.9799 198.599 36.4799C197.79 35.6065 196.738 34.9939 195.579 34.7199H194.659C193.996 33.7565 193.021 33.0503 191.899 32.7199C190.205 32.288 188.409 32.5394 186.899 33.4199C186.499 33.7199 186.179 34.1199 185.779 34.3999C184.875 33.8508 183.837 33.5604 182.779 33.5604C181.721 33.5604 180.684 33.8508 179.779 34.3999C179.25 34.6077 178.768 34.9203 178.362 35.3189C177.957 35.7176 177.636 36.1942 177.419 36.7199C176.439 36.3818 175.4 36.2516 174.367 36.3377C173.333 36.4238 172.33 36.7243 171.419 37.2199C167.964 39.0934 165.38 42.2449 164.219 45.9999C164.187 46.5661 164.187 47.1337 164.219 47.6999H163.999C160.999 47.2599 157.179 54.3799 160.239 59.9199C160.599 60.5799 161.059 61.1999 161.499 61.9199C162.779 63.9199 162.279 64.5199 165.139 66.9599C165.979 67.6799 166.119 67.6199 166.639 68.0599C167.159 68.4999 166.959 68.2799 167.259 69.3999C167.423 70.0597 167.716 70.6805 168.121 71.2263C168.526 71.7722 169.035 72.2323 169.619 72.5799C169.832 74.5362 170.666 76.3727 171.999 77.8199C172.421 78.2924 172.914 78.6971 173.459 79.0199C173.606 79.1028 173.771 79.1507 173.939 79.1599C174.539 82.8799 175.279 87.7199 175.599 89.7799L173.819 90.7399C171.49 91.677 169.225 92.766 167.039 93.9999C166.868 94.1186 166.747 94.2968 166.699 94.4999C164.579 95.6199 162.579 96.6799 161.439 97.3599C145.559 106.78 100.459 168.88 99.9992 171.72C99.9484 171.883 99.9484 172.057 99.9992 172.22C100.646 173.251 101.433 174.187 102.339 175C102.06 175.509 101.725 175.985 101.339 176.42C97.3392 179.04 91.3392 182.94 88.1192 186.42C87.8934 186.621 87.7239 186.878 87.6276 187.165C87.5313 187.452 87.5115 187.759 87.57 188.055C87.6286 188.352 87.7635 188.629 87.9615 188.858C88.1596 189.086 88.4138 189.259 88.6992 189.36C89.2992 189.56 89.3992 189.5 93.2992 187.36C92.2273 188.3 91.3507 189.442 90.7192 190.72C90.4592 191.82 91.4592 192.46 92.7192 192.26C93.4281 192.074 94.1032 191.777 94.7192 191.38C94.3585 191.937 94.1665 192.586 94.1665 193.25C94.1665 193.914 94.3585 194.563 94.7192 195.12C96.7192 197.64 101.959 189.7 104.719 187.74C105.839 189.16 107.359 192.48 109.779 191.6C111.879 190.82 109.579 186.2 109.779 184.86C110.593 184.079 111.462 183.357 112.379 182.7C113.922 183.844 115.686 184.655 117.559 185.08C120.859 185.08 155.299 150.32 157.919 147.54C156.979 156.38 152.239 194.32 153.239 201.7C153.699 205.04 161.719 205.52 165.099 205.7C164.079 229.7 163.399 266.06 163.219 266.44C157.919 277.86 156.479 280.98 154.699 284.44C151.459 290.64 137.819 313.52 136.279 318.72C136.059 319.54 136.039 319.86 136.899 321.38C134.322 324.089 131.93 326.969 129.739 330C128.639 332 133.359 350.64 136.699 357.24C137.459 358.72 138.699 361 140.359 360.94C145.359 360.76 145.339 342.8 145.199 337.78C145.198 337.625 145.142 337.476 145.039 337.36C145.946 336.007 146.934 334.711 147.999 333.48C148.635 333.918 149.304 334.305 149.999 334.64C150.679 334.94 151.439 334.42 151.999 333.96C158.659 328.72 194.579 283.96 202.279 262.84C205.779 253.2 210.439 239.88 211.759 230.44C212.566 224.471 212.64 218.426 211.979 212.44C211.979 212.355 212.013 212.274 212.073 212.214C212.133 212.154 212.214 212.12 212.299 212.12C212.384 212.12 212.465 212.154 212.525 212.214C212.585 212.274 212.619 212.355 212.619 212.44C213.621 218.461 213.816 224.588 213.199 230.66C211.719 243.76 201.379 271.06 195.859 281.1C200.619 280.22 210.299 278.3 214.979 276.9C230.579 272.16 244.979 258.02 246.239 242.14C246.647 234.659 246.647 227.161 246.239 219.68C246.104 209.352 244.762 199.076 242.239 189.06C246.479 186.76 250.359 184.06 251.619 181.58C254.319 176.28 247.179 145.78 245.619 137.22C254.159 138.16 268.699 139.86 275.479 134.56C283.239 128.32 299.999 110.76 309.619 97.2599V97.2599ZM144.119 336.68C140.519 334.5 135.479 329.32 134.719 325.26C135.539 324.22 136.399 323.26 137.199 322.18C139.91 326.316 143.289 329.973 147.199 333C146.101 334.165 145.072 335.393 144.119 336.68V336.68ZM303.119 83.1199C303.223 83.0539 303.297 82.9508 303.327 82.8318C303.356 82.7127 303.339 82.5868 303.279 82.4799C302.579 81.1799 300.479 76.5999 301.939 76.0799C302.779 75.7599 303.519 76.2799 304.139 76.9799C305.086 78.181 305.823 79.5334 306.319 80.9799C306.356 81.0975 306.425 81.2029 306.517 81.2846C306.609 81.3664 306.722 81.4215 306.843 81.4441C306.964 81.4667 307.089 81.456 307.205 81.4129C307.321 81.3699 307.422 81.2963 307.499 81.1999C309.499 78.9799 314.179 73.9199 316.819 72.5599C318.819 71.5199 319.299 73.4399 314.399 77.9199C313.274 78.7781 312.192 79.6926 311.159 80.6599C311.102 80.7384 311.072 80.8329 311.072 80.9299C311.072 81.0269 311.102 81.1214 311.159 81.1999C311.159 81.7199 311.579 82.2999 312.299 81.7599C314.038 80.2338 315.875 78.8241 317.799 77.5399C318.781 76.8422 319.923 76.4021 321.119 76.2599C320.519 78.0999 314.939 83.0999 314.459 83.6599C314.307 83.7964 314.214 83.9872 314.201 84.1912C314.188 84.3952 314.256 84.5961 314.39 84.7508C314.523 84.9054 314.713 85.0014 314.916 85.0181C315.12 85.0348 315.322 84.9708 315.479 84.8399C317.699 83.3999 321.579 80.0399 322.919 80.5399C324.259 81.0399 320.279 84.7599 319.279 85.6399C313.539 90.6199 315.019 87.4199 308.379 94.1799C305.489 91.0138 302.17 88.2672 298.519 86.0199L303.119 83.1199ZM216.219 178.78C215.879 176.02 215.459 173.04 214.939 169.94L215.799 168.8C219.799 163.66 220.999 155.48 220.619 149.06C222.759 158.44 224.459 167.66 225.759 176.82L216.219 178.78ZM186.479 110.3C181.219 106.3 172.759 99.3999 167.839 94.6799L175.839 90.6799C183.185 97.5416 189.474 105.454 194.499 114.16C202.183 128.277 207.884 143.386 211.439 159.06L182.919 118.72L186.639 111C186.688 110.881 186.7 110.75 186.671 110.624C186.642 110.499 186.575 110.386 186.479 110.3ZM199.999 87.6199C200.119 87.8399 201.499 90.7799 203.599 95.9199C203.599 96.1399 203.219 101.14 203.039 102.9C200.487 101.888 198.079 100.543 195.879 98.8999C196.319 97.1599 198.299 89.2599 198.439 87.4799L199.999 87.6199ZM192.899 109.1C193.039 108.74 193.179 108.26 193.339 107.7L194.679 108.4C195.439 108.9 195.139 107.38 195.819 111.78C195.819 112.52 196.019 113.34 196.059 114.24C195.139 112.58 193.999 110.8 192.919 109.1H192.899ZM191.779 107.42C188.001 102.061 183.7 97.0896 178.939 92.5799L193.999 99.1199C193.419 100.5 192.579 104.72 191.799 107.42H191.779ZM207.159 119.14C205.159 113.68 203.619 107.58 202.859 105.98C202.904 105.481 202.904 104.979 202.859 104.48C203.149 104.588 203.451 104.655 203.759 104.68C203.952 104.682 204.139 104.614 204.286 104.49C204.433 104.365 204.53 104.191 204.559 104C204.719 103.34 204.979 99.9999 205.019 99.2599C210.837 113.949 215.694 129.001 219.559 144.32C208.259 120.28 209.999 127.24 207.179 119.14H207.159ZM223.699 157.32C219.139 135.46 211.119 108.2 201.999 87.9999C205.348 88.0018 208.692 88.2693 211.999 88.7999C213.699 104 212.279 103.48 213.419 104.08C214.559 104.68 221.419 107.44 222.439 107.86C222.339 109.4 223.779 153.44 223.719 157.32H223.699ZM200.679 52.3799C201.722 54.6552 202.09 57.1818 201.739 59.6599C201.576 60.2906 201.242 60.8638 200.772 61.3156C200.303 61.7674 199.718 62.0802 199.081 62.2191C198.445 62.358 197.783 62.3175 197.168 62.1023C196.553 61.8871 196.01 61.5054 195.599 60.9999C194.645 58.9897 193.927 56.8755 193.459 54.6999C193.999 53.9999 199.759 52.5999 200.679 52.3799V52.3799ZM173.159 72.3799C172.429 72.0473 171.681 71.7536 170.919 71.4999C170.408 71.2898 169.952 70.9654 169.585 70.5516C169.219 70.1378 168.952 69.6456 168.805 69.1128C168.659 68.5799 168.636 68.0205 168.739 67.4774C168.842 66.9344 169.068 66.4221 169.399 65.9799C170.659 64.9199 171.799 64.9799 172.839 66.5599C173.499 67.7799 173.479 67.8799 173.779 67.9999C173.865 68.0379 173.958 68.0569 174.052 68.0559C174.146 68.0549 174.239 68.0338 174.324 67.9941C174.41 67.9543 174.485 67.8968 174.547 67.8253C174.608 67.7539 174.653 67.6702 174.679 67.5799C174.976 66.3281 175.023 65.0301 174.819 63.7599C174.579 62.3799 174.539 56.2599 174.579 56.0599C175.163 56.3679 175.82 56.5129 176.479 56.4799C180.099 56.3399 180.819 54.4799 182.259 52.9599C183.919 53.1199 184.259 53.9199 186.139 52.9599C187.02 52.4592 187.827 51.8401 188.539 51.1199C189.114 51.3553 189.669 51.6362 190.199 51.9599C191.398 52.5363 192.75 52.7134 194.056 52.465C195.363 52.2166 196.556 51.5559 197.459 50.5799C197.679 50.9999 197.879 51.4199 198.059 51.8599C196.221 52.4302 194.491 53.3021 192.939 54.4399C192.599 54.8599 193.099 57.1399 193.219 57.6799C191.544 57.8907 189.923 58.413 188.439 59.2199C188.139 58.1799 187.479 56.2399 186.439 55.6999C186.126 55.6042 185.792 55.6042 185.479 55.6999C183.679 55.9799 177.219 57.9199 176.439 58.9799C175.759 59.7199 177.699 65.4399 178.299 66.3799C180.599 69.9399 187.339 68.8999 188.599 64.7399C188.911 63.3438 188.911 61.896 188.599 60.4999C189.179 60.4999 190.919 59.8799 191.119 59.8199C192.499 62.9199 192.899 63.0999 194.499 66.4399C194.279 66.6199 193.919 66.9199 193.619 67.1199C192.199 68.0599 191.899 67.8999 191.979 68.2999C192.002 68.3793 192.054 68.4475 192.124 68.4917C192.194 68.5359 192.277 68.553 192.359 68.5399C193.199 68.42 194.019 68.1914 194.799 67.8599C195.266 67.6857 195.651 67.3433 195.879 66.8999C196.439 65.6399 193.339 60.8999 192.119 59.4799C192.359 59.4799 192.919 59.0799 193.339 58.8599C193.899 61.0999 194.279 62.8599 196.439 63.7399C197.063 63.9756 197.729 64.0829 198.396 64.0554C199.062 64.0279 199.716 63.8662 200.319 63.5799C200.639 67.0999 200.579 72.8199 198.899 75.9399C198.039 77.5599 195.919 78.1799 194.559 79.5199C194.159 79.8999 194.419 80.4399 194.559 81.0199C196.779 87.1999 196.819 87.1799 196.699 87.9799C196.111 91.3004 195.289 94.5751 194.239 97.7799C193.739 97.5599 188.119 94.5799 177.119 90.2999C176.779 88.0399 174.959 75.9799 174.379 73.7599C174.419 72.9799 174.319 72.7999 173.159 72.2799V72.3799ZM187.159 64.2199C186.519 66.3999 183.499 67.3399 181.339 66.7399C179.179 66.1399 179.039 65.0399 178.019 62.4399C177.541 61.4467 177.211 60.3888 177.039 59.2999C177.699 58.5799 184.919 57.0999 185.819 56.9599C187.082 59.1194 187.555 61.6501 187.159 64.1199V64.2199ZM108.899 184.3C108.139 185.04 109.159 187.46 109.319 189.56C109.319 189.74 109.319 190.52 109.199 190.58C108.099 190.94 107.079 189.28 106.459 188.28C105.839 187.28 105.219 185.92 104.239 186.28C102.239 187.22 97.5992 193.38 95.7792 194.02C94.8592 192.26 100.119 187.24 100.299 186.96C100.376 186.831 100.417 186.684 100.416 186.534C100.415 186.384 100.374 186.237 100.295 186.109C100.217 185.982 100.105 185.878 99.9717 185.809C99.8384 185.74 99.6888 185.71 99.5392 185.72C99.1792 185.72 98.9392 186.04 98.3792 186.54C96.6759 188.202 94.7263 189.592 92.5992 190.66C94.5277 188.447 96.5917 186.357 98.7792 184.4C98.8872 184.289 98.9632 184.151 98.9992 184C98.9992 184 98.5792 182.94 97.7592 183.36C96.5992 184 90.9592 187.26 89.1792 188.1C88.9392 187.94 89.0792 187.7 89.1792 187.46C91.9992 184 98.1992 179.8 101.999 177.14C102.445 176.681 102.816 176.154 103.099 175.58C105.731 178.029 108.538 180.281 111.499 182.32C110.587 182.918 109.718 183.58 108.899 184.3V184.3ZM155.439 202.48C154.999 202.2 154.679 201.94 154.619 201.58C153.519 193.42 159.639 147.18 159.539 145.36C159.539 145.253 159.518 145.147 159.476 145.049C159.435 144.951 159.374 144.862 159.298 144.787C159.221 144.712 159.131 144.654 159.031 144.615C158.932 144.576 158.826 144.557 158.719 144.56C157.699 144.56 159.499 144.56 134.019 168.96C132.339 170.54 119.499 182.82 117.359 183.64C114.419 183.42 103.359 174.6 101.559 171.82C105.039 164.78 147.239 106.86 161.839 97.9999C162.959 97.3199 164.879 96.2599 166.979 95.1399C167.705 95.8248 168.488 96.447 169.319 96.9999C173.959 101.4 180.419 106.88 185.319 111L181.499 118.58C181.441 118.68 181.411 118.794 181.411 118.91C181.411 119.026 181.441 119.14 181.499 119.24C212.519 163.74 212.059 163.24 212.259 163.24C214.248 173.523 215.484 183.937 215.959 194.4C215.959 197.22 215.959 196.98 216.079 196.78C216.199 196.58 216.079 196.92 216.079 196.92C211.239 202.2 163.339 207.12 155.439 202.48V202.48ZM265.999 136.22C256.939 137.48 246.699 135.6 244.719 135.52C243.619 130.188 241.426 125.142 238.279 120.7C238.231 120.635 238.16 120.591 238.081 120.576C238.002 120.561 237.92 120.577 237.852 120.62C237.784 120.663 237.734 120.73 237.713 120.808C237.692 120.886 237.702 120.969 237.739 121.04C238.899 123.4 242.779 133.58 243.739 136.06C243.439 137.02 252.779 175.64 250.139 180.84C247.779 185.54 234.039 191.46 229.079 193.16C228.099 182.026 226.496 170.955 224.279 160C224.959 154.24 224.079 120 223.819 107.34C223.812 107.193 223.762 107.051 223.677 106.931C223.593 106.81 223.475 106.716 223.339 106.66L214.359 102.88C214.318 98.1271 214.018 93.38 213.459 88.6599C235.879 92.5399 261.999 105.36 264.179 105.38C267.339 105.38 290.819 87.3799 295.679 86.6599C297.839 86.3199 307.119 94.4199 308.199 96.6599C298.719 109.9 282.059 127.3 274.339 133.32C271.852 134.983 268.981 135.981 265.999 136.22V136.22Z" fill="black"/>
<path d="M185.1 60.22C185.075 60.0886 185.025 59.9635 184.951 59.8517C184.878 59.7399 184.784 59.6437 184.673 59.5685C184.563 59.4933 184.438 59.4406 184.307 59.4134C184.177 59.3862 184.042 59.385 183.91 59.41C183.779 59.4349 183.654 59.4855 183.542 59.5588C183.43 59.6321 183.334 59.7267 183.259 59.8372C183.184 59.9477 183.131 60.0719 183.104 60.2028C183.076 60.3337 183.075 60.4686 183.1 60.5999C183.5 62.5999 183.58 63.0599 184.46 63.0599C184.627 63.0605 184.79 63.0196 184.937 62.9409C185.084 62.8622 185.208 62.7481 185.299 62.6091C185.391 62.4701 185.446 62.3105 185.46 62.1448C185.474 61.979 185.447 61.8124 185.38 61.66C185.32 61.34 185.14 60.4 185.1 60.22V60.22ZM191.22 73.46C192.52 73.84 193.76 73.22 193.72 72.9C193.68 72.58 193.72 72.74 191.96 72.08C190.78 71.64 189.48 70.08 189.02 70.32C188.56 70.56 189.26 71.84 189.42 72.08C189.848 72.7291 190.482 73.2153 191.22 73.46V73.46ZM227.8 54.4599C225.18 65.4399 223.26 74.76 222.94 76.62C222.728 77.4292 222.687 78.274 222.82 79.1C223.88 81.36 237.58 85.82 239.32 84.94C241.06 84.06 245.58 73.8799 250.84 63.3799C254.063 63.4829 257.287 63.2483 260.46 62.68C263.802 62.0669 267.054 61.039 270.14 59.62C276.9 56.5 284.3 43.1399 285.3 36.4199C286.05 29.124 284.505 21.7759 280.88 15.4C264.1 -13.7 214.88 1.95995 218.88 34.2799C220.023 41.6754 223.1 48.6373 227.8 54.4599V54.4599ZM240 78.28C240 78.6 239.64 78.56 238 78.28C234.646 77.8584 231.398 76.821 228.42 75.22C227.02 74.46 226.64 74.3 226.78 73.96C226.92 73.62 227.22 73.74 229.38 74.34C229.58 74.34 235.78 76.34 237.56 76.96C239.86 78 240 78 240 78.28V78.28ZM239.64 45.74C241.776 45.8507 243.904 45.4099 245.82 44.4599C247.601 45.3227 249.528 45.845 251.5 46C248.14 52.26 241.32 65.02 239.12 71.82L230.64 69.48C232.64 64.56 237.06 53.04 239.6 45.74H239.64ZM238.94 44.08C237.447 43.8544 236.07 43.1453 235.018 42.0616C233.967 40.9778 233.3 39.5791 233.12 38.08C232.56 34.08 235.12 29.6 238.98 30.66C241.4 31.32 241.7 33.24 241.28 35.66C240.92 37.42 239.62 41.84 238.9 44L238.94 44.08ZM244.38 39.2799C244.594 37.9712 245.085 36.7233 245.82 35.6199C246.17 35.0185 246.682 34.5272 247.297 34.2019C247.912 33.8767 248.606 33.7305 249.3 33.7799C250.78 34.2199 251.42 37.0199 250.2 38.7799C249.028 40.3359 247.568 41.653 245.9 42.66C245.326 42.3231 244.869 41.8187 244.59 41.2145C244.312 40.6103 244.224 39.9352 244.34 39.2799H244.38ZM226 13.86C234.96 3.07995 251.82 -1.20005 264 3.23995C270.617 5.51123 276.182 10.1101 279.66 16.18C283.109 22.2471 284.583 29.2369 283.88 36.18C282.96 42.4 275.88 55.32 269.66 58.18C263.973 60.774 257.768 62.0328 251.52 61.86C250.84 61.86 250.12 61.8599 249.86 62.3399C248.68 64.7399 246.52 69.38 244.4 73.74C242.936 73.0331 241.418 72.4445 239.86 71.98C242.18 65.34 249.5 52.3 252.98 45.9799C255.996 46.2383 259.026 45.7148 261.78 44.4599C262.524 44.0683 263.141 43.4726 263.559 42.7426C263.976 42.0127 264.176 41.1789 264.136 40.339C264.097 39.4991 263.818 38.6881 263.333 38.001C262.849 37.3139 262.178 36.7793 261.4 36.4599C258.3 34.9399 255.52 38.5799 253.9 41.6399C253.46 42.4399 252.96 43.3799 252.4 44.4399C250.783 44.3336 249.187 44.0039 247.66 43.4599C249.181 42.391 250.53 41.0961 251.66 39.6199C252.294 38.6637 252.614 37.5345 252.579 36.3881C252.543 35.2418 252.152 34.1348 251.46 33.22C250.917 32.589 250.162 32.1778 249.337 32.0637C248.513 31.9495 247.674 32.1402 246.98 32.5999C245.58 33.4606 244.457 34.7072 243.748 36.1902C243.038 37.6731 242.772 39.3293 242.98 40.9599C243.198 41.8804 243.694 42.7115 244.4 43.34C243.088 43.8833 241.68 44.1554 240.26 44.1399C241.06 41.7799 242.36 37.5199 242.7 35.7799C242.914 34.7879 242.961 33.7674 242.84 32.7599C242.686 31.8951 242.284 31.0933 241.685 30.4511C241.085 29.8089 240.313 29.3536 239.46 29.1399C234.6 27.7599 231.02 33.14 231.72 38.16C231.918 39.9589 232.69 41.6463 233.922 42.972C235.154 44.2977 236.781 45.1912 238.56 45.52C236 52.72 232 64.34 230 69.3L225.6 68.16C228.42 54 228.76 54.34 228.36 54.16C223.816 48.366 220.908 41.4595 219.94 34.16C219.469 30.5405 219.765 26.8623 220.809 23.3647C221.853 19.8672 223.622 16.6287 226 13.86V13.86ZM253.76 44.56C255.16 42.02 257.96 36.46 260.68 37.82C261.224 38.0391 261.698 38.4028 262.051 38.8715C262.403 39.3403 262.621 39.8965 262.68 40.4799C262.64 43.9999 257.16 44.62 253.68 44.56H253.76ZM330.32 53.38C332.73 51.9625 335.577 51.4786 338.32 52.02C341.334 52.0739 344.212 53.2787 346.365 55.3873C348.518 57.4959 349.783 60.3485 349.9 63.36C348.088 62.3086 345.97 61.9131 343.9 62.2399C338.88 62.6799 332.32 65.4 333.2 70.24C333.92 74.24 339.2 73.7 343.2 72.62C347.2 71.54 350.38 69.58 351.2 65.72C356.06 69.26 357.2 75.46 357.4 81.52C357.4 81.6048 357.434 81.6862 357.494 81.7462C357.554 81.8062 357.635 81.84 357.72 81.84C357.805 81.84 357.887 81.8062 357.947 81.7462C358.007 81.6862 358.04 81.6048 358.04 81.52C358.18 74.74 356.96 68.1 351.42 64.24C351.477 62.5035 351.181 60.7736 350.55 59.1548C349.919 57.5361 348.966 56.0623 347.749 54.8226C346.532 53.5829 345.076 52.6032 343.469 51.9427C341.862 51.2822 340.137 50.9547 338.4 50.9799C335.624 50.5745 332.793 51.1548 330.4 52.6199C329.66 52.9799 330 53.52 330.32 53.38V53.38ZM348.56 67.72C346.3 70.68 339.9 72.22 336.94 71.72C335.84 71.54 334.94 71.08 334.7 69.94C333.98 65.94 340.88 63.76 345 63.62C346.678 63.4913 348.351 63.9202 349.76 64.84C349.609 65.8856 349.196 66.8762 348.56 67.72V67.72ZM321.16 30C323.3 27.36 321.86 22.76 315.88 22.74C313.56 22.74 312.44 25.1 312.6 27.36C312.96 32.74 319.02 32.58 321.16 30V30ZM314 27.2599C314 25.9399 314.62 24.22 316 24.24C319.22 24.24 320.7 25.74 320.7 27.4C320.62 31.18 313.74 33.1399 314 27.2599V27.2599ZM313.18 254C295.6 246.98 287.44 280.96 273.08 310.16C272.99 311.387 273.03 312.621 273.2 313.84C273.2 316.9 273.54 337.16 275.32 339.46C275.8 340.38 277.82 339.46 278.76 338.88C286.744 333.938 294.267 328.288 301.24 322C301.3 321.932 301.345 321.853 301.372 321.767C301.4 321.681 301.409 321.59 301.4 321.5C305.12 316.2 319.06 288.6 322.44 274.76C324.8 264.96 322.46 257.66 313.18 254V254ZM319.46 279.4C310.049 278.194 300.949 275.222 292.64 270.64C297.32 261.78 303.1 251.68 312.64 255.48C323.26 259.7 323.04 268.44 319.46 279.34V279.4ZM286.18 331.4C285.566 330.885 284.895 330.442 284.18 330.08C281.478 328.706 278.355 328.406 275.44 329.24C275.24 326.86 274.1 311.38 274.1 311.24C289.08 316.72 284.46 314.34 299.3 321.72C297.74 323.2 291.88 327.3 286.18 331.36V331.4ZM296.5 273.52C298.451 274.586 300.453 275.554 302.5 276.42C297.916 283.621 293.865 291.148 290.38 298.94C287.02 305.96 287.14 305.92 283.72 313.58C281.72 312.94 279.72 312.34 277.72 311.74C279.88 307.44 295.24 276 296.5 273.48V273.52ZM284.5 313.78C291 302.12 297.62 287.62 303.3 276.68C305.3 277.52 307.3 278.2 309.3 278.8C308.24 280.8 305.14 286.12 304.32 287.66C303.5 289.2 295.28 305.4 294.7 306.64C293.78 308.64 291.26 314.22 290.48 316C288.44 315.1 286.48 314.42 284.42 313.74L284.5 313.78ZM291.2 316.26C292.42 314.04 297.44 304.72 298.06 303.52C299 301.66 309.48 280.24 310.06 279C311.9 279.52 313.84 279.96 315.08 280.2C311.42 290.2 300.88 309.46 297.08 318.96C293.62 317.34 292.84 316.94 291.12 316.22L291.2 316.26ZM292.42 271.22L296 273.22C288.786 285.506 282.501 298.315 277.2 311.54L274.2 310.62C285.82 285.86 286.36 282.62 292.34 271.18L292.42 271.22ZM300.66 320.7L297.64 319.26C300.9 312.86 311.1 296.44 315.76 280.34C316.88 280.54 317.98 280.72 319.04 280.86C313.901 294.574 307.73 307.878 300.58 320.66L300.66 320.7ZM238 333.68C238.797 333.02 239.367 332.126 239.629 331.125C239.891 330.124 239.832 329.066 239.46 328.1C239.291 326.706 238.652 325.412 237.648 324.43C236.645 323.448 235.337 322.837 233.94 322.698C232.544 322.558 231.141 322.898 229.963 323.662C228.785 324.426 227.903 325.568 227.46 326.9C224.9 325.24 222.12 323.48 219.46 321.8C221.46 319.14 227.34 320.32 227.94 322.5C227.954 322.585 228 322.661 228.069 322.712C228.139 322.762 228.225 322.783 228.31 322.77C228.395 322.757 228.471 322.71 228.522 322.641C228.573 322.571 228.594 322.485 228.58 322.4C228.28 318.92 221.04 316.88 218.12 320.98C215.54 319.4 212.34 317.48 209.66 316.02C211.96 314.02 217.1 315.14 217.66 317.22C217.687 317.291 217.737 317.351 217.803 317.388C217.87 317.425 217.947 317.438 218.021 317.423C218.096 317.409 218.163 317.368 218.21 317.309C218.258 317.25 218.282 317.176 218.28 317.1C218.02 313.86 211.32 311.68 208.28 315.24C207.007 314.526 205.667 313.937 204.28 313.48C204.027 313.375 203.749 313.345 203.479 313.395C203.209 313.445 202.96 313.571 202.76 313.76C197.7 320.06 180.64 336.42 172.76 338.32C172.562 338.35 172.375 338.431 172.219 338.556C172.062 338.681 171.941 338.845 171.868 339.032C171.795 339.218 171.773 339.421 171.803 339.619C171.833 339.817 171.915 340.004 172.04 340.16C173.771 341.916 175.752 343.406 177.92 344.58C175.92 346.58 174.36 348.38 173.2 349.68C172.6 350.32 172.28 362.56 172.8 365.26C172.878 365.524 173.048 365.752 173.28 365.9C175.8 367.62 208.26 381.66 211.58 379.78C213.8 378.52 240.3 350.94 240.72 350.1C241.36 348.78 241.14 339.98 241.1 336.46C240.94 335.4 238.96 334.26 238 333.68V333.68ZM174 360.1V355.64C182.3 359.64 201.3 367.8 208.5 370.08C210.34 370.68 210.5 370.6 211.46 370.08C216.96 366.56 236.38 344.68 239.94 341.34V345.56C229.14 356.38 210.8 375.34 210.46 374.26C208.48 374.14 175.72 360.9 174 360.1ZM237.5 326.94C238.219 328.151 238.606 329.531 238.62 330.94C238.613 331.388 238.503 331.829 238.299 332.228C238.094 332.626 237.8 332.973 237.44 333.24C235.76 332.12 232.58 330.04 228.82 327.6C230.88 323.54 235.46 323.48 237.42 326.94H237.5ZM173.5 339.74C182.02 337.22 198.2 321.62 203.64 314.86C204.95 315.224 206.212 315.741 207.4 316.4C205.4 320.12 207.54 324.2 208.3 323.62C208.72 323.3 207.96 323.18 207.84 321.22C207.789 319.788 208.113 318.368 208.78 317.1C211.54 318.54 214.78 320.42 217.52 322C215.84 325.74 217.86 329.44 218.56 328.9C219.26 328.36 218.24 328.48 218.12 326.52C218.071 325.235 218.318 323.955 218.84 322.78C221.66 324.44 224.54 326.16 227.18 327.78C226.773 328.777 226.612 329.856 226.709 330.928C226.807 332 227.16 333.033 227.74 333.94C227.767 333.974 227.799 334.003 227.837 334.024C227.874 334.046 227.915 334.06 227.958 334.065C228.001 334.071 228.044 334.068 228.086 334.057C228.127 334.045 228.166 334.026 228.2 334C228.234 333.974 228.263 333.941 228.285 333.904C228.306 333.866 228.32 333.825 228.326 333.782C228.331 333.74 228.328 333.696 228.317 333.655C228.306 333.613 228.287 333.574 228.26 333.54C227.901 332.745 227.723 331.881 227.741 331.009C227.758 330.137 227.97 329.28 228.36 328.5C233.02 331.34 236.78 333.72 237.94 334.5C237.72 334.7 216.86 353.26 209.76 358.78C205.1 357.56 180.64 345.42 173.5 339.74ZM174.26 350.88C183.32 354.88 203.9 364.16 208.64 365.06C209.46 365.22 209.78 365.28 211.34 364.04C218 358.7 239.66 336.04 239.86 336.28C239.87 336.34 239.87 336.4 239.86 336.46V340.46C235.4 344.04 210.6 370.08 210.2 368.84C208.2 368.84 175.7 355.58 174.04 354.84C174 354 174.18 351.76 174.26 350.88V350.88ZM210.68 378.44C208.68 379.58 178.22 367.2 174.14 364.68C173.987 363.406 173.914 362.123 173.92 360.84C182.68 365.16 208.16 375.92 210.5 375.82C213.92 375.64 238.1 348.42 239.82 346.52C239.84 347.542 239.739 348.562 239.52 349.56C239.18 350.22 212 377.7 210.68 378.44V378.44ZM44.9803 265.7C45.1203 267.84 45.2203 269.7 45.2203 271.44C45.2203 271.705 45.3256 271.959 45.5131 272.147C45.7007 272.335 45.955 272.44 46.2203 272.44C46.4855 272.44 46.7398 272.335 46.9274 272.147C47.1149 271.959 47.2203 271.705 47.2203 271.44C47.2203 269.58 47.1203 267.74 46.9803 265.56C46.9617 265.295 46.8385 265.048 46.6379 264.873C46.4372 264.699 46.1755 264.611 45.9103 264.63C45.645 264.649 45.3981 264.772 45.2237 264.972C45.0492 265.173 44.9617 265.435 44.9803 265.7V265.7ZM349.72 225.6C349.59 225.608 349.462 225.641 349.345 225.699C349.227 225.757 349.122 225.837 349.037 225.936C348.951 226.035 348.886 226.15 348.845 226.274C348.805 226.398 348.789 226.53 348.8 226.66C348.92 228.5 349.04 230.48 349.04 232.4C349.04 232.665 349.146 232.92 349.333 233.107C349.521 233.295 349.775 233.4 350.04 233.4C350.305 233.4 350.56 233.295 350.747 233.107C350.935 232.92 351.04 232.665 351.04 232.4C351.04 230.4 350.92 228.4 350.78 226.52C350.773 226.389 350.739 226.262 350.681 226.144C350.624 226.027 350.543 225.922 350.444 225.836C350.345 225.751 350.231 225.686 350.106 225.645C349.982 225.604 349.851 225.589 349.72 225.6V225.6ZM39.8003 260.72C40.0655 260.72 40.3198 260.615 40.5074 260.427C40.6949 260.239 40.8003 259.985 40.8003 259.72C40.8003 259.455 40.6949 259.2 40.5074 259.013C40.3198 258.825 40.0655 258.72 39.8003 258.72C37.3803 258.72 35.3603 258.9 33.3603 258.86C33.0932 258.86 32.8367 258.965 32.646 259.152C32.4553 259.339 32.3455 259.593 32.3403 259.86C32.3403 260.125 32.4456 260.38 32.6331 260.567C32.8207 260.755 33.075 260.86 33.3403 260.86C35.4003 260.9 37.6603 260.82 39.8003 260.72ZM343.52 219.68C341.12 219.68 339.1 219.82 337.08 219.84C336.815 219.84 336.561 219.945 336.373 220.133C336.186 220.32 336.08 220.575 336.08 220.84C336.08 221.105 336.186 221.36 336.373 221.547C336.561 221.735 336.815 221.84 337.08 221.84C339.24 221.84 341.48 221.84 343.64 221.68C343.905 221.664 344.153 221.543 344.33 221.345C344.506 221.146 344.596 220.885 344.58 220.62C344.564 220.355 344.444 220.107 344.245 219.93C344.046 219.754 343.785 219.664 343.52 219.68V219.68ZM44.4403 248.36C44.5603 250.2 44.6803 252.18 44.6803 254.1C44.6854 254.364 44.7924 254.615 44.9788 254.801C45.1653 254.988 45.4166 255.095 45.6803 255.1C45.9455 255.1 46.1998 254.995 46.3874 254.807C46.5749 254.62 46.6803 254.365 46.6803 254.1C46.6803 252.1 46.5603 250.1 46.4403 248.22C46.4217 247.955 46.2985 247.708 46.0979 247.533C45.8972 247.359 45.6355 247.271 45.3703 247.29C45.105 247.309 44.8581 247.432 44.6837 247.632C44.5092 247.833 44.4217 248.095 44.4403 248.36V248.36ZM350.5 215.06C350.5 213.06 350.38 211.06 350.24 209.18C350.222 208.915 350.099 208.668 349.898 208.493C349.697 208.319 349.435 208.231 349.17 208.25C348.905 208.269 348.658 208.392 348.484 208.592C348.309 208.793 348.222 209.055 348.24 209.32C348.36 211.16 348.48 213.14 348.48 215.06C348.48 215.325 348.586 215.58 348.773 215.767C348.961 215.955 349.215 216.06 349.48 216.06C349.747 216.06 350.004 215.955 350.195 215.768C350.385 215.581 350.495 215.327 350.5 215.06V215.06ZM59.2003 260.46C59.3316 260.455 59.4607 260.424 59.58 260.369C59.6994 260.314 59.8067 260.236 59.8959 260.139C59.9851 260.042 60.0543 259.929 60.0997 259.806C60.145 259.682 60.1656 259.551 60.1603 259.42C60.1401 259.158 60.0216 258.914 59.8287 258.736C59.6359 258.558 59.3828 258.459 59.1203 258.46C56.7003 258.56 54.6803 258.64 52.6603 258.6C52.395 258.6 52.1407 258.705 51.9532 258.893C51.7656 259.08 51.6603 259.335 51.6603 259.6C51.6603 259.865 51.7656 260.12 51.9532 260.307C52.1407 260.495 52.395 260.6 52.6603 260.6C54.8003 260.64 57.0403 260.56 59.2003 260.46ZM362.92 219.42C360.92 219.52 358.7 219.58 356.48 219.58C356.348 219.575 356.216 219.596 356.093 219.643C355.969 219.69 355.857 219.761 355.761 219.852C355.666 219.944 355.59 220.054 355.538 220.175C355.487 220.297 355.46 220.428 355.46 220.56C355.46 220.827 355.565 221.083 355.752 221.274C355.939 221.465 356.193 221.575 356.46 221.58C358.74 221.58 360.58 221.58 363 221.42C363.132 221.415 363.261 221.384 363.38 221.329C363.499 221.274 363.607 221.196 363.696 221.099C363.785 221.002 363.854 220.889 363.9 220.766C363.945 220.642 363.966 220.511 363.96 220.38C363.936 220.12 363.816 219.878 363.624 219.701C363.432 219.524 363.181 219.424 362.92 219.42V219.42ZM13.2403 201.2C13.5003 201.4 69.9003 193.04 72.3203 191.56C72.4543 191.462 72.5613 191.332 72.6312 191.182C72.7012 191.031 72.7318 190.865 72.7203 190.7C72.7203 188.12 69.3403 163.9 67.7203 157.86C67.5203 157.12 67.3203 156.38 66.8603 156.12C63.8003 154.28 9.88025 164.44 6.66025 166.52C6.57299 166.572 6.49759 166.641 6.439 166.724C6.38041 166.806 6.33995 166.901 6.32025 167C5.64025 169.42 11.5003 200 13.2403 201.2V201.2ZM7.54026 167.48C11.3803 165.74 60.3203 156.78 65.9203 157.48C67.2803 160.98 70.9203 186.62 71.1603 190.38C68.3803 191.2 14.0003 200.54 13.8003 200.58C13.6003 200.62 13.5803 200.86 13.1603 199.6C11.4003 194.32 7.44026 172 7.54026 167.48V167.48Z" fill="black"/>
<path d="M76.7197 193.34C76.8285 193.138 76.8771 192.909 76.8597 192.68C76.8597 189.5 72.2997 154.2 70.6797 151.38C70.5527 151.172 70.3729 151.001 70.1586 150.885C69.9444 150.77 69.7032 150.712 69.4597 150.72C62.7597 149.9 6.23969 160.94 2.51969 163.52C1.99969 163.88 2.07969 164.78 2.13969 165.74C2.45969 171 8.13969 205.6 10.1397 205.4C10.3597 205.4 10.2797 205.24 9.75969 206.3C6.63969 212.72 0.719687 233.28 0.839687 237.42C0.839687 239.16 1.23969 241.42 2.95969 241.3C15.2997 239.78 75.7997 230.18 93.1997 226.6C93.8797 226.46 94.3197 225.84 94.2997 224.82C94.0944 223.121 93.5792 221.473 92.7797 219.96C90.3397 215.38 80.2197 197.24 76.7197 193.34ZM10.2597 204.78C8.69969 202.78 2.95969 168.32 3.39969 164.5C7.79969 162.22 63.5597 151.44 69.3997 152.32C70.9997 156.72 75.1397 188.5 75.3997 192.32C68.3197 194.76 19.2997 202.68 10.2597 204.78ZM11.1397 205.38C12.8197 204.96 70.0397 195.38 75.2797 194C78.1397 196.66 91.0597 219.64 91.8997 221.6C80.4197 223.6 12.3197 234.98 2.29969 236.5C2.43969 230.44 8.65969 209.26 11.1397 205.38V205.38Z" fill="black"/>
<path d="M18.6597 226.12C20.3997 225.86 57.3197 221.42 70.6597 217.8C70.7419 217.779 70.8124 217.726 70.8555 217.653C70.8986 217.579 70.9109 217.492 70.8897 217.41C70.8685 217.328 70.8155 217.257 70.7423 217.214C70.6692 217.171 70.5819 217.159 70.4997 217.18C67.8797 217.72 35.9197 221.98 18.6197 225.5C18.5719 225.491 18.5228 225.494 18.4761 225.507C18.4293 225.52 18.3862 225.544 18.35 225.576C18.3138 225.608 18.2854 225.649 18.267 225.693C18.2485 225.738 18.2406 225.787 18.2437 225.835C18.2468 225.884 18.261 225.931 18.285 225.973C18.309 226.015 18.3424 226.052 18.3824 226.079C18.4225 226.106 18.4683 226.124 18.5164 226.131C18.5644 226.138 18.6134 226.135 18.6597 226.12V226.12ZM45.6397 86.9599C44.8926 88.6473 44.2644 90.3848 43.7597 92.1599C43.73 92.4447 43.8085 92.7303 43.9797 92.9599C45.9997 95.9999 66.6997 119.34 72.0997 122.62C72.8397 123.08 73.7197 123.4 74.2597 122.74C78.1824 117.859 83.3018 114.076 89.1197 111.76C93.855 110.085 98.8196 109.147 103.84 108.98C107.84 108.62 108.54 108.22 110.08 105.6C111.896 102.152 114.307 99.0511 117.2 96.4399C120.889 93.2143 124.983 90.4845 129.38 88.3199C129.578 88.2077 129.732 88.0327 129.819 87.8225C129.906 87.6123 129.92 87.3791 129.86 87.1599C129.184 85.4395 128.29 83.8129 127.2 82.3199C127.92 82.0799 128.72 81.8599 128.72 81.1399C128.72 79.1399 111.28 53.8999 106.44 49.1399C105.94 48.6399 105.22 47.9799 104.56 48.0199C94.5597 48.5799 84.8197 58.0199 79.1797 66.2599C72.7197 66.0199 68.5397 65.4399 61.1797 68.5399C55.9839 70.7454 51.2994 74 47.4197 78.0999C46.8197 78.7199 42.7397 83.0399 42.6797 83.3799C42.6197 83.7199 42.7397 83.7199 45.6397 86.9599V86.9599ZM125.64 86.3999C117.3 87.8199 111.98 94.7599 108.06 102.3C106.32 105.66 106.48 105.82 104.64 105.78C101.422 105.598 98.1947 105.718 94.9997 106.14C92.6563 106.49 90.3523 107.066 88.1197 107.86C83.0397 109.66 77.2197 115.42 74.1197 119.7C74.0539 119.788 73.9701 119.861 73.874 119.914C73.778 119.968 73.6717 120 73.5621 120.01C73.4526 120.019 73.3423 120.005 73.2385 119.969C73.1347 119.933 73.0397 119.875 72.9597 119.8C66.4597 113.1 54.9597 101.34 49.1797 94.5799C48.8997 94.2799 49.3797 93.8399 49.6597 94.1599C53.3997 98.1599 63.0597 107.74 73.4197 118.16C76.9197 113.7 82.3197 108.3 87.6597 106.42C90.5716 105.381 93.6016 104.709 96.6797 104.42C99.5622 104.201 102.457 104.201 105.34 104.42C106.52 103.06 112.36 87.6199 125.6 85.8999C125.638 85.9283 125.67 85.9651 125.693 86.0076C125.715 86.05 125.728 86.097 125.73 86.1451C125.732 86.1931 125.723 86.241 125.704 86.2851C125.685 86.3292 125.656 86.3684 125.62 86.3999H125.64ZM104.54 49.6399C108.54 52.4399 124.82 76.5399 126.94 80.7599C123.261 81.9255 119.71 83.4599 116.34 85.3399C113.148 86.9397 110.354 89.2312 108.161 92.0475C105.967 94.8639 104.429 98.1341 103.66 101.62C96.4797 89.9399 86.4597 77.0799 79.7997 67.6199C80.1997 67.3599 91.4397 50.4199 104.54 49.6399V49.6399ZM61.6197 69.6399C68.9197 66.6999 72.9597 67.3799 78.9997 67.6399C84.9997 77.8799 95.7797 92.3199 102.88 101.78C96.3266 100.229 89.4308 101.178 83.5397 104.44C79.9997 106.44 75.6797 111.24 73.0197 114.22C69.1797 111.14 47.0197 87.5399 43.4597 83.5399C48.9397 77.3399 53.9997 72.6799 61.6197 69.5599V69.6399ZM25.0197 120.5C24.5254 120.153 23.941 119.957 23.3375 119.936C22.734 119.914 22.1373 120.069 21.6197 120.38C21.2428 120.548 20.9027 120.789 20.6188 121.088C20.335 121.388 20.1129 121.74 19.9652 122.126C19.8176 122.511 19.7473 122.922 19.7583 123.334C19.7694 123.747 19.8616 124.153 20.0297 124.53C20.1978 124.907 20.4385 125.247 20.738 125.531C21.0375 125.815 21.39 126.037 21.7754 126.184C22.1608 126.332 22.5714 126.402 22.984 126.391C23.3965 126.38 23.8028 126.288 24.1797 126.12C24.7818 125.988 25.3297 125.677 25.7506 125.227C26.1716 124.776 26.4458 124.209 26.5369 123.599C26.628 122.99 26.5317 122.367 26.2608 121.813C25.9898 121.26 25.557 120.802 25.0197 120.5V120.5ZM23.6997 124.5C22.2997 124.94 21.4597 124.5 21.1197 123.82C20.4797 122.4 21.2797 120.22 23.3597 120.86C24.8197 121.4 25.9997 123.86 23.6997 124.6V124.5ZM126.72 28.9799C127.3 30.1599 130 29.7199 131.18 29.3399C131.8 29.1399 132.2 28.9199 132.26 28.3199C132.44 26.8199 132.64 13.8199 131.96 12.5599C131.889 12.4278 131.782 12.3193 131.65 12.2482C131.518 12.177 131.369 12.1463 131.22 12.1599C129.086 12.154 126.963 12.464 124.92 13.0799C124.1 13.5799 126 27.6599 126.72 28.9799ZM125.34 13.5599C127.187 13.2956 129.056 13.2085 130.92 13.2999C131.04 14.7799 130.72 27.5999 130.7 27.7999C129.855 28.1027 128.953 28.212 128.06 28.1199C127.92 27.6599 127.68 26.4199 127.38 24.8599C126.498 21.1323 125.817 17.3603 125.34 13.5599V13.5599ZM23.0797 103.62C23.2716 103.718 23.4841 103.769 23.6997 103.769C23.9153 103.769 24.1278 103.718 24.3197 103.62C25.0924 103.143 25.7052 102.447 26.0797 101.62C26.1306 101.488 26.1463 101.344 26.1252 101.204C26.1042 101.064 26.0472 100.931 25.9597 100.82C24.9997 99.6799 14.5197 87.5399 13.2397 88.2999C11.6681 89.3173 10.1771 90.454 8.77971 91.6999C8.7234 91.7502 8.67827 91.8119 8.64727 91.8808C8.61626 91.9497 8.60006 92.0243 8.59971 92.0999C8.55971 93.1399 20.1997 102.46 23.0797 103.62V103.62ZM13.4797 88.8199C14.9397 89.8799 19.8597 95.9599 24.4197 101.34C24.2235 101.649 23.9807 101.925 23.6997 102.16C18.9054 99.0914 14.328 95.6967 9.99971 91.9999C11.0847 90.8606 12.2475 89.7981 13.4797 88.8199V88.8199ZM44.8997 44.6999C45.3397 36.9399 49.8597 33.3399 54.5797 32.4199C53.2397 37.3399 53.4597 43.7399 58.3197 44.5599C60.6397 44.9399 61.7797 43.7399 63.4597 42.3399C70.6397 36.3399 64.8397 30.3399 56.7397 30.7599C59.7597 22.4799 66.7397 15.7399 75.9997 15.5199C76.0846 15.5199 76.166 15.4862 76.226 15.4262C76.286 15.3661 76.3197 15.2847 76.3197 15.1999C76.3197 15.115 76.286 15.0336 76.226 14.9736C76.166 14.9136 76.0846 14.8799 75.9997 14.8799C65.9997 14.6799 58.1397 21.8799 55.0397 30.8799C49.6997 31.7999 44.3997 35.7999 44.2597 44.5799C44.2518 44.6219 44.2523 44.6651 44.2611 44.7069C44.2699 44.7487 44.2869 44.7884 44.311 44.8237C44.3352 44.859 44.366 44.8892 44.4018 44.9126C44.4376 44.9359 44.4777 44.952 44.5197 44.9599C44.5617 44.9678 44.6049 44.9673 44.6467 44.9585C44.6886 44.9497 44.7283 44.9327 44.7636 44.9086C44.7988 44.8844 44.829 44.8536 44.8524 44.8178C44.8758 44.782 44.8918 44.7419 44.8997 44.6999V44.6999ZM56.2797 32.1799C59.2597 31.9799 63.6997 32.8999 64.9197 35.5999C65.6197 37.1399 64.9197 39.0399 62.4397 41.1199C61.7664 41.7944 60.9983 42.3671 60.1597 42.8199C57.1597 44.0999 53.8397 40.3999 56.2797 32.1799ZM61.9997 315.04C60.0674 314.522 58.0512 314.396 56.0695 314.67C54.0879 314.943 52.1809 315.61 50.4609 316.631C48.7408 317.652 47.2424 319.007 46.0538 320.616C44.8651 322.225 44.0104 324.056 43.5397 326C42.6512 330.039 43.4037 334.266 45.6317 337.75C47.8596 341.235 51.3805 343.691 55.4197 344.58C59.459 345.468 63.6857 344.716 67.1701 342.488C70.6546 340.26 73.1112 336.739 73.9997 332.7C74.3792 330.752 74.3694 328.748 73.9708 326.803C73.5721 324.859 72.7926 323.013 71.6771 321.371C70.5616 319.729 69.1322 318.325 67.4712 317.238C65.8103 316.152 63.9507 315.404 61.9997 315.04V315.04ZM68.1797 331.34C67.3772 334.54 65.4561 337.348 62.7637 339.256C60.0713 341.163 56.7853 342.044 53.4997 341.74C50.4837 340.561 47.9799 338.357 46.4288 335.515C44.8777 332.672 44.3788 329.374 45.0197 326.2C45.7681 322.922 47.6713 320.022 50.3815 318.032C53.0917 316.041 56.4278 315.093 59.7797 315.36C62.8255 316.618 65.3298 318.911 66.8517 321.834C68.3735 324.757 68.8155 328.123 68.0997 331.34H68.1797Z" fill="black"/>
<path d="M88.6397 320.74C86.8986 320.139 85.0326 319.995 83.2197 320.32C82.4683 318.597 81.5435 316.956 80.4597 315.42C81.7597 314.24 85.3197 310.96 84.4597 309.42C81.399 305.759 77.7652 302.618 73.6997 300.12C72.002 299.169 70.1326 298.564 68.1997 298.34C66.9197 298.52 63.8797 303.5 63.1997 304.62C62.7597 304.62 61.1997 304.12 61.0797 304.06C61.0797 302.62 60.6597 297.42 59.3597 296.82C57.906 296.285 56.3964 295.916 54.8597 295.72C53.4397 295.5 40.6597 297.84 39.7197 299.56C39.0997 300.72 40.5397 305.1 40.9597 306.32C39.881 306.914 38.8452 307.582 37.8597 308.32C35.8597 309.74 36.3997 309.68 36.0397 309.52C35.6046 309.312 35.1384 309.177 34.6597 309.12C33.062 308.183 31.1888 307.83 29.3597 308.12C27.5197 308.72 23.1797 318.6 22.4797 321.14C22.2506 321.781 22.1886 322.469 22.2997 323.14C22.7797 324.46 25.9797 325.52 27.3197 325.94C26.9496 328.513 26.9496 331.127 27.3197 333.7C25.5597 334.18 21.8997 335.26 22.0997 337.06C22.2997 338.86 26.9797 350.74 28.9197 351.68C29.9824 352.274 31.1576 352.64 32.37 352.754C33.5823 352.867 34.805 352.726 35.9597 352.34C36.61 352.015 37.238 351.648 37.8397 351.24C38.6397 351.84 39.4797 352.38 40.3397 352.9C39.7197 354.44 38.3397 357.88 38.7797 359.44C38.9997 360.26 39.6597 360.52 40.5797 360.86C43.1197 361.78 56.7997 365.06 58.8797 364.7C59.6597 364.58 60.0797 363.76 60.3197 362.98C60.764 361.205 61.0254 359.389 61.0997 357.56C62.1268 357.459 63.1481 357.305 64.1597 357.1C64.7774 358.187 65.5677 359.167 66.4997 360C67.5197 360.72 68.3797 360.36 69.5397 359.62C70.0997 360.34 70.9397 361.34 71.8397 361.44C74.0997 361.7 83.4397 352.9 84.3997 351.1C85.1997 349.6 82.2797 346.92 80.9797 345.74C82.386 343.624 83.49 341.322 84.2597 338.9C85.7022 339.117 87.162 339.198 88.6197 339.14C89.2797 339.14 90.0397 338.9 90.3197 338.28C91.5397 335.5 91.1797 324.96 90.3197 322.28C90.1997 321.5 89.2997 320.98 88.6397 320.74V320.74ZM89.1197 322.58C89.7997 325.18 90.0197 335 89.0197 337.54C87.2905 337.71 85.5457 337.63 83.8397 337.3C83.6575 337.269 83.4703 337.307 83.3149 337.407C83.1594 337.507 83.047 337.661 82.9997 337.84C82.2032 340.544 80.9666 343.098 79.3397 345.4C79.2238 345.553 79.1715 345.744 79.1939 345.934C79.2163 346.124 79.3116 346.299 79.4597 346.42C80.8629 347.532 82.0552 348.887 82.9797 350.42C81.9797 352.06 74.1597 359.22 71.9997 359.82C71.6797 359.82 70.7997 358.62 70.5797 358.3C69.8409 357.19 69.1729 356.034 68.5797 354.84C68.4931 354.666 68.3446 354.53 68.1633 354.46C67.982 354.39 67.781 354.39 67.5997 354.46C61.7997 356.64 59.5997 355.36 59.5997 356.8C59.6023 358.956 59.2509 361.098 58.5597 363.14C53.8596 362.629 49.231 361.596 44.7597 360.06C44.9756 357.925 45.5717 355.845 46.5197 353.92C47.1197 352.58 44.7197 352.96 40.2397 348.4C40.0955 348.266 39.9062 348.192 39.7097 348.192C39.5131 348.192 39.3239 348.266 39.1797 348.4C37.1797 350.04 34.5797 351.64 34.0597 351.38C33.0397 350.88 28.3397 340.22 28.0597 338.06C29.4822 337.069 31.0971 336.387 32.7997 336.06C32.9813 336.009 33.1381 335.893 33.241 335.735C33.344 335.577 33.3862 335.387 33.3597 335.2C32.8695 332.368 32.8695 329.472 33.3597 326.64C33.3902 326.466 33.3536 326.286 33.2571 326.138C33.1606 325.989 33.0115 325.883 32.8397 325.84C31.3319 325.445 29.8803 324.86 28.5197 324.1C28.0797 323.78 28.1197 323.8 28.1597 323.46C29.4542 318.791 31.5302 314.375 34.2997 310.4C35.3797 310.1 38.2997 312.24 39.2997 313C39.4042 313.101 39.5441 313.158 39.6897 313.158C39.8353 313.158 39.9752 313.101 40.0797 313C40.9986 312.047 41.9881 311.164 43.0397 310.36C46.0797 308.06 46.8997 308.36 46.6397 307.56C45.7203 305.553 45.2038 303.386 45.1197 301.18C45.4296 300.922 45.7814 300.719 46.1597 300.58C48.0268 299.842 49.9452 299.24 51.8997 298.78C54.2687 298.12 56.7035 297.724 59.1597 297.6C59.5797 297.78 59.9597 299.6 60.0597 300.16C60.7997 304.16 60.2997 304.98 60.8797 305.04C66.5797 305.6 67.7397 307.18 68.1397 306.48C69.2487 304.541 70.5413 302.712 71.9997 301.02C72.4197 300.6 72.3997 300.4 73.6597 301.12C77.4239 303.58 80.7952 306.594 83.6597 310.06C83.9597 310.58 81.3597 313.34 79.4597 314.96C78.7997 315.54 79.7397 315.8 81.4597 319.08C83.1797 322.36 82.7797 323.28 83.6997 323.08C85.4732 322.655 87.2984 322.487 89.1197 322.58V322.58ZM366.7 155.46C362.507 153.748 358.111 152.585 353.62 152C350.34 151.48 346.48 150.96 343.22 150.54C346.36 146.1 355.66 134.86 357.22 132.12C357.66 131.38 356.82 130.34 356.2 129.72C352.72 126 346 124.6 340.84 123.8C337.88 123.32 325.52 121.8 323.42 122.8C320.9 124 302.26 152 301.7 156.26C301.7 156.98 301.94 157.26 302.64 157.52C305.58 158.6 318.84 160.28 321.8 160.98C317.8 167.98 300.02 191.64 298.28 194.98C297.86 195.82 298.12 196.32 298.62 196.48C300.42 197.194 302.272 197.77 304.16 198.2C304.88 198.42 306.46 197.44 308.76 196.04C319.08 189.84 363.36 160.6 366.76 156.82C366.854 156.731 366.927 156.623 366.976 156.504C367.024 156.384 367.046 156.255 367.041 156.126C367.035 155.997 367.001 155.871 366.943 155.756C366.884 155.641 366.801 155.54 366.7 155.46V155.46ZM323.72 179.46C306.72 190.68 300.98 193.96 300.78 194.1C303.52 189.92 320.54 166.6 323.46 161.02C323.511 160.912 323.537 160.794 323.536 160.675C323.536 160.556 323.509 160.439 323.457 160.331C323.405 160.224 323.33 160.129 323.237 160.055C323.144 159.98 323.036 159.927 322.92 159.9C320.92 159.18 306.36 157.62 302.92 156.4C303.36 152.68 321.52 124.56 323.72 123.44C325.92 122.32 347.26 124.86 351.26 127.72C349.16 131.82 337.56 146.18 335.68 149.52C335.3 150.2 335.18 150.86 335.92 151.04C336.66 151.22 355.46 153.42 359.56 154.76C354.56 158.94 329.32 175.7 323.72 179.38V179.46ZM195.42 57.18C195.42 57.36 195.54 57.58 195.84 58.74C195.918 58.9917 196.092 59.203 196.323 59.3298C196.554 59.4566 196.825 59.4889 197.08 59.42C197.334 59.3458 197.549 59.1734 197.676 58.9409C197.804 58.7083 197.834 58.4346 197.76 58.18C197.56 57.4 197.38 56.74 197.26 56.42C197.143 56.2004 196.949 56.0321 196.715 55.9478C196.481 55.8636 196.224 55.8695 195.995 55.9644C195.765 56.0593 195.579 56.2364 195.472 56.4612C195.366 56.6859 195.347 56.9422 195.42 57.18V57.18Z" fill="black"/>
</svg>
