<svg width="536" height="60" viewBox="0 0 536 60" fill="none" xmlns="http://www.w3.org/2000/svg">
<rect width="536" height="60" fill="white"/>
<circle cx="30" cy="30" r="30" fill="#ADA5A5"/>
<circle cx="29" cy="29" r="8" stroke="#2B3F6C" stroke-width="1.5" stroke-linecap="round" stroke-linejoin="round"/>
<path d="M34.5 34.958L39.5 39.958" stroke="#2B3F6C" stroke-width="1.5" stroke-linecap="round" stroke-linejoin="round"/>
<circle cx="90" cy="30" r="30" fill="#C48787"/>
<path d="M82 24C82 21.7909 83.7909 20 86 20H90H92.0633C92.6568 20 93.2197 20.2636 93.5997 20.7196L97.5364 25.4437C97.836 25.8032 98 26.2562 98 26.7241V30V36C98 38.2091 96.2091 40 94 40H86C83.7909 40 82 38.2091 82 36V24Z" stroke="#2B3F6C" stroke-width="1.5"/>
<path d="M93 20.5V24C93 25.1046 93.8954 26 95 26H97.5" stroke="#2B3F6C" stroke-width="1.5" stroke-linecap="round"/>
<path d="M86 30H94" stroke="#2B3F6C" stroke-width="1.5" stroke-linecap="round"/>
<path d="M86 35H90" stroke="#2B3F6C" stroke-width="1.5" stroke-linecap="round"/>
<circle cx="150" cy="30" r="30" fill="#8FAABA"/>
<rect x="140" y="22" width="20" height="16" rx="5" stroke="#2B3F6C" stroke-width="1.5"/>
<path d="M144 27L148.8 30.6C149.511 31.1333 150.489 31.1333 151.2 30.6L156 27" stroke="#2B3F6C" stroke-width="1.5" stroke-linecap="round" stroke-linejoin="round"/>
<circle cx="210" cy="30" r="30" fill="#CFCF88"/>
<rect x="200" y="35" width="20" height="3" rx="1" stroke="#2B3F6C" stroke-width="1.5"/>
<rect x="201" y="23" width="18" height="12" rx="1" stroke="#2B3F6C" stroke-width="1.5"/>
<path d="M212 23.5H208" stroke="#2B3F6C" stroke-width="2.5" stroke-linecap="round"/>
<circle cx="270" cy="30" r="30" fill="#539A7C"/>
<path d="M277.298 25.4045V35.095M275.095 23.2021H265.405M275.095 37.2974H265.405M263.202 25.4045V35.095" stroke="#2B3F6C" stroke-width="1.5"/>
<circle cx="277.298" cy="23.2024" r="2.20238" stroke="#2B3F6C" stroke-width="1.5"/>
<circle cx="263.202" cy="23.2024" r="2.20238" stroke="#2B3F6C" stroke-width="1.5"/>
<circle cx="277.298" cy="37.2976" r="2.20238" stroke="#2B3F6C" stroke-width="1.5"/>
<circle cx="263.202" cy="37.2976" r="2.20238" stroke="#2B3F6C" stroke-width="1.5"/>
<circle cx="330" cy="30" r="30" fill="#C4AD6C"/>
<path d="M322 32.8851L321.25 32.8851L322 32.8851ZM324.733 36.0834L324.836 35.3405L324.836 35.3405L324.733 36.0834ZM334.919 36.0834L334.816 35.3405L334.816 35.3405L334.919 36.0834ZM322.466 31.1872L321.822 30.8031L322.466 31.1872ZM324.489 26.087C324.489 23.1394 326.879 20.75 329.826 20.75V19.25C326.05 19.25 322.989 22.311 322.989 26.087H324.489ZM324.489 28.1795V26.087H322.989V28.1795H324.489ZM322.75 32.8851C322.75 32.4037 322.882 31.9552 323.111 31.5714L321.822 30.8031C321.459 31.4128 321.25 32.1257 321.25 32.8851L322.75 32.8851ZM324.836 35.3405C323.636 35.1742 322.75 34.1313 322.75 32.8851L321.25 32.8851C321.25 34.8448 322.654 36.5524 324.63 36.8263L324.836 35.3405ZM329.826 35.772C328.334 35.772 326.407 35.5583 324.836 35.3405L324.63 36.8263C326.213 37.0458 328.225 37.272 329.826 37.272V35.772ZM334.816 35.3405C333.246 35.5583 331.318 35.772 329.826 35.772V37.272C331.427 37.272 333.439 37.0458 335.022 36.8263L334.816 35.3405ZM336.902 32.8851C336.902 34.1313 336.016 35.1742 334.816 35.3405L335.022 36.8263C336.998 36.5524 338.402 34.8448 338.402 32.8851H336.902ZM336.542 31.5714C336.77 31.9552 336.902 32.4037 336.902 32.8851H338.402C338.402 32.1257 338.193 31.4128 337.83 30.8031L336.542 31.5714ZM335.163 26.087V28.1795H336.663V26.087H335.163ZM329.826 20.75C332.774 20.75 335.163 23.1394 335.163 26.087H336.663C336.663 22.311 333.602 19.25 329.826 19.25V20.75ZM337.83 30.8031C337.521 30.2851 337.24 29.8701 337.009 29.4066C336.788 28.9629 336.663 28.567 336.663 28.1795H335.163C335.163 28.8924 335.393 29.5278 335.667 30.0766C335.931 30.6056 336.287 31.1443 336.542 31.5714L337.83 30.8031ZM322.989 28.1795C322.989 28.567 322.865 28.9629 322.643 29.4066C322.412 29.8701 322.131 30.2851 321.822 30.8031L323.111 31.5714C323.365 31.1443 323.721 30.6056 323.985 30.0766C324.259 29.5278 324.489 28.8923 324.489 28.1795H322.989Z" fill="#2B3F6C"/>
<path d="M332 38.834C331.533 39.5369 330.733 40.0002 329.826 40.0002C328.919 40.0002 328.12 39.5369 327.652 38.834" stroke="#2B3F6C" stroke-width="1.5" stroke-linecap="round"/>
</svg>
